<?xml version="1.0" encoding="UTF-8" standalone="no"?>
<!-- Created with Inkscape (http://www.inkscape.org/) -->

<svg
   xmlns:osb="http://www.openswatchbook.org/uri/2009/osb"
   xmlns:dc="http://purl.org/dc/elements/1.1/"
   xmlns:cc="http://creativecommons.org/ns#"
   xmlns:rdf="http://www.w3.org/1999/02/22-rdf-syntax-ns#"
   xmlns:svg="http://www.w3.org/2000/svg"
   xmlns="http://www.w3.org/2000/svg"
   xmlns:sodipodi="http://sodipodi.sourceforge.net/DTD/sodipodi-0.dtd"
   xmlns:inkscape="http://www.inkscape.org/namespaces/inkscape"
   width="210mm"
   height="297mm"
   viewBox="0 0 744.09448819 1052.3622047"
   id="svg2"
   version="1.1"
   inkscape:version="0.91 r13725"
   sodipodi:docname="empty-ship-space-one-flight.svg"
   inkscape:export-filename="/home/appreciate/Dropbox (MIT)/rumor-spreading-modeling/experiments/dallinger/spaceship-v2/static/images/empty-ship-space.png"
   inkscape:export-xdpi="90"
   inkscape:export-ydpi="90">
  <defs
     id="defs4">
    <linearGradient
       id="linearGradient4147"
       osb:paint="gradient">
      <stop
         style="stop-color:#000000;stop-opacity:1;"
         offset="0"
         id="stop4149" />
      <stop
         style="stop-color:#000000;stop-opacity:0;"
         offset="1"
         id="stop4151" />
    </linearGradient>
    <linearGradient
       id="linearGradient4141"
       osb:paint="solid">
      <stop
         style="stop-color:#000000;stop-opacity:1;"
         offset="0"
         id="stop4143" />
    </linearGradient>
  </defs>
  <sodipodi:namedview
     id="base"
     pagecolor="#ffffff"
     bordercolor="#666666"
     borderopacity="1.0"
     inkscape:pageopacity="0.0"
     inkscape:pageshadow="2"
     inkscape:zoom="0.76"
     inkscape:cx="-42.951126"
     inkscape:cy="520"
     inkscape:document-units="px"
     inkscape:current-layer="layer1"
     showgrid="false"
     inkscape:window-width="1920"
     inkscape:window-height="1058"
     inkscape:window-x="0"
     inkscape:window-y="0"
     inkscape:window-maximized="1" />
  <metadata
     id="metadata7">
    <rdf:RDF>
      <cc:Work
         rdf:about="">
        <dc:format>image/svg+xml</dc:format>
        <dc:type
           rdf:resource="http://purl.org/dc/dcmitype/StillImage" />
        <dc:title />
      </cc:Work>
    </rdf:RDF>
  </metadata>
  <g
     inkscape:label="Layer 1"
     inkscape:groupmode="layer"
     id="layer1">
    <flowRoot
       xml:space="preserve"
       id="flowRoot3353"
       style="font-style:normal;font-weight:normal;font-size:30px;line-height:125%;font-family:sans-serif;letter-spacing:0px;word-spacing:0px;fill:#000000;fill-opacity:1;stroke:none;stroke-width:1px;stroke-linecap:butt;stroke-linejoin:miter;stroke-opacity:1"><flowRegion
         id="flowRegion3355"><rect
           id="rect3357"
           width="542.10529"
           height="77.631584"
           x="7.8947368"
           y="4.9937835"
           style="font-size:30px" /></flowRegion><flowPara
         id="flowPara3359"
         style="font-size:45px">Last Player's Ship:</flowPara></flowRoot>    <flowRoot
       xml:space="preserve"
       id="flowRoot3361"
       style="fill:black;stroke:none;stroke-opacity:1;stroke-width:1px;stroke-linejoin:miter;stroke-linecap:butt;fill-opacity:1;font-family:sans-serif;font-style:normal;font-weight:normal;font-size:15px;line-height:125%;letter-spacing:0px;word-spacing:0px"><flowRegion
         id="flowRegion3363"><rect
           id="rect3365"
           width="15.789474"
           height="27.631578"
           x="78.947365"
           y="16.83589" /></flowRegion><flowPara
         id="flowPara3367" /></flowRoot>    <flowRoot
       xml:space="preserve"
       id="flowRoot3369"
       style="fill:black;stroke:none;stroke-opacity:1;stroke-width:1px;stroke-linejoin:miter;stroke-linecap:butt;fill-opacity:1;font-family:sans-serif;font-style:normal;font-weight:normal;font-size:15px;line-height:125%;letter-spacing:0px;word-spacing:0px"><flowRegion
         id="flowRegion3371"><rect
           id="rect3373"
           width="26.31579"
           height="38.157894"
           x="92.105263"
           y="24.730625" /></flowRegion><flowPara
         id="flowPara3375" /></flowRoot>    <rect
       style="opacity:1;fill:none;fill-opacity:1;stroke:#000000;stroke-width:6.31366491;stroke-miterlimit:4;stroke-dasharray:none;stroke-opacity:1"
       id="rect4346"
       width="595.48132"
       height="863.98938"
       x="74.341057"
       y="140.34766" />
    <flowRoot
       transform="translate(95.585025,399.9618)"
       xml:space="preserve"
       id="flowRoot3353-3"
       style="font-style:normal;font-weight:normal;font-size:30px;line-height:125%;font-family:sans-serif;letter-spacing:0px;word-spacing:0px;fill:#000000;fill-opacity:1;stroke:none;stroke-width:1px;stroke-linecap:butt;stroke-linejoin:miter;stroke-opacity:1"><flowRegion
         id="flowRegion3355-5"><rect
           id="rect3357-6"
           width="544.73682"
           height="286.8421"
           x="7.8947368"
           y="4.9937835"
           style="font-size:30px" /></flowRegion><flowPara
         id="flowPara3359-2"
         style="font-size:45px">Mouse over the above icon to view the flight of the last player's ship. </flowPara></flowRoot>  </g>
  <g
     inkscape:groupmode="layer"
     id="layer2"
     inkscape:label="Layer 2">
    <circle
       style="opacity:1;fill:#000000;fill-opacity:1;stroke-width:1;stroke-miterlimit:4;stroke-dasharray:none"
       id="path3488"
       cx="-360.52634"
       cy="812.88855"
       r="43.421051" />
    <path
       sodipodi:type="spiral"
       style="fill:#ffffff;fill-opacity:1;fill-rule:evenodd;stroke:#000000;stroke-width:1px;stroke-linecap:butt;stroke-linejoin:miter;stroke-opacity:1"
       id="path4300"
       sodipodi:cx="-363.15787"
       sodipodi:cy="812.88855"
       sodipodi:expansion="1"
       sodipodi:revolution="8.4054499"
       sodipodi:radius="32.683533"
       sodipodi:argument="-51.942097"
       sodipodi:t0="0"
       d="m -363.15787,812.88855 c -0.0618,-0.5816 0.75351,-0.37021 0.96666,-0.10267 0.57762,0.72501 -0.0377,1.71804 -0.76131,2.03598 -1.29439,0.56873 -2.69855,-0.37664 -3.10532,-1.62529 -0.59694,-1.83244 0.71579,-3.69592 2.48928,-4.17464 2.36378,-0.63807 4.69975,1.05442 5.24397,3.35325 0.68486,2.89285 -1.39267,5.70676 -4.21724,6.31331 -3.42093,0.7346 -6.71559,-1.73068 -7.38263,-5.08123 -0.78608,-3.9485 2.06853,-7.72556 5.94521,-8.45196 4.47578,-0.83865 8.73629,2.40628 9.52129,6.80919 0.89196,5.00288 -2.74395,9.74756 -7.67318,10.59062 -5.52985,0.94579 -10.7592,-3.08157 -11.65994,-8.53716 -1,-6.05674 3.41915,-11.77114 9.40114,-12.72927 6.58356,-1.05449 12.78331,3.7567 13.7986,10.26512 1.10919,7.11035 -4.09423,13.79565 -11.1291,14.86794 -7.63711,1.16407 -14.80814,-4.43176 -15.93727,-11.99309 -1.2191,-8.16383 4.76925,-15.82074 12.85707,-17.0066 8.69053,-1.27423 16.83343,5.10674 18.07593,13.72106 1.32946,9.21721 -5.44423,17.84619 -14.58504,19.14525 -9.74389,1.38476 -18.85903,-5.7817 -20.21458,-15.44902 -1.44014,-10.27055 6.11916,-19.87192 16.313,-21.28391 10.7972,-1.49556 20.88486,6.45662 22.35324,17.17699 1.55104,11.32383 -6.79408,21.89784 -18.04097,23.42256 -11.85047,1.60656 -22.91086,-7.13153 -24.4919,-18.90495 -1.6621,-12.3771 7.46898,-23.92391 19.76894,-25.56123 12.90372,-1.71768 24.93699,7.80643 26.63056,20.63292 1.77329,13.43034 -8.14387,25.9501 -21.49691,27.69989 -13.95695,1.82893 -26.96321,-8.48131 -28.76921,-22.36089 -1.88459,-14.48356 8.81875,-27.97636 23.22487,-29.83854 15.01017,-1.94026 28.98952,9.15618 30.90787,24.08885 1.99596,15.53678 -9.49362,30.0027 -24.95284,31.9772 -16.06337,2.05167 -31.01589,-9.83105 -33.04653,-25.81682 -2.10739,-16.58997 10.16849,-32.02909 26.6808,-34.11586 17.11658,-2.16312 33.04232,10.50592 35.18519,27.54479 1.33139,10.58637 -2.82513,21.36911 -10.84699,28.38819" />
  </g>
  <g
     inkscape:groupmode="layer"
     id="layer3"
     inkscape:label="Layer 3">
    <circle
       style="opacity:0.6;fill:#ff0000;fill-opacity:1;stroke-width:1;stroke-miterlimit:4;stroke-dasharray:none"
       id="path3478"
       cx="-391.42105"
       cy="659.57288"
       r="56.578949" />
  </g>
</svg>
