<?xml version="1.0" encoding="UTF-8" standalone="no"?>
<!-- Created with Inkscape (http://www.inkscape.org/) -->

<svg
   xmlns:dc="http://purl.org/dc/elements/1.1/"
   xmlns:cc="http://creativecommons.org/ns#"
   xmlns:rdf="http://www.w3.org/1999/02/22-rdf-syntax-ns#"
   xmlns:svg="http://www.w3.org/2000/svg"
   xmlns="http://www.w3.org/2000/svg"
   xmlns:sodipodi="http://sodipodi.sourceforge.net/DTD/sodipodi-0.dtd"
   xmlns:inkscape="http://www.inkscape.org/namespaces/inkscape"
   width="200"
   height="200"
   viewBox="0 0 199.99999 199.99999"
   id="svg6522"
   version="1.1"
   inkscape:version="0.91 r13725"
   sodipodi:docname="set-2-part-1-icon.svg"
   inkscape:export-filename="/home/appreciate/Dropbox (MIT)/rumor-spreading-modeling/experiments/spaceship/set-1-part-8-icon.png"
   inkscape:export-xdpi="90"
   inkscape:export-ydpi="90">
  <defs
     id="defs6524">
    <inkscape:perspective
       sodipodi:type="inkscape:persp3d"
       inkscape:vp_x="-350.73697 : -63.083392 : 1"
       inkscape:vp_y="0 : 1508.9024 : 0"
       inkscape:vp_z="772.02898 : -63.083392 : 1"
       inkscape:persp3d-origin="210.64601 : -327.73537 : 1"
       id="perspective4787" />
  </defs>
  <sodipodi:namedview
     id="base"
     pagecolor="#ffffff"
     bordercolor="#666666"
     borderopacity="1.0"
     inkscape:pageopacity="0.0"
     inkscape:pageshadow="2"
     inkscape:zoom="1.979899"
     inkscape:cx="-46.448431"
     inkscape:cy="147.35948"
     inkscape:document-units="px"
     inkscape:current-layer="layer1"
     showgrid="false"
     inkscape:snap-nodes="false"
     units="px"
     inkscape:window-width="1920"
     inkscape:window-height="1058"
     inkscape:window-x="0"
     inkscape:window-y="0"
     inkscape:window-maximized="1" />
  <metadata
     id="metadata6527">
    <rdf:RDF>
      <cc:Work
         rdf:about="">
        <dc:format>image/svg+xml</dc:format>
        <dc:type
           rdf:resource="http://purl.org/dc/dcmitype/StillImage" />
        <dc:title></dc:title>
      </cc:Work>
    </rdf:RDF>
  </metadata>
  <g
     inkscape:label="Layer 1"
     inkscape:groupmode="layer"
     id="layer1"
     transform="translate(0,-852.36223)">
    <path
       style="fill:none;fill-rule:evenodd;stroke:#000000;stroke-width:2.51214337px;stroke-linecap:butt;stroke-linejoin:miter;stroke-opacity:1"
       d="m 130.2666,953.14867 c -9.91633,0 -19.83269,0 -29.74905,0 -12.119983,0 -24.239967,0 -36.359976,0 -1.101801,0 -2.203627,0 -3.305428,0 -1.101826,0 -2.526362,0.77911 -3.305453,0 -0.779116,-0.77909 0,-2.20363 0,-3.30546 0,-1.1018 0,-2.20362 0,-3.30545 0,-3.30545 0,-6.61088 0,-9.91633 0,-19.83272 0,-39.66544 0,-59.49814 0,-4.40727 0,-8.81455 0,-13.22181 0,-1.1018 -0.985514,-2.81269 0,-3.30543 1.970977,-0.98548 4.407254,0 6.610881,0 2.203649,0 4.407277,0 6.610904,0 7.712732,0 15.425437,0 23.138169,0 1.101826,0 2.319964,-0.49275 3.305453,0 6.01894,3.00945 1.93764,2.50745 3.30545,6.61089 0.77909,2.33729 1.93882,4.56094 3.30546,6.6109 5.04257,7.56386 2.61649,-2.06689 6.6109,9.91634 0.34841,1.04527 -0.49276,2.31996 0,3.30545 0.69684,1.39371 2.8127,1.82721 3.30545,3.30545 0.62678,1.88037 0,13.41407 0,16.52727 0,11.01818 0,22.03634 0,33.05453 0,2.58381 0.60229,21.33126 0,23.13815 -0.77911,2.33732 -1.56333,4.86878 -3.30545,6.6109 -1.74212,1.74212 -4.56094,1.93882 -6.6109,3.30546 -1.29652,0.86432 -1.82721,2.81269 -3.30546,3.30545 -3.5124,1.17081 -9.709406,-1.17081 -13.221809,0 -2.337296,0.77909 -4.220725,2.70791 -6.610904,3.30545 -2.513676,0.62841 -13.759311,0 -16.527263,0 -1.306666,0 -15.115542,0.70584 -16.527241,0 -1.393712,-0.69684 -2.608609,-1.91174 -3.305453,-3.30545 -0.502981,-1.00596 0,-8.42771 0,-9.91636 0,-8.81453 0,-17.62907 0,-26.4436 0,-2.20365 -1.222359,-4.77739 0,-6.61091 1.366631,-2.04996 4.639904,-1.8272 6.610906,-3.30545 19.131904,-14.34894 -4.257379,-2.24111 13.221788,-6.61091 2.390176,-0.59753 4.323396,-2.39045 6.610904,-3.30545 3.235062,-1.29403 6.681321,-2.01145 9.916359,-3.30545 2.287533,-0.91503 4.220727,-2.70792 6.610904,-3.30546 2.137834,-0.53445 4.407279,0 6.610906,0 5.509083,0 11.018163,0 16.527263,0 1.48862,0 8.9104,-0.50298 9.91636,0 6.48874,3.24436 1.48809,6.28167 3.30545,9.91636 0.69685,1.39369 2.60859,1.91174 3.30543,3.30546 0.98481,1.96957 -0.76779,13.45604 0,16.52724 2.86537,11.46148 7.9606,22.53211 13.22181,33.05453 1.10183,2.20363 1.93882,4.56095 3.30545,6.61091 0.86436,1.29649 2.60861,1.91174 3.30546,3.30545 0.59769,1.19535 0,14.2282 0,16.5273 0,5.509 0,11.0181 0,16.5272 0,2.2037 0.69684,4.5204 0,6.6109 -0.49273,1.4783 -2.00894,2.4411 -3.30546,3.3055 -2.04996,1.3666 -4.40725,2.2036 -6.6109,3.3054 -7.43165,3.7159 -14.87435,8.2636 -23.13815,9.9164 -2.16084,0.4321 -4.40728,0 -6.6109,0 -6.61091,0 -13.221813,0 -19.832719,0 -2.203625,0 -4.407252,0 -6.610904,0 -2.203627,0 -5.052699,1.5582 -6.610906,0 -5.254726,-5.2547 -2.447833,-13.8294 -3.305453,-19.8327 -0.642456,-4.4973 -2.662973,-8.7246 -3.305454,-13.2219 -0.467459,-3.2722 0,-6.6108 0,-9.9163 0,-11.01817 0,-22.03634 0,-33.05452 0,-9.91636 0,-19.83272 0,-29.74905 0,-1.10183 0,-2.20366 0,-3.30546 0,-1.10182 -0.779091,-2.52636 0,-3.30545 1.742147,-1.74215 4.560973,-1.93882 6.610907,-3.30545 4.863886,-3.2426 8.357926,-9.97922 13.22181,-13.22182 1.664596,-7.28245 6.799945,-1.74724 9.916359,-3.30545 1.39371,-0.69684 1.82721,-2.8127 3.30545,-3.30545 2.09056,-0.69685 4.40726,0 6.61091,0 1.1018,0 3.03821,1.06892 3.30545,0 1.06892,-4.27567 0,-8.81454 0,-13.22181 0,-3.30546 0,-6.61091 0,-9.91636 0,-2.20363 0,-4.40726 0,-6.61089 0,-3.30545 1.47825,-6.95989 0,-9.91635 -1.10183,-2.20366 -4.56094,-1.93883 -6.6109,-3.30546 -1.29652,-0.86433 -1.82721,-2.81269 -3.30546,-3.30543 -0.86279,-0.28759 -18.236799,-0.53197 -19.832713,0 -11.399604,3.79985 -3.466808,2.47256 -9.916359,13.22179 -1.603376,2.67229 -5.217195,3.82348 -6.610904,6.61088 -1.970978,3.94201 1.068939,8.94615 0,13.22182 -0.597539,2.39017 -2.526337,4.2736 -3.305428,6.6109 -0.546919,1.64068 -0.281511,9.63485 0,9.91636 6.752387,6.75242 15.569835,1.41338 23.138144,3.30545 2.390176,0.59754 4.273606,2.52634 6.610904,3.30546 4.10346,1.36781 3.601434,-2.71349 6.610906,3.30545 0.492757,0.98549 -0.779116,2.52634 0,3.30545 0.779091,0.77909 2.52634,-0.77911 3.30545,0 0.4083,0.4083 0,11.149 0,13.22182 0,6.61088 0,13.22178 0,19.83269 0,1.10183 0,2.20365 0,3.30545 0,1.10183 0.77909,2.52637 0,3.30546 -1.74212,1.74212 -4.560944,1.93882 -6.610903,3.30545 -1.296517,0.86433 -1.793771,2.92753 -3.305453,3.30545 -3.206751,0.8017 -6.655871,-0.5434 -9.916357,0 -3.436838,0.57282 -6.499769,2.62213 -9.916359,3.30546 -2.160821,0.43216 -4.407255,0 -6.610904,0 -5.50908,0 -11.018161,0 -16.527241,0 -3.305453,0 -6.610906,0 -9.916357,0 -1.101826,0 -2.526362,0.77909 -3.305453,0 -0.779116,-0.7791 0,-2.20363 0,-3.30546 0,-5.50908 0,-11.01816 0,-16.52726 0,-1.24178 -0.0824,-16.44477 0,-16.52724 1.742121,-1.74215 4.323374,-2.39046 6.610904,-3.30546 3.235038,-1.29403 6.479496,-2.73266 9.916359,-3.30545 3.260461,-0.54343 6.610907,0 9.91636,0 6.610878,0 13.221785,0 19.832691,0 13.22181,0 26.443623,0 39.665433,0 4.40725,0 8.81453,0 13.22178,0 2.20366,0 4.45007,0.43216 6.61091,0 3.41659,-0.68333 6.49977,-2.62215 9.91636,-3.30545 0.12736,-0.0254 9.90015,0.0151 9.91636,0 0.77909,-0.77912 0,-2.20366 0,-3.30546 0,-1.10182 0,-2.20365 0,-3.30545 0,-2.20363 0,-4.40728 0,-6.61091 0,-2.20362 0.98549,-4.6399 0,-6.6109 -3.28662,-6.57323 -16.62315,-13.26975 -23.13817,-16.52727 -2.20363,-1.1018 -4.19501,-2.82227 -6.61091,-3.30545 -3.24124,-0.64823 -6.61088,0 -9.91633,0 -5.50911,0 -11.01819,0 -16.52726,0 -1.10183,0 -2.52637,-0.77909 -3.30546,0 -1.5582,1.55821 0.98549,4.63993 0,6.61091 -0.69684,1.39371 -2.608606,1.91176 -3.30545,3.30545 -0.502981,1.00596 0,8.42771 0,9.91636 0,6.6109 0,13.22181 0,19.83272 0,24.23997 0,48.47994 0,72.71993 0,5.5091 0,11.0182 0,16.5273 0,1.1018 -0.779116,2.5263 0,3.3054 0.779091,0.7791 2.20363,0 3.30545,0 1.10183,0 2.20363,0 3.30546,0 9.91635,0 19.83271,0 29.74904,0 4.40728,0 8.81456,0 13.22182,0 2.20362,0 4.40727,0 6.6109,0 1.10183,0 2.31997,0.4928 3.30545,0 1.39372,-0.6968 2.20363,-2.2036 3.30546,-3.3054 1.10182,-1.1018 2.60861,-1.9118 3.30545,-3.3055 0.49276,-0.9855 0,-2.2036 0,-3.3055 0,-2.2036 -0.69684,-4.5203 0,-6.6108 0.49276,-1.4783 2.60861,-1.9118 3.30545,-3.3055 0.59033,-1.1806 0,-19.06761 0,-19.83271 0,-7.71273 0,-15.42544 0,-23.13817 0,-2.20363 0.69685,-4.52035 0,-6.61091 -0.6999,-2.09972 -9.99235,-6.53489 -6.6109,-9.91633 0.64338,-0.64339 15.32028,0.60349 16.52726,0 0.98549,-0.49276 -0.77912,-2.52636 0,-3.30545 0.77909,-0.77912 2.31994,0.49273 3.30545,0 1.39369,-0.69687 2.20363,-2.20366 3.30546,-3.30546"
       id="path6772"
       inkscape:connector-curvature="0" />
  </g>
</svg>
