<?xml version="1.0" encoding="UTF-8" standalone="no"?>
<!-- Created with Inkscape (http://www.inkscape.org/) -->

<svg
   xmlns:osb="http://www.openswatchbook.org/uri/2009/osb"
   xmlns:dc="http://purl.org/dc/elements/1.1/"
   xmlns:cc="http://creativecommons.org/ns#"
   xmlns:rdf="http://www.w3.org/1999/02/22-rdf-syntax-ns#"
   xmlns:svg="http://www.w3.org/2000/svg"
   xmlns="http://www.w3.org/2000/svg"
   xmlns:xlink="http://www.w3.org/1999/xlink"
   xmlns:sodipodi="http://sodipodi.sourceforge.net/DTD/sodipodi-0.dtd"
   xmlns:inkscape="http://www.inkscape.org/namespaces/inkscape"
   width="210mm"
   height="297mm"
   viewBox="0 0 744.09448819 1052.3622047"
   id="svg2"
   version="1.1"
   inkscape:version="0.91 r13725"
   sodipodi:docname="set-3-part-7-failed.svg"
   inkscape:export-filename="/home/appreciate/Dropbox (MIT)/rumor-spreading-modeling/experiments/spaceship/set-3-part-7.png"
   inkscape:export-xdpi="90"
   inkscape:export-ydpi="90">
  <defs
     id="defs4">
    <inkscape:perspective
       sodipodi:type="inkscape:persp3d"
       inkscape:vp_x="-1069.7368 : 76.181093 : 1"
       inkscape:vp_y="0 : 1000 : 0"
       inkscape:vp_z="-325.64236 : 76.181093 : 1"
       inkscape:persp3d-origin="-697.68961 : -99.212608 : 1"
       id="perspective4787" />
    <linearGradient
       id="linearGradient4147"
       osb:paint="gradient">
      <stop
         style="stop-color:#000000;stop-opacity:1;"
         offset="0"
         id="stop4149" />
      <stop
         style="stop-color:#000000;stop-opacity:0;"
         offset="1"
         id="stop4151" />
    </linearGradient>
    <linearGradient
       id="linearGradient4141"
       osb:paint="solid">
      <stop
         style="stop-color:#000000;stop-opacity:1;"
         offset="0"
         id="stop4143" />
    </linearGradient>
  </defs>
  <sodipodi:namedview
     id="base"
     pagecolor="#ffffff"
     bordercolor="#666666"
     borderopacity="1.0"
     inkscape:pageopacity="0.0"
     inkscape:pageshadow="2"
     inkscape:zoom="0.76"
     inkscape:cx="242.57519"
     inkscape:cy="416.2662"
     inkscape:document-units="px"
     inkscape:current-layer="layer3"
     showgrid="false"
     inkscape:window-width="1920"
     inkscape:window-height="1058"
     inkscape:window-x="0"
     inkscape:window-y="0"
     inkscape:window-maximized="1" />
  <metadata
     id="metadata7">
    <rdf:RDF>
      <cc:Work
         rdf:about="">
        <dc:format>image/svg+xml</dc:format>
        <dc:type
           rdf:resource="http://purl.org/dc/dcmitype/StillImage" />
        <dc:title></dc:title>
      </cc:Work>
    </rdf:RDF>
  </metadata>
  <g
     inkscape:label="Layer 1"
     inkscape:groupmode="layer"
     id="layer1">
    <path
       style="fill:none;fill-rule:evenodd;stroke:#000000;stroke-width:1px;stroke-linecap:butt;stroke-linejoin:miter;stroke-opacity:1"
       d="m 134.21053,247.15168 c 248.68421,-150 248.68421,-150 248.68421,-150 l 234.21052,143.42105 z"
       id="path3381"
       inkscape:connector-curvature="0" />
    <path
       style="fill:#000000"
       d="m 142.96993,243.26489 c 1.08552,-0.64636 55.52521,-33.48357 120.97708,-72.9716 108.52875,-65.47691 119.24168,-71.64486 121.71052,-70.07457 1.48892,0.94702 52.88306,32.42566 114.20919,69.95254 61.32613,37.52688 111.25733,68.47542 110.95821,68.77455 -0.91786,0.91784 -339.51981,5.49126 -406.67079,5.49281 -37.66295,8.7e-4 -62.36118,-0.47293 -61.18421,-1.17373 z"
       id="path3383"
       inkscape:connector-curvature="0" />
    <path
       style="fill:none;fill-rule:evenodd;stroke:#000000;stroke-width:1px;stroke-linecap:butt;stroke-linejoin:miter;stroke-opacity:1"
       d="M 138.15789,903.73063 43.421053,1014.2569 700,1015.5727 615.78947,902.41484 Z"
       id="path3385"
       inkscape:connector-curvature="0" />
    <path
       style="fill:#000000"
       d="m 159.00139,1012.9522 -112.258021,-0.6689 45.805387,-53.45915 45.805384,-53.4591 165.79473,-0.9038 c 91.18711,-0.49709 198.62504,-0.71681 238.75098,-0.48827 l 72.95624,0.41554 39.25026,52.63158 c 21.58764,28.94737 39.84725,53.6678 40.57691,54.9342 1.26146,2.1895 -9.13106,2.287 -211.54862,1.9848 -117.08138,-0.1748 -263.39134,-0.6189 -325.13325,-0.9869 z"
       id="path3387"
       inkscape:connector-curvature="0" />
    <path
       style="fill:#000000"
       d="m 180.75314,1049.0071 -101.611514,-0.3453 0.734764,-31.8998 c 0.404121,-17.5449 0.962695,-32.63993 1.241276,-33.54453 0.399245,-1.29643 20.787164,-1.6388 96.271494,-1.61668 92.99975,0.0273 484.54379,3.40673 485.2517,4.18829 0.19374,0.2139 0.7837,14.74752 1.31101,32.29682 l 0.95877,31.9079 -191.27299,-0.3207 c -105.20014,-0.1764 -236.99817,-0.4761 -292.88451,-0.666 z"
       id="path3395"
       inkscape:connector-curvature="0" />
    <flowRoot
       xml:space="preserve"
       id="flowRoot3361"
       style="fill:black;stroke:none;stroke-opacity:1;stroke-width:1px;stroke-linejoin:miter;stroke-linecap:butt;fill-opacity:1;font-family:sans-serif;font-style:normal;font-weight:normal;font-size:15px;line-height:125%;letter-spacing:0px;word-spacing:0px"><flowRegion
         id="flowRegion3363"><rect
           id="rect3365"
           width="15.789474"
           height="27.631578"
           x="78.947365"
           y="16.83589" /></flowRegion><flowPara
         id="flowPara3367"></flowPara></flowRoot>    <flowRoot
       xml:space="preserve"
       id="flowRoot3369"
       style="fill:black;stroke:none;stroke-opacity:1;stroke-width:1px;stroke-linejoin:miter;stroke-linecap:butt;fill-opacity:1;font-family:sans-serif;font-style:normal;font-weight:normal;font-size:15px;line-height:125%;letter-spacing:0px;word-spacing:0px"><flowRegion
         id="flowRegion3371"><rect
           id="rect3373"
           width="26.31579"
           height="38.157894"
           x="92.105263"
           y="24.730625" /></flowRegion><flowPara
         id="flowPara3375"></flowPara></flowRoot>    <rect
       style="opacity:1;fill:none;fill-opacity:1;stroke:#000000;stroke-width:4.9187355;stroke-miterlimit:4;stroke-dasharray:none;stroke-opacity:1"
       id="rect4346"
       width="480.34445"
       height="650.08136"
       x="134.16991"
       y="248.37421" />
  </g>
  <g
     inkscape:groupmode="layer"
     id="layer2"
     inkscape:label="Layer 2">
    <path
       style="fill:none;fill-rule:evenodd;stroke:#000000;stroke-width:0.5799948px;stroke-linecap:butt;stroke-linejoin:miter;stroke-opacity:1"
       d="m -371.0693,308.17405 c 34.378,-16.0962 7.41492,-63.21127 34.378,-16.0962 26.96308,47.11507 54.68796,60.09619 26.96308,47.11507 -27.72488,-12.98112 -16.31026,-44.13328 -16.31026,-44.13328 l -1.15464,-23.20244"
       id="path7327"
       inkscape:connector-curvature="0" />
    <rect
       style="opacity:1;fill:#000000;fill-opacity:1;stroke:#000000;stroke-width:3;stroke-miterlimit:4;stroke-dasharray:none;stroke-opacity:1"
       id="rect7329"
       width="19.736841"
       height="25"
       x="-392.10526"
       y="291.83588" />
    <path
       sodipodi:type="star"
       style="opacity:1;fill:#008000;fill-opacity:1;stroke:#000000;stroke-width:3;stroke-miterlimit:4;stroke-dasharray:none;stroke-opacity:1"
       id="path7371"
       sodipodi:sides="5"
       sodipodi:cx="-367.10528"
       sodipodi:cy="370.78326"
       sodipodi:r1="16.747267"
       sodipodi:r2="16.355295"
       sodipodi:arg1="0.78539816"
       sodipodi:arg2="1.4137167"
       inkscape:flatsided="false"
       inkscape:rounded="0"
       inkscape:randomized="0"
       d="m -355.26318,382.62537 -9.28357,4.31183 -10.16164,-1.23201 -6.96957,-7.49678 -1.96841,-10.045 4.97614,-8.94509 8.94509,-4.97614 10.045,1.96841 7.49678,6.96957 1.23201,10.16164 z"
       inkscape:transform-center-x="0.19357198"
       inkscape:transform-center-y="-0.19357198" />
    <path
       sodipodi:type="spiral"
       style="fill:none;fill-rule:evenodd;stroke:#000000;stroke-width:1px;stroke-linecap:butt;stroke-linejoin:miter;stroke-opacity:1"
       id="path7381"
       sodipodi:cx="-347.36844"
       sodipodi:cy="404.99377"
       sodipodi:expansion="1"
       sodipodi:revolution="2.86151"
       sodipodi:radius="34.311592"
       sodipodi:argument="-20.554262"
       sodipodi:t0="0.162862"
       d="m -345.46627,410.24812 c -3.23503,2.59702 -7.92076,0.90138 -9.97517,-2.33176 -3.07092,-4.83288 -0.62036,-11.15318 4.13001,-13.81425 6.39589,-3.58286 14.40684,-0.34616 17.65332,5.92826 4.11167,7.94656 0.0757,17.67061 -7.72652,21.4924 -9.49157,4.64927 -20.94002,-0.19248 -25.33147,-9.52478 -5.192,-11.03356 0.45929,-24.21292 11.32303,-29.17054 12.57377,-5.73798 27.48815,0.72519 33.00962,13.12128 6.28613,14.11283 -0.99044,30.76498 -14.91954,36.84869 -15.65109,6.83581 -34.04298,-1.25524 -40.68776,-16.71779 -4.07213,-9.47594 -3.35825,-20.53334 1.67493,-29.50688" />
    <rect
       style="opacity:1;fill:#00ff00;fill-opacity:1;stroke:#000000;stroke-width:1.54645002;stroke-miterlimit:4;stroke-dasharray:none;stroke-opacity:1"
       id="rect7491"
       width="18.061995"
       height="50.889938"
       x="-371.96979"
       y="483.52444" />
    <use
       id="use7607"
       xlink:href="#rect7491"
       x="0"
       y="0"
       width="100%"
       height="100%"
       transform="translate(21.062359,-0.61535737)" />
    <use
       id="use7609"
       xlink:href="#rect7491"
       x="0"
       y="0"
       width="100%"
       height="100%"
       transform="translate(17.650849,20.204733)" />
    <use
       id="use7611"
       xlink:href="#rect7491"
       x="0"
       y="0"
       width="100%"
       height="100%"
       transform="translate(18.255329,13.676833)" />
    <use
       id="use7613"
       xlink:href="#rect7491"
       x="0"
       y="0"
       width="100%"
       height="100%"
       transform="translate(-0.27830053,17.796813)" />
    <use
       id="use7615"
       xlink:href="#rect7491"
       x="0"
       y="0"
       width="100%"
       height="100%"
       transform="translate(0.05590947,24.213873)" />
    <use
       id="use7617"
       xlink:href="#rect7491"
       x="0"
       y="0"
       width="100%"
       height="100%"
       transform="translate(5.7810595,-7.1377474)" />
    <use
       id="use7619"
       xlink:href="#rect7491"
       x="0"
       y="0"
       width="100%"
       height="100%"
       transform="translate(8.0966295,-9.8293374)" />
    <use
       id="use7621"
       xlink:href="#rect7491"
       x="0"
       y="0"
       width="100%"
       height="100%"
       transform="translate(-22.710921,-6.5238174)" />
    <use
       id="use7623"
       xlink:href="#rect7491"
       x="0"
       y="0"
       width="100%"
       height="100%"
       transform="translate(-12.011921,15.693513)" />
    <use
       id="use7625"
       xlink:href="#rect7491"
       x="0"
       y="0"
       width="100%"
       height="100%"
       transform="translate(-1.8756305,-22.711317)" />
    <use
       id="use7627"
       xlink:href="#rect7491"
       x="0"
       y="0"
       width="100%"
       height="100%"
       transform="translate(-11.069431,-5.6397174)" />
    <use
       id="use7629"
       xlink:href="#rect7491"
       x="0"
       y="0"
       width="100%"
       height="100%"
       transform="translate(4.1600195,2.9711826)" />
    <use
       id="use7631"
       xlink:href="#rect7491"
       x="0"
       y="0"
       width="100%"
       height="100%"
       transform="translate(-14.714951,9.9204326)" />
    <use
       id="use7633"
       xlink:href="#rect7491"
       x="0"
       y="0"
       width="100%"
       height="100%"
       transform="translate(-24.691671,-10.592907)" />
    <use
       id="use7635"
       xlink:href="#rect7491"
       x="0"
       y="0"
       width="100%"
       height="100%"
       transform="translate(-2.7811405,17.612933)" />
    <use
       id="use7637"
       xlink:href="#rect7491"
       x="0"
       y="0"
       width="100%"
       height="100%"
       transform="translate(0.15083947,7.8400326)" />
    <use
       id="use7639"
       xlink:href="#rect7491"
       x="0"
       y="0"
       width="100%"
       height="100%"
       transform="translate(4.8796695,0.23812263)" />
    <use
       id="use7641"
       xlink:href="#rect7491"
       x="0"
       y="0"
       width="100%"
       height="100%"
       transform="translate(-2.0127005,22.100633)" />
    <use
       id="use7643"
       xlink:href="#rect7491"
       x="0"
       y="0"
       width="100%"
       height="100%"
       transform="translate(13.020999,10.147743)" />
    <use
       id="use7645"
       xlink:href="#rect7491"
       x="0"
       y="0"
       width="100%"
       height="100%"
       transform="translate(12.090919,-4.3545174)" />
    <use
       id="use7647"
       xlink:href="#rect7491"
       x="0"
       y="0"
       width="100%"
       height="100%"
       transform="translate(2.3527895,-14.269127)" />
    <use
       id="use7649"
       xlink:href="#rect7491"
       x="0"
       y="0"
       width="100%"
       height="100%"
       transform="translate(-14.282491,-20.685577)" />
    <use
       id="use7651"
       xlink:href="#rect7491"
       x="0"
       y="0"
       width="100%"
       height="100%"
       transform="translate(-20.376011,7.8593426)" />
    <use
       id="use7653"
       xlink:href="#rect7491"
       x="0"
       y="0"
       width="100%"
       height="100%"
       transform="translate(17.474759,16.452783)" />
    <use
       id="use7655"
       xlink:href="#rect7491"
       x="0"
       y="0"
       width="100%"
       height="100%"
       transform="translate(0.24809947,10.534983)" />
    <use
       id="use7657"
       xlink:href="#rect7491"
       x="0"
       y="0"
       width="100%"
       height="100%"
       transform="translate(-2.6788805,21.436603)" />
    <use
       id="use7659"
       xlink:href="#rect7491"
       x="0"
       y="0"
       width="100%"
       height="100%"
       transform="translate(1.2798195,10.084803)" />
    <path
       style="opacity:1;fill:#ffe680;fill-opacity:1;stroke:#000000;stroke-width:3;stroke-miterlimit:4;stroke-dasharray:none;stroke-opacity:1"
       id="path7724"
       d="m -391.5958,652.90491 c 0.13129,-4.20935 0.0776,-8.42094 0.0354,-12.63113 -0.0217,-2.33437 -0.0533,-4.66864 -0.06,-7.00312 -0.004,-2.2732 0.0341,-4.54628 0.0269,-6.81941 0.001,-2.32964 -0.0287,-4.65885 -0.003,-6.98841 -0.16729,-2.94369 0.24637,-5.79211 1.05568,-8.61242 0.64852,-2.08894 1.68707,-3.9878 3.14379,-5.61168 1.13281,-1.02097 2.16707,-2.10483 3.19344,-3.22321 0.88434,-0.89822 1.52494,-1.86982 2.51219,-2.6849 5.9191,-5.92504 13.02104,-10.41912 21.06033,-10.63002 2.17013,-0.016 4.34037,0.003 6.51051,0.0124 3.40773,-0.30135 5.40715,0.77185 8.01493,2.84405 2.90634,2.9939 5.64748,6.15831 8.01115,9.59894 1.92182,2.7622 2.88186,6.05515 3.74875,9.27358 0.63145,2.8941 0.82151,5.85316 0.9285,8.80528 0.0476,2.36412 0.0424,4.72915 0.0418,7.09368 -0.0108,2.32378 -0.0215,4.64756 -0.0271,6.97136 -0.006,2.15293 -0.005,4.3061 0.0357,6.45872 0.0319,1.29497 0.004,2.59023 -0.005,3.88541 -0.0202,2.23594 -0.0271,4.47197 -0.0319,6.70799 0.0112,2.05499 0.0259,4.11003 0.0207,6.16506 0.006,0.76728 0.0185,1.53422 0.019,2.30152 0,0 -17.48145,8.90724 -17.48145,8.90724 l 0,0 c 4.8e-4,-0.77373 0.0131,-1.54711 0.0189,-2.32083 -0.005,-2.06205 0.01,-4.1241 0.0207,-6.18611 -0.005,-2.22518 -0.0116,-4.45037 -0.0319,-6.67547 -0.009,-1.29329 -0.0374,-2.58664 -0.006,-3.87973 0.0399,-2.16554 0.0416,-4.33159 0.0376,-6.49743 -0.003,-2.32068 -0.01,-4.64136 -0.004,-6.96204 0.0158,-2.35217 0.0425,-4.7044 0.0131,-7.05667 -0.0448,-2.82115 -0.13591,-5.65605 -0.69008,-8.43185 -0.74284,-3.02186 -1.62038,-6.10458 -3.33211,-8.73044 -2.23549,-3.26816 -4.85083,-6.30346 -7.72987,-9.021 -2.47256,-1.7097 -4.4155,-1.94127 -7.37657,-1.77207 -2.15674,0.003 -4.32075,-0.0308 -6.47048,0.1676 -0.73353,0.10858 -1.46544,0.1943 -2.15008,0.50203 -0.19575,0.088 -0.74575,0.42523 -0.5598,0.31807 16.44444,-9.47612 22.23101,-11.27714 15.63343,-9.16737 -1.02409,0.80404 -2.11523,1.23375 -2.58641,2.53065 -1.18149,0.9947 -1.95357,2.27306 -3.22095,3.20064 -1.55742,1.36291 -2.84309,2.81231 -3.63438,4.76366 -0.83276,2.65259 -1.56536,5.26582 -1.27878,8.08783 0.0261,2.33055 -0.004,4.66077 -0.003,6.99139 -0.007,2.26401 0.0309,4.52796 0.0269,6.79204 -0.007,2.35486 -0.0383,4.7095 -0.06,7.06425 -0.0417,4.19816 -0.0971,8.39781 0.0354,12.59508 0,0 -17.40212,8.86683 -17.40212,8.86683 z"
       inkscape:connector-curvature="0" />
    <rect
       style="opacity:1;fill:#c83737;fill-opacity:1;stroke:#000000;stroke-width:3.70289016;stroke-miterlimit:4;stroke-dasharray:none;stroke-opacity:1"
       id="rect7764"
       width="26.989491"
       height="24.627356"
       x="-390.43802"
       y="696.1347" />
    <rect
       style="opacity:1;fill:#c83737;fill-opacity:1;stroke:#000000;stroke-width:3.70289016;stroke-miterlimit:4;stroke-dasharray:none;stroke-opacity:1"
       id="rect7766"
       width="8.9964972"
       height="36.941032"
       x="-351.45319"
       y="715.4848" />
    <rect
       style="opacity:1;fill:#c83737;fill-opacity:1;stroke:#000000;stroke-width:3.70289016;stroke-miterlimit:4;stroke-dasharray:none;stroke-opacity:1"
       id="rect7768"
       width="8.9964972"
       height="22.868258"
       x="-367.94678"
       y="738.35303" />
    <ellipse
       style="opacity:1;fill:#b3b3b3;fill-opacity:1;stroke:#000000;stroke-width:3.59263968;stroke-miterlimit:4;stroke-dasharray:none;stroke-opacity:1"
       id="path7810"
       cx="-357.89474"
       cy="831.30957"
       rx="45.75631"
       ry="28.651051" />
    <path
       sodipodi:type="star"
       style="opacity:1;fill:#b3b3b3;fill-opacity:1;stroke:#000000;stroke-width:3;stroke-miterlimit:4;stroke-dasharray:none;stroke-opacity:1"
       id="path7812"
       sodipodi:sides="5"
       sodipodi:cx="530.26318"
       sodipodi:cy="573.41486"
       sodipodi:r1="55.979073"
       sodipodi:r2="54.66888"
       sodipodi:arg1="0.51623067"
       sodipodi:arg2="1.1445492"
       inkscape:flatsided="false"
       inkscape:rounded="0"
       inkscape:randomized="0"
       d="m 578.94739,601.04644 -26.08099,22.14573 -33.83816,5.06275 -29.12132,-17.9611 -15.27153,-30.61752 8.08304,-33.24631 24.39983,-23.98541 34.11691,-2.58625 30.35146,15.79372 13.00237,31.64791 z"
       inkscape:transform-center-x="0.37893472"
       inkscape:transform-center-y="0.33065326"
       transform="matrix(0.58209584,0,0,0.51521482,-666.15431,536.32935)" />
    <path
       style="fill:none;fill-rule:evenodd;stroke:#000000;stroke-width:0.21166822px;stroke-linecap:butt;stroke-linejoin:miter;stroke-opacity:1"
       d="m 218.31419,624.95888 c 1.30606,-0.74752 2.32797,-1.80382 3.59855,-2.58665 1.74182,-1.07316 2.63597,-1.10554 4.4982,-2.06932 0.73735,-0.3816 1.37584,-0.89224 2.09916,-1.29332 0.6779,-0.3759 1.39944,-0.68977 2.09915,-1.03466 0.69972,-0.34489 1.38807,-0.70753 2.09916,-1.03466 3.88893,-1.78903 0.86838,-0.35796 4.79808,-1.81065 0.61633,-0.22784 1.18294,-0.54815 1.79927,-0.776 0.785,-0.29019 1.60191,-0.51154 2.39904,-0.77599 1.00484,-0.33336 1.97745,-0.741 2.9988,-1.03466 0.78198,-0.22483 1.61704,-0.29249 2.39903,-0.51733 0.21205,-0.061 0.39223,-0.18706 0.59977,-0.25866 0.29349,-0.10126 0.64675,-0.0951 0.89963,-0.25867 0.17882,-0.11568 0.1759,-0.35691 0.29988,-0.51732 0.15683,-0.20292 0.44293,-0.31442 0.59976,-0.51734 0.38929,-0.50367 0.29988,-0.4747 0.29988,-1.03465"
       id="path7867"
       inkscape:connector-curvature="0" />
    <path
       style="fill:none;fill-rule:evenodd;stroke:#000000;stroke-width:0.21166822px;stroke-linecap:butt;stroke-linejoin:miter;stroke-opacity:1"
       d="m 226.71082,625.21754 c 0.59976,-0.25866 1.24134,-0.45516 1.79928,-0.77599 0.35286,-0.20292 0.54677,-0.57308 0.89964,-0.776 0.55793,-0.32083 1.19044,-0.53361 1.79927,-0.77599 0.69121,-0.27517 1.38636,-0.54543 2.09916,-0.77599 2.1989,-0.71126 2.99102,-0.7569 5.09796,-1.55199 0.8191,-0.30911 1.57992,-0.72555 2.39903,-1.03466 0.78245,-0.29528 1.60607,-0.5024 2.39904,-0.776 0.70682,-0.24387 1.39944,-0.51732 2.09916,-0.77599 0.69971,-0.25866 1.36718,-0.5956 2.09915,-0.776 0.67964,-0.16748 1.41044,-0.12156 2.09916,-0.25866 1.05852,0.41468 1.89048,-0.80221 2.69892,-1.03466 0.28449,-0.0818 0.60558,0.0507 0.89964,0 0.21918,-0.0378 0.38771,-0.19769 0.59976,-0.25866 0.0948,-0.0272 0.22919,0.061 0.29988,0 0.14994,-0.12933 -0.14995,-0.64666 0,-0.776 0.0707,-0.061 0.2292,0.061 0.29987,0 0.0707,-0.061 0,-0.17244 0,-0.25866 0,-0.43111 0,-0.86221 0,-1.29332"
       id="path7869"
       inkscape:connector-curvature="0" />
    <path
       style="fill:none;fill-rule:evenodd;stroke:#000000;stroke-width:0.21166822px;stroke-linecap:butt;stroke-linejoin:miter;stroke-opacity:1"
       d="m 241.7048,625.73487 c 1.30951,-0.0316 1.12307,-0.43922 2.09916,-0.77599 0.29349,-0.10127 0.62858,-0.11839 0.89964,-0.25867 0.24244,-0.12547 0.34687,-0.40826 0.59976,-0.51733 0.36863,-0.15898 0.79968,-0.17244 1.19951,-0.25866 0.79969,-0.17244 1.60647,-0.32201 2.39904,-0.51733 1.40655,-0.34664 0.4998,-0.18476 2.09916,-0.77599 0.58108,-0.21481 1.19952,-0.34489 1.79927,-0.51733 0.29989,-0.0862 0.58969,-0.2052 0.89965,-0.25867 0.19603,-0.0338 0.40372,0.0338 0.59975,0 0.30997,-0.0535 0.59976,-0.17244 0.89965,-0.25867 0.29987,-0.0862 0.60614,-0.1574 0.89964,-0.25866 0.20752,-0.0716 0.3877,-0.19769 0.59975,-0.25866 0.0948,-0.0272 0.20505,0.0272 0.29988,0 1.03375,-0.29723 0.22214,-0.25867 0.89964,-0.25867"
       id="path7871"
       inkscape:connector-curvature="0" />
    <path
       style="fill:none;fill-rule:evenodd;stroke:#000000;stroke-width:0.21166822px;stroke-linecap:butt;stroke-linejoin:miter;stroke-opacity:1"
       d="m 220.71323,620.30291 c 3.21432,-1.58431 1.05652,-0.70148 5.09795,-1.81065 3.41582,-0.93748 6.75778,-1.83999 9.89603,-3.36264 1.44327,-0.70026 2.02542,-1.21511 3.29868,-2.06932 0.39451,-0.26467 0.81556,-0.5 1.19951,-0.77599 0.2172,-0.15612 0.35733,-0.39186 0.59976,-0.51733 0.27105,-0.14028 0.62859,-0.11838 0.89964,-0.25867 0.48488,-0.25094 0.72903,-0.7641 1.19952,-1.03466 0.37195,-0.21389 0.78863,-0.36543 1.19952,-0.51732 0.47038,-0.17389 1.07037,-0.23979 1.4994,-0.51733 0.0295,-0.0191 1.09258,-0.8963 1.19952,-1.03466 0.12398,-0.16042 0.14182,-0.381 0.29987,-0.51733 0.72835,-0.62824 0.44036,0.0769 0.89964,-0.51733 0.10497,-0.13582 0.30509,-0.69127 0.59976,-0.77599 0.18966,-0.0545 0.4101,0.0545 0.59976,0 0.77234,-0.22207 -0.26722,-0.51734 0.59976,-0.51734"
       id="path7873"
       inkscape:connector-curvature="0" />
    <path
       style="fill:none;fill-rule:evenodd;stroke:#000000;stroke-width:0.21166822px;stroke-linecap:butt;stroke-linejoin:miter;stroke-opacity:1"
       d="m 213.21624,621.59623 c 0.4998,-0.25866 0.98988,-0.53183 1.49939,-0.77599 1.4994,-0.71851 1.2495,-0.43111 2.9988,-1.29332 0.81877,-0.40356 1.62195,-0.8325 2.39904,-1.29332 1.35961,-0.80627 3.8347,-2.54542 5.09795,-3.36265 1.08768,-0.70364 2.19233,-1.38767 3.29868,-2.06931 0.99288,-0.61174 1.96133,-1.25668 2.9988,-1.81065 1.06494,-0.56866 2.2112,-1.01599 3.29867,-1.55199 2.05787,-0.81638 3.76153,-2.12159 5.69771,-3.10398 0.77063,-0.39101 1.61016,-0.67174 2.39904,-1.03466 0.71109,-0.32712 1.38958,-0.70509 2.09916,-1.03466 0.5904,-0.27421 1.23356,-0.46547 1.79928,-0.77599 0.53999,-0.2964 0.92691,-0.78776 1.4994,-1.03466 0.65088,-0.28072 1.40877,-0.31883 2.09915,-0.51733 0.51067,-0.14683 0.99351,-0.35865 1.4994,-0.51733 0.59414,-0.18636 1.22156,-0.29586 1.79928,-0.51733 0.74269,0.14341 0.75248,-0.58319 1.19951,-0.77599 0.0894,-0.0385 0.19993,0 0.29989,0 0.1,0 0.19991,0 0.29987,0"
       id="path7875"
       inkscape:connector-curvature="0" />
    <path
       style="fill:none;fill-rule:evenodd;stroke:#000000;stroke-width:0.21166822px;stroke-linecap:butt;stroke-linejoin:miter;stroke-opacity:1"
       d="m 219.21383,611.24965 c 0.99959,0 1.9992,0 2.99879,0 0.39985,0 0.81506,0.0947 1.19952,0 0.34654,-0.0854 0.56837,-0.39487 0.89964,-0.51733 0.0953,-0.0353 2.34513,-0.49075 2.39904,-0.51733 0.36822,-0.18149 0.57384,-0.54181 0.89964,-0.77599 0.27687,-0.19902 0.62599,-0.31502 0.89964,-0.51733 0.42932,-0.31742 0.77689,-0.71062 1.19951,-1.03466 0.47839,-0.36679 1.01771,-0.67111 1.4994,-1.03466 0.31917,-0.24089 0.57385,-0.54181 0.89965,-0.776 0.27687,-0.19901 0.59058,-0.35738 0.89963,-0.51733 0.19166,-0.0992 0.44171,-0.12233 0.59976,-0.25866 0.39984,-0.34488 -0.4998,-0.25866 0.29988,-0.25866"
       id="path7877"
       inkscape:connector-curvature="0" />
    <path
       style="fill:none;fill-rule:evenodd;stroke:#000000;stroke-width:0.21166822px;stroke-linecap:butt;stroke-linejoin:miter;stroke-opacity:1"
       d="m 225.21142,605.81769 c 0.39984,-0.25867 0.79968,-0.51733 1.19952,-0.77599 0.1,0 0.21047,0.0385 0.29988,0 0.12644,-0.0545 0.17344,-0.20413 0.29988,-0.25867 0.41364,-0.17839 0.26823,0.31326 0.59976,-0.25866 0.0447,-0.0771 0,-0.17245 0,-0.25867 0,-0.0862 0,-0.17244 0,-0.25866"
       id="path7879"
       inkscape:connector-curvature="0" />
    <path
       style="fill:none;fill-rule:evenodd;stroke:#000000;stroke-width:0.21166822px;stroke-linecap:butt;stroke-linejoin:miter;stroke-opacity:1"
       d="m 210.81719,612.02564 c 0.29989,-0.51733 0.50525,-1.08422 0.89965,-1.55199 0.41573,-0.49307 1.0469,-0.82495 1.4994,-1.29332 0.55048,-0.56979 0.96814,-1.22744 1.49939,-1.81065 0.56938,-0.62506 1.19571,-1.20994 1.79928,-1.81066 1.27024,-1.26422 2.72657,-2.76917 4.19832,-3.87997 1.58208,-1.19406 4.19097,-2.77721 5.99759,-3.6213 3.61298,-1.68806 3.65519,-1.3646 7.19711,-2.58665 0.91408,-0.31538 1.78484,-0.71928 2.69891,-1.03466 0.58699,-0.20252 1.19953,-0.34488 1.79929,-0.51732 0.29987,-0.0862 0.61691,-0.13673 0.89963,-0.25867 0.12644,-0.0545 0.17345,-0.20413 0.29988,-0.25866 0.0894,-0.0385 0.19992,0 0.29989,0 0.19991,-0.0862 0.41377,-0.15172 0.59975,-0.25867 0.44127,-0.25374 0.75825,-0.78091 1.19952,-1.03465 0.18598,-0.10695 0.44171,-0.12234 0.59976,-0.25867 0.15805,-0.13633 0.1759,-0.35691 0.29988,-0.51733 0.0784,-0.10146 0.19992,-0.17244 0.29988,-0.25867 0.43537,-0.37552 0.32463,-0.25866 0.89964,-0.25866"
       id="path7881"
       inkscape:connector-curvature="0" />
    <path
       style="fill:none;fill-rule:evenodd;stroke:#000000;stroke-width:0.21166822px;stroke-linecap:butt;stroke-linejoin:miter;stroke-opacity:1"
       d="m 206.01912,607.88701 c 1.66631,-0.78398 4.69645,-2.15909 6.29748,-3.10398 0.94062,-0.55512 1.72161,-1.30486 2.69891,-1.81065 1.0357,-0.53601 2.21837,-0.82741 3.29868,-1.29333 3.38792,-1.46114 3.7828,-1.98961 7.49699,-3.36263 1.36586,-0.50492 2.82975,-0.7939 4.19832,-1.29333 1.2351,-0.45072 2.39903,-1.03466 3.59855,-1.55199 0.9996,-0.4311 2.05109,-0.78241 2.99879,-1.29332 1.44718,-0.78017 2.05763,-1.6351 3.29869,-2.58665 0.37355,-0.28641 0.80923,-0.50668 1.19951,-0.77599 0.11039,-0.0762 0.18679,-0.1855 0.29988,-0.25866 2.23756,-1.44753 -0.11065,-0.0544 1.4994,-0.51733 0.13411,-0.0385 0.17344,-0.20414 0.29988,-0.25867 3.33398,-1.43788 -1.5347,0.92055 1.79928,-0.51732 0.32236,-0.13903 0.56836,-0.39488 0.89963,-0.51734 0.37883,-0.14004 0.83089,-0.0997 1.19952,-0.25866 0.25288,-0.10906 0.36452,-0.38205 0.59977,-0.51733 0.0832,-0.0478 0.19991,0 0.29987,0 0.1,0 0.19992,0 0.29989,0"
       id="path7883"
       inkscape:connector-curvature="0" />
    <path
       style="fill:none;fill-rule:evenodd;stroke:#000000;stroke-width:0.21166822px;stroke-linecap:butt;stroke-linejoin:miter;stroke-opacity:1"
       d="m 204.21984,606.59369 c 0,-0.89279 -0.18562,-1.82453 0.59977,-2.58665 0.47888,-0.4647 1.20662,-0.68075 1.79927,-1.03466 0.70699,-0.42219 1.37722,-0.89039 2.09916,-1.29333 2.92013,-1.6298 3.21389,-1.5841 6.29747,-3.10397 3.66413,-1.80602 2.12619,-1.15211 5.39783,-2.84531 0.0238,-0.0123 3.29347,-1.60597 3.59856,-1.81065 0.44635,-0.29945 0.77019,-0.71725 1.19952,-1.03466 0.27365,-0.20232 0.59976,-0.34489 0.89964,-0.51733 0.29988,-0.17244 0.59059,-0.35739 0.89964,-0.51733 0.19166,-0.0992 0.40809,-0.15947 0.59976,-0.25867 0.30905,-0.15994 0.56836,-0.39486 0.89964,-0.51733 0.37882,-0.14003 0.8207,-0.11862 1.19951,-0.25866 0.33127,-0.12246 0.56218,-0.40817 0.89964,-0.51733 2.52759,-0.43604 0.5262,0.0272 2.69892,-0.77599 0.58109,-0.21481 1.2123,-0.31481 1.79928,-0.51733 0.41506,-0.14321 0.79968,-0.34489 1.19952,-0.51733 0.19991,-0.0862 0.41378,-0.15172 0.59976,-0.25867 0.11761,-0.0676 0.19991,-0.17244 0.29988,-0.25866 0.29988,-0.25866 0.59976,-0.51733 0.89963,-0.776 1.83633,-1.58394 -0.50576,0.32719 1.19952,-0.77599 0.22619,-0.14632 0.37358,-0.37101 0.59977,-0.51733 0.17881,-0.11568 0.40809,-0.15947 0.59975,-0.25867 0.30905,-0.15994 0.59059,-0.35737 0.89964,-0.51732 0.75806,-0.39233 1.60802,-0.69351 2.39904,-1.03466 0.19992,-0.0862 0.38771,-0.1977 0.59976,-0.25866 0.0948,-0.0272 0.22919,0.061 0.29988,0 0.14136,-0.12194 -0.0632,-0.35374 0,-0.51733 0.0707,-0.18291 0.19992,-0.34489 0.29988,-0.51734"
       id="path7885"
       inkscape:connector-curvature="0" />
    <path
       style="fill:none;fill-rule:evenodd;stroke:#000000;stroke-width:0.21166822px;stroke-linecap:butt;stroke-linejoin:miter;stroke-opacity:1"
       d="m 195.82321,608.92167 c 0.69973,-0.43111 1.36544,-0.90657 2.09916,-1.29333 1.06873,-0.56335 2.19912,-1.03465 3.29868,-1.55199 1.19952,-0.77599 2.35098,-1.61057 3.59856,-2.32797 1.15545,-0.66444 2.4431,-1.14622 3.59855,-1.81066 14.02482,-8.06484 -5.11901,2.63657 6.29747,-4.3973 1.13002,-0.69622 2.41781,-1.18017 3.59856,-1.81065 0.91933,-0.49089 1.76319,-1.0847 2.69892,-1.55199 0.96718,-0.48299 1.98977,-0.87887 2.99879,-1.29332 1.0905,-0.44792 2.26298,-0.75731 3.29868,-1.29333 0.9773,-0.50578 1.77497,-1.23507 2.69892,-1.81065 0.87653,-0.54604 1.79927,-1.03466 2.69891,-1.55199 0.59976,-0.34488 1.2303,-0.65293 1.79928,-1.03466 0.33476,-0.22458 0.56848,-0.54747 0.89964,-0.77599 0.52025,-0.359 0.57196,-0.0934 0.89964,-0.51733 0.12398,-0.16041 0.14183,-0.381 0.29987,-0.51733 0.15806,-0.13633 0.42095,-0.14298 0.59977,-0.25866 0.45236,-0.29265 0.76512,-0.72241 1.19952,-1.03466 0.38395,-0.27599 0.81555,-0.50001 1.19951,-0.77599 0.543,-0.39031 0.9996,-0.86222 1.4994,-1.29333 0.19992,-0.17244 0.37898,-0.36498 0.59976,-0.51733 2.3733,-1.63769 -0.85559,0.89124 2.09916,-1.29332 0.32199,-0.23806 0.56848,-0.54748 0.89964,-0.77599 0.17453,-0.12044 0.40809,-0.15948 0.59976,-0.25867 0.84772,-0.43872 0.71129,-0.35486 1.19951,-0.776"
       id="path7887"
       inkscape:connector-curvature="0" />
    <path
       style="fill:none;fill-rule:evenodd;stroke:#000000;stroke-width:0.21166822px;stroke-linecap:butt;stroke-linejoin:miter;stroke-opacity:1"
       d="m 223.71202,630.39083 c 0.97116,-0.0103 1.76352,-0.64152 2.69892,-0.77599 0.2958,-0.0425 0.60384,0.0425 0.89964,0 0.6236,-0.0897 1.1914,-0.36752 1.79927,-0.51733 0.39629,-0.0977 0.81362,-0.13384 1.19952,-0.25866 0.41858,-0.1354 0.79968,-0.34489 1.19953,-0.51733 0.39983,-0.17245 0.80873,-0.33007 1.19951,-0.51733 0.50952,-0.24416 0.97807,-0.55116 1.4994,-0.776 1.53156,-0.66053 2.33087,-0.84261 3.89843,-1.29332 0.59976,-0.17244 1.20514,-0.33097 1.79929,-0.51733 3.94436,-1.23718 -0.27467,-0.007 2.39903,-0.77599 0.29988,-0.0862 0.58968,-0.2052 0.89964,-0.25867 0.0116,-0.002 0.89817,0.001 0.89964,0 0.14137,-0.12194 -0.14136,-0.39539 0,-0.51733 0.0707,-0.061 0.19992,0 0.29988,0 0.1,-0.17244 0.17589,-0.35691 0.29988,-0.51733 0.18199,-0.23546 0.76674,-0.54673 0.89964,-0.77599 0.0447,-0.0771 0,-0.17244 0,-0.25866"
       id="path7889"
       inkscape:connector-curvature="0" />
    <path
       style="fill:none;fill-rule:evenodd;stroke:#000000;stroke-width:0.21166822px;stroke-linecap:butt;stroke-linejoin:miter;stroke-opacity:1"
       d="m 206.319,623.92422 c 2.28075,-0.98364 1.17669,-0.56119 3.29868,-1.29332 0.4998,-0.17245 0.98006,-0.39517 1.4994,-0.51733 0.58661,-0.138 1.22244,-0.0928 1.79927,-0.25867 0.63614,-0.1829 1.17343,-0.56837 1.79928,-0.77599 1.56816,-0.52025 2.39818,-0.44645 3.89844,-1.03466 0.53061,-0.20804 0.96137,-0.58263 1.4994,-0.776 0.67174,-0.24142 1.41383,-0.30621 2.09915,-0.51733 1.43385,-0.4417 2.78467,-1.06424 4.19832,-1.55199 0.79297,-0.27359 1.60606,-0.50239 2.39904,-0.77599 1.41364,-0.48774 2.77725,-1.08054 4.19831,-1.55199 0.59006,-0.19575 1.25717,-0.23677 1.79928,-0.51733 0.48487,-0.25094 0.74715,-0.74201 1.19952,-1.03465 0.35762,-0.23136 0.83575,-0.29321 1.19952,-0.51733 0.3451,-0.21262 0.57764,-0.53793 0.89963,-0.776 0.75896,-0.56112 1.59936,-1.03465 2.39904,-1.55199 0.39984,-0.25866 0.80501,-0.51131 1.19952,-0.77599 0.50523,-0.33895 0.97504,-0.71805 1.4994,-1.03466 0.4775,-0.28831 1.03932,-0.46733 1.4994,-0.77599 0.44634,-0.29945 0.74715,-0.74201 1.19951,-1.03466 4.09576,-2.64963 -1.8964,1.88246 2.39905,-1.29333 0.32199,-0.23806 0.59975,-0.51732 0.89963,-0.77599 0.19992,-0.17244 0.42315,-0.32689 0.59976,-0.51733 0.22515,-0.24275 0.43858,-0.49793 0.59976,-0.77599 0.44124,-0.7612 -0.6947,0.34055 0.29988,-0.51733"
       id="path7891"
       inkscape:connector-curvature="0" />
    <path
       style="fill:none;fill-rule:evenodd;stroke:#000000;stroke-width:0.21166822px;stroke-linecap:butt;stroke-linejoin:miter;stroke-opacity:1"
       d="m 236.60684,626.51087 c 0.69973,0 1.39944,0 2.09916,0 0.29989,0 0.60559,0.0507 0.89964,0 0.21918,-0.0378 0.38292,-0.21191 0.59976,-0.25867 0.19395,-0.0418 0.40372,0.0338 0.59976,0 0.30997,-0.0535 0.59298,-0.19254 0.89964,-0.25867 0.19395,-0.0418 0.4101,0.0545 0.59976,0 0.62728,-0.18035 1.1849,-0.56402 1.79928,-0.77599 2.04777,-0.70653 -0.1109,0.26574 1.4994,-0.77599 0.17881,-0.11568 0.4417,-0.12234 0.59976,-0.25867 0.0707,-0.061 -0.0447,-0.18154 0,-0.25866 0.51193,-0.88314 0.29987,0.79997 0.29987,-1.03466"
       id="path7893"
       inkscape:connector-curvature="0" />
    <rect
       style="opacity:1;fill:none;fill-opacity:1;stroke:#000000;stroke-width:0.65626764;stroke-miterlimit:4;stroke-dasharray:none;stroke-opacity:1"
       id="rect7895"
       width="43.267723"
       height="34.753693"
       x="206.72826"
       y="585.03265" />
    <path
       style="fill:none;fill-rule:evenodd;stroke:#000000;stroke-width:0.21166822px;stroke-linecap:butt;stroke-linejoin:miter;stroke-opacity:1"
       d="m 225.69172,611.0711 c 1.30606,-0.74752 2.32797,-1.80382 3.59855,-2.58665 1.74182,-1.07316 2.63597,-1.10554 4.4982,-2.06932 0.73735,-0.3816 1.37584,-0.89224 2.09916,-1.29332 0.6779,-0.3759 1.39944,-0.68977 2.09915,-1.03466 0.69972,-0.34489 1.38807,-0.70753 2.09916,-1.03466 3.88893,-1.78903 0.86838,-0.35796 4.79808,-1.81065 0.61633,-0.22784 1.18294,-0.54815 1.79927,-0.776 0.785,-0.29019 1.60191,-0.51154 2.39904,-0.77599 1.00484,-0.33336 1.97745,-0.741 2.9988,-1.03466 0.78198,-0.22483 1.61704,-0.29249 2.39903,-0.51733 0.21205,-0.061 0.39223,-0.18706 0.59977,-0.25866 0.29349,-0.10126 0.64675,-0.0951 0.89963,-0.25867 0.17882,-0.11568 0.1759,-0.35691 0.29988,-0.51732 0.15683,-0.20292 0.44293,-0.31442 0.59976,-0.51734 0.38929,-0.50367 0.29988,-0.4747 0.29988,-1.03465"
       id="path7867-3"
       inkscape:connector-curvature="0" />
    <path
       style="fill:none;fill-rule:evenodd;stroke:#000000;stroke-width:0.21166822px;stroke-linecap:butt;stroke-linejoin:miter;stroke-opacity:1"
       d="m 234.08835,611.32976 c 0.59976,-0.25866 1.24134,-0.45516 1.79928,-0.77599 0.35286,-0.20292 0.54677,-0.57308 0.89964,-0.776 0.55793,-0.32083 1.19044,-0.53361 1.79927,-0.77599 0.69121,-0.27517 1.38636,-0.54543 2.09916,-0.77599 2.1989,-0.71126 2.99102,-0.7569 5.09796,-1.55199 0.8191,-0.30911 1.57992,-0.72555 2.39903,-1.03466 0.78245,-0.29528 1.60607,-0.5024 2.39904,-0.776 0.70682,-0.24387 1.39944,-0.51732 2.09916,-0.77599 0.69971,-0.25866 1.36718,-0.5956 2.09915,-0.776 0.67964,-0.16748 1.41044,-0.12156 2.09916,-0.25866 1.05852,0.41468 1.89048,-0.80221 2.69892,-1.03466 0.28449,-0.0818 0.60558,0.0507 0.89964,0 0.21918,-0.0378 0.38771,-0.19769 0.59976,-0.25866 0.0948,-0.0272 0.22919,0.061 0.29988,0 0.14994,-0.12933 -0.14995,-0.64666 0,-0.776 0.0707,-0.061 0.2292,0.061 0.29987,0 0.0707,-0.061 0,-0.17244 0,-0.25866 0,-0.43111 0,-0.86221 0,-1.29332"
       id="path7869-6"
       inkscape:connector-curvature="0" />
    <path
       style="fill:none;fill-rule:evenodd;stroke:#000000;stroke-width:0.21166822px;stroke-linecap:butt;stroke-linejoin:miter;stroke-opacity:1"
       d="m 249.08233,611.84709 c 1.30951,-0.0316 1.12307,-0.43922 2.09916,-0.77599 0.29349,-0.10127 0.62858,-0.11839 0.89964,-0.25867 0.24244,-0.12547 0.34687,-0.40826 0.59976,-0.51733 0.36863,-0.15898 0.79968,-0.17244 1.19951,-0.25866 0.79969,-0.17244 1.60647,-0.32201 2.39904,-0.51733 1.40655,-0.34664 0.4998,-0.18476 2.09916,-0.77599 0.58108,-0.21481 1.19952,-0.34489 1.79927,-0.51733 0.29989,-0.0862 0.58969,-0.2052 0.89965,-0.25867 0.19603,-0.0338 0.40372,0.0338 0.59975,0 0.30997,-0.0535 0.59976,-0.17244 0.89965,-0.25867 0.29987,-0.0862 0.60614,-0.1574 0.89964,-0.25866 0.20752,-0.0716 0.3877,-0.19769 0.59975,-0.25866 0.0948,-0.0272 0.20505,0.0272 0.29988,0 1.03375,-0.29723 0.22214,-0.25867 0.89964,-0.25867"
       id="path7871-7"
       inkscape:connector-curvature="0" />
    <path
       style="fill:none;fill-rule:evenodd;stroke:#000000;stroke-width:0.21166822px;stroke-linecap:butt;stroke-linejoin:miter;stroke-opacity:1"
       d="m 228.09076,606.41513 c 3.21432,-1.58431 1.05652,-0.70148 5.09795,-1.81065 3.41582,-0.93748 6.75778,-1.83999 9.89603,-3.36264 1.44327,-0.70026 2.02542,-1.21511 3.29868,-2.06932 0.39451,-0.26467 0.81556,-0.5 1.19951,-0.77599 0.2172,-0.15612 0.35733,-0.39186 0.59976,-0.51733 0.27105,-0.14028 0.62859,-0.11838 0.89964,-0.25867 0.48488,-0.25094 0.72903,-0.7641 1.19952,-1.03466 0.37195,-0.21389 0.78863,-0.36543 1.19952,-0.51732 0.47038,-0.17389 1.07037,-0.23979 1.4994,-0.51733 0.0295,-0.0191 1.09258,-0.8963 1.19952,-1.03466 0.12398,-0.16042 0.14182,-0.381 0.29987,-0.51733 0.72835,-0.62824 0.44036,0.0769 0.89964,-0.51733 0.10497,-0.13582 0.30509,-0.69127 0.59976,-0.77599 0.18966,-0.0545 0.4101,0.0545 0.59976,0 0.77234,-0.22207 -0.26722,-0.51734 0.59976,-0.51734"
       id="path7873-5"
       inkscape:connector-curvature="0" />
    <path
       style="fill:none;fill-rule:evenodd;stroke:#000000;stroke-width:0.21166822px;stroke-linecap:butt;stroke-linejoin:miter;stroke-opacity:1"
       d="m 220.59377,607.70845 c 0.4998,-0.25866 0.98988,-0.53183 1.49939,-0.77599 1.4994,-0.71851 1.2495,-0.43111 2.9988,-1.29332 0.81877,-0.40356 1.62195,-0.8325 2.39904,-1.29332 1.35961,-0.80627 3.8347,-2.54542 5.09795,-3.36265 1.08768,-0.70364 2.19233,-1.38767 3.29868,-2.06931 0.99288,-0.61174 1.96133,-1.25668 2.9988,-1.81065 1.06494,-0.56866 2.2112,-1.01599 3.29867,-1.55199 2.05787,-0.81638 3.76153,-2.12159 5.69771,-3.10398 0.77063,-0.39101 1.61016,-0.67174 2.39904,-1.03466 0.71109,-0.32712 1.38958,-0.70509 2.09916,-1.03466 0.5904,-0.27421 1.23356,-0.46547 1.79928,-0.77599 0.53999,-0.2964 0.92691,-0.78776 1.4994,-1.03466 0.65088,-0.28072 1.40877,-0.31883 2.09915,-0.51733 0.51067,-0.14683 0.99351,-0.35865 1.4994,-0.51733 0.59414,-0.18636 1.22156,-0.29586 1.79928,-0.51733 0.74269,0.14341 0.75248,-0.58319 1.19951,-0.77599 0.0894,-0.0385 0.19993,0 0.29989,0 0.1,0 0.19991,0 0.29987,0"
       id="path7875-3"
       inkscape:connector-curvature="0" />
    <path
       style="fill:none;fill-rule:evenodd;stroke:#000000;stroke-width:0.21166822px;stroke-linecap:butt;stroke-linejoin:miter;stroke-opacity:1"
       d="m 226.59136,597.36187 c 0.99959,0 1.9992,0 2.99879,0 0.39985,0 0.81506,0.0947 1.19952,0 0.34654,-0.0854 0.56837,-0.39487 0.89964,-0.51733 0.0953,-0.0353 2.34513,-0.49075 2.39904,-0.51733 0.36822,-0.18149 0.57384,-0.54181 0.89964,-0.77599 0.27687,-0.19902 0.62599,-0.31502 0.89964,-0.51733 0.42932,-0.31742 0.77689,-0.71062 1.19951,-1.03466 0.47839,-0.36679 1.01771,-0.67111 1.4994,-1.03466 0.31917,-0.24089 0.57385,-0.54181 0.89965,-0.776 0.27687,-0.19901 0.59058,-0.35738 0.89963,-0.51733 0.19166,-0.0992 0.44171,-0.12233 0.59976,-0.25866 0.39984,-0.34488 -0.4998,-0.25866 0.29988,-0.25866"
       id="path7877-5"
       inkscape:connector-curvature="0" />
    <path
       style="fill:none;fill-rule:evenodd;stroke:#000000;stroke-width:0.21166822px;stroke-linecap:butt;stroke-linejoin:miter;stroke-opacity:1"
       d="m 232.58895,591.92991 c 0.39984,-0.25867 0.79968,-0.51733 1.19952,-0.77599 0.1,0 0.21047,0.0385 0.29988,0 0.12644,-0.0545 0.17344,-0.20413 0.29988,-0.25867 0.41364,-0.17839 0.26823,0.31326 0.59976,-0.25866 0.0447,-0.0771 0,-0.17245 0,-0.25867 0,-0.0862 0,-0.17244 0,-0.25866"
       id="path7879-6"
       inkscape:connector-curvature="0" />
    <path
       style="fill:none;fill-rule:evenodd;stroke:#000000;stroke-width:0.21166822px;stroke-linecap:butt;stroke-linejoin:miter;stroke-opacity:1"
       d="m 218.19472,598.13786 c 0.29989,-0.51733 0.50525,-1.08422 0.89965,-1.55199 0.41573,-0.49307 1.0469,-0.82495 1.4994,-1.29332 0.55048,-0.56979 0.96814,-1.22744 1.49939,-1.81065 0.56938,-0.62506 1.19571,-1.20994 1.79928,-1.81066 1.27024,-1.26422 2.72657,-2.76917 4.19832,-3.87997 1.58208,-1.19406 4.19097,-2.77721 5.99759,-3.6213 3.61298,-1.68806 3.65519,-1.3646 7.19711,-2.58665 0.91408,-0.31538 1.78484,-0.71928 2.69891,-1.03466 0.58699,-0.20252 1.19953,-0.34488 1.79929,-0.51732 0.29987,-0.0862 0.61691,-0.13673 0.89963,-0.25867 0.12644,-0.0545 0.17345,-0.20413 0.29988,-0.25866 0.0894,-0.0385 0.19992,0 0.29989,0 0.19991,-0.0862 0.41377,-0.15172 0.59975,-0.25867 0.44127,-0.25374 0.75825,-0.78091 1.19952,-1.03465 0.18598,-0.10695 0.44171,-0.12234 0.59976,-0.25867 0.15805,-0.13633 0.1759,-0.35691 0.29988,-0.51733 0.0784,-0.10146 0.19992,-0.17244 0.29988,-0.25867 0.43537,-0.37552 0.32463,-0.25866 0.89964,-0.25866"
       id="path7881-2"
       inkscape:connector-curvature="0" />
    <path
       style="fill:none;fill-rule:evenodd;stroke:#000000;stroke-width:0.21166822px;stroke-linecap:butt;stroke-linejoin:miter;stroke-opacity:1"
       d="m 213.39665,593.99923 c 1.66631,-0.78398 4.69645,-2.15909 6.29748,-3.10398 0.94062,-0.55512 1.72161,-1.30486 2.69891,-1.81065 1.0357,-0.53601 2.21837,-0.82741 3.29868,-1.29333 3.38792,-1.46114 3.7828,-1.98961 7.49699,-3.36263 1.36586,-0.50492 2.82975,-0.7939 4.19832,-1.29333 1.2351,-0.45072 2.39903,-1.03466 3.59855,-1.55199 0.9996,-0.4311 2.05109,-0.78241 2.99879,-1.29332 1.44718,-0.78017 2.05763,-1.6351 3.29869,-2.58665 0.37355,-0.28641 0.80923,-0.50668 1.19951,-0.77599 0.11039,-0.0762 0.18679,-0.1855 0.29988,-0.25866 2.23756,-1.44753 -0.11065,-0.0544 1.4994,-0.51733 0.13411,-0.0385 0.17344,-0.20414 0.29988,-0.25867 3.33398,-1.43788 -1.5347,0.92055 1.79928,-0.51732 0.32236,-0.13903 0.56836,-0.39488 0.89963,-0.51734 0.37883,-0.14004 0.83089,-0.0997 1.19952,-0.25866 0.25288,-0.10906 0.36452,-0.38205 0.59977,-0.51733 0.0832,-0.0478 0.19991,0 0.29987,0 0.1,0 0.19992,0 0.29989,0"
       id="path7883-9"
       inkscape:connector-curvature="0" />
    <path
       style="fill:none;fill-rule:evenodd;stroke:#000000;stroke-width:0.21166822px;stroke-linecap:butt;stroke-linejoin:miter;stroke-opacity:1"
       d="m 211.59737,592.70591 c 0,-0.89279 -0.18562,-1.82453 0.59977,-2.58665 0.47888,-0.4647 1.20662,-0.68075 1.79927,-1.03466 0.70699,-0.42219 1.37722,-0.89039 2.09916,-1.29333 2.92013,-1.6298 3.21389,-1.5841 6.29747,-3.10397 3.66413,-1.80602 2.12619,-1.15211 5.39783,-2.84531 0.0238,-0.0123 3.29347,-1.60597 3.59856,-1.81065 0.44635,-0.29945 0.77019,-0.71725 1.19952,-1.03466 0.27365,-0.20232 0.59976,-0.34489 0.89964,-0.51733 0.29988,-0.17244 0.59059,-0.35739 0.89964,-0.51733 0.19166,-0.0992 0.40809,-0.15947 0.59976,-0.25867 0.30905,-0.15994 0.56836,-0.39486 0.89964,-0.51733 0.37882,-0.14003 0.8207,-0.11862 1.19951,-0.25866 0.33127,-0.12246 0.56218,-0.40817 0.89964,-0.51733 2.52759,-0.43604 0.5262,0.0272 2.69892,-0.77599 0.58109,-0.21481 1.2123,-0.31481 1.79928,-0.51733 0.41506,-0.14321 0.79968,-0.34489 1.19952,-0.51733 0.19991,-0.0862 0.41378,-0.15172 0.59976,-0.25867 0.11761,-0.0676 0.19991,-0.17244 0.29988,-0.25866 0.29988,-0.25866 0.59976,-0.51733 0.89963,-0.776 1.83633,-1.58394 -0.50576,0.32719 1.19952,-0.77599 0.22619,-0.14632 0.37358,-0.37101 0.59977,-0.51733 0.17881,-0.11568 0.40809,-0.15947 0.59975,-0.25867 0.30905,-0.15994 0.59059,-0.35737 0.89964,-0.51732 0.75806,-0.39233 1.60802,-0.69351 2.39904,-1.03466 0.19992,-0.0862 0.38771,-0.1977 0.59976,-0.25866 0.0948,-0.0272 0.22919,0.061 0.29988,0 0.14136,-0.12194 -0.0632,-0.35374 0,-0.51733 0.0707,-0.18291 0.19992,-0.34489 0.29988,-0.51734"
       id="path7885-1"
       inkscape:connector-curvature="0" />
    <path
       style="fill:none;fill-rule:evenodd;stroke:#000000;stroke-width:0.21166822px;stroke-linecap:butt;stroke-linejoin:miter;stroke-opacity:1"
       d="m 203.20074,595.03389 c 0.69973,-0.43111 1.36544,-0.90657 2.09916,-1.29333 1.06873,-0.56335 2.19912,-1.03465 3.29868,-1.55199 1.19952,-0.77599 2.35098,-1.61057 3.59856,-2.32797 1.15545,-0.66444 2.4431,-1.14622 3.59855,-1.81066 14.02482,-8.06484 -5.11901,2.63657 6.29747,-4.3973 1.13002,-0.69622 2.41781,-1.18017 3.59856,-1.81065 0.91933,-0.49089 1.76319,-1.0847 2.69892,-1.55199 0.96718,-0.48299 1.98977,-0.87887 2.99879,-1.29332 1.0905,-0.44792 2.26298,-0.75731 3.29868,-1.29333 0.9773,-0.50578 1.77497,-1.23507 2.69892,-1.81065 0.87653,-0.54604 1.79927,-1.03466 2.69891,-1.55199 0.59976,-0.34488 1.2303,-0.65293 1.79928,-1.03466 0.33476,-0.22458 0.56848,-0.54747 0.89964,-0.77599 0.52025,-0.359 0.57196,-0.0934 0.89964,-0.51733 0.12398,-0.16041 0.14183,-0.381 0.29987,-0.51733 0.15806,-0.13633 0.42095,-0.14298 0.59977,-0.25866 0.45236,-0.29265 0.76512,-0.72241 1.19952,-1.03466 0.38395,-0.27599 0.81555,-0.50001 1.19951,-0.77599 0.543,-0.39031 0.9996,-0.86222 1.4994,-1.29333 0.19992,-0.17244 0.37898,-0.36498 0.59976,-0.51733 2.3733,-1.63769 -0.85559,0.89124 2.09916,-1.29332 0.32199,-0.23806 0.56848,-0.54748 0.89964,-0.77599 0.17453,-0.12044 0.40809,-0.15948 0.59976,-0.25867 0.84772,-0.43872 0.71129,-0.35486 1.19951,-0.776"
       id="path7887-2"
       inkscape:connector-curvature="0" />
    <path
       style="fill:none;fill-rule:evenodd;stroke:#000000;stroke-width:0.21166822px;stroke-linecap:butt;stroke-linejoin:miter;stroke-opacity:1"
       d="m 231.08955,616.50305 c 0.97116,-0.0103 1.76352,-0.64152 2.69892,-0.77599 0.2958,-0.0425 0.60384,0.0425 0.89964,0 0.6236,-0.0897 1.1914,-0.36752 1.79927,-0.51733 0.39629,-0.0977 0.81362,-0.13384 1.19952,-0.25866 0.41858,-0.1354 0.79968,-0.34489 1.19953,-0.51733 0.39983,-0.17245 0.80873,-0.33007 1.19951,-0.51733 0.50952,-0.24416 0.97807,-0.55116 1.4994,-0.776 1.53156,-0.66053 2.33087,-0.84261 3.89843,-1.29332 0.59976,-0.17244 1.20514,-0.33097 1.79929,-0.51733 3.94436,-1.23718 -0.27467,-0.007 2.39903,-0.77599 0.29988,-0.0862 0.58968,-0.2052 0.89964,-0.25867 0.0116,-0.002 0.89817,10e-4 0.89964,0 0.14137,-0.12194 -0.14136,-0.39539 0,-0.51733 0.0707,-0.061 0.19992,0 0.29988,0 0.1,-0.17244 0.17589,-0.35691 0.29988,-0.51733 0.18199,-0.23546 0.76674,-0.54673 0.89964,-0.77599 0.0447,-0.0771 0,-0.17244 0,-0.25866"
       id="path7889-7"
       inkscape:connector-curvature="0" />
    <path
       style="fill:none;fill-rule:evenodd;stroke:#000000;stroke-width:0.21166822px;stroke-linecap:butt;stroke-linejoin:miter;stroke-opacity:1"
       d="m 213.69653,610.03644 c 2.28075,-0.98364 1.17669,-0.56119 3.29868,-1.29332 0.4998,-0.17245 0.98006,-0.39517 1.4994,-0.51733 0.58661,-0.138 1.22244,-0.0928 1.79927,-0.25867 0.63614,-0.1829 1.17343,-0.56837 1.79928,-0.77599 1.56816,-0.52025 2.39818,-0.44645 3.89844,-1.03466 0.53061,-0.20804 0.96137,-0.58263 1.4994,-0.776 0.67174,-0.24142 1.41383,-0.30621 2.09915,-0.51733 1.43385,-0.4417 2.78467,-1.06424 4.19832,-1.55199 0.79297,-0.27359 1.60606,-0.50239 2.39904,-0.77599 1.41364,-0.48774 2.77725,-1.08054 4.19831,-1.55199 0.59006,-0.19575 1.25717,-0.23677 1.79928,-0.51733 0.48487,-0.25094 0.74715,-0.74201 1.19952,-1.03465 0.35762,-0.23136 0.83575,-0.29321 1.19952,-0.51733 0.3451,-0.21262 0.57764,-0.53793 0.89963,-0.776 0.75896,-0.56112 1.59936,-1.03465 2.39904,-1.55199 0.39984,-0.25866 0.80501,-0.51131 1.19952,-0.77599 0.50523,-0.33895 0.97504,-0.71805 1.4994,-1.03466 0.4775,-0.28831 1.03932,-0.46733 1.4994,-0.77599 0.44634,-0.29945 0.74715,-0.74201 1.19951,-1.03466 4.09576,-2.64963 -1.8964,1.88246 2.39905,-1.29333 0.32199,-0.23806 0.59975,-0.51732 0.89963,-0.77599 0.19992,-0.17244 0.42315,-0.32689 0.59976,-0.51733 0.22515,-0.24275 0.43858,-0.49793 0.59976,-0.77599 0.44124,-0.7612 -0.6947,0.34055 0.29988,-0.51733"
       id="path7891-0"
       inkscape:connector-curvature="0" />
    <path
       style="fill:none;fill-rule:evenodd;stroke:#000000;stroke-width:0.21166822px;stroke-linecap:butt;stroke-linejoin:miter;stroke-opacity:1"
       d="m 243.98437,612.62309 c 0.69973,0 1.39944,0 2.09916,0 0.29989,0 0.60559,0.0507 0.89964,0 0.21918,-0.0378 0.38292,-0.21191 0.59976,-0.25867 0.19395,-0.0418 0.40372,0.0338 0.59976,0 0.30997,-0.0535 0.59298,-0.19254 0.89964,-0.25867 0.19395,-0.0418 0.4101,0.0545 0.59976,0 0.62728,-0.18035 1.1849,-0.56402 1.79928,-0.77599 2.04777,-0.70653 -0.1109,0.26574 1.4994,-0.77599 0.17881,-0.11568 0.4417,-0.12234 0.59976,-0.25867 0.0707,-0.061 -0.0447,-0.18154 0,-0.25866 0.51193,-0.88314 0.29987,0.79997 0.29987,-1.03466"
       id="path7893-9"
       inkscape:connector-curvature="0" />
    <rect
       style="opacity:1;fill:none;fill-opacity:1;stroke:#000000;stroke-width:0.65626764;stroke-miterlimit:4;stroke-dasharray:none;stroke-opacity:1"
       id="rect7895-3"
       width="43.267723"
       height="34.753693"
       x="214.10577"
       y="571.14484" />
    <path
       style="fill:none;fill-rule:evenodd;stroke:#000000;stroke-width:0.21166822px;stroke-linecap:butt;stroke-linejoin:miter;stroke-opacity:1"
       d="m 217.79698,621.59742 c 1.30606,-0.74752 2.32797,-1.80382 3.59855,-2.58665 1.74182,-1.07316 2.63597,-1.10554 4.4982,-2.06932 0.73735,-0.3816 1.37584,-0.89224 2.09916,-1.29332 0.6779,-0.3759 1.39944,-0.68977 2.09915,-1.03466 0.69972,-0.34489 1.38807,-0.70753 2.09916,-1.03466 3.88893,-1.78903 0.86838,-0.35796 4.79808,-1.81065 0.61633,-0.22784 1.18294,-0.54815 1.79927,-0.776 0.785,-0.29019 1.60191,-0.51154 2.39904,-0.77599 1.00484,-0.33336 1.97745,-0.741 2.9988,-1.03466 0.78198,-0.22483 1.61704,-0.29249 2.39903,-0.51733 0.21205,-0.061 0.39223,-0.18706 0.59977,-0.25866 0.29349,-0.10126 0.64675,-0.0951 0.89963,-0.25867 0.17882,-0.11568 0.1759,-0.35691 0.29988,-0.51732 0.15683,-0.20292 0.44293,-0.31442 0.59976,-0.51734 0.38929,-0.50367 0.29988,-0.4747 0.29988,-1.03465"
       id="path7867-6"
       inkscape:connector-curvature="0" />
    <path
       style="fill:none;fill-rule:evenodd;stroke:#000000;stroke-width:0.21166822px;stroke-linecap:butt;stroke-linejoin:miter;stroke-opacity:1"
       d="m 226.19361,621.85608 c 0.59976,-0.25866 1.24134,-0.45516 1.79928,-0.77599 0.35286,-0.20292 0.54677,-0.57308 0.89964,-0.776 0.55793,-0.32083 1.19044,-0.53361 1.79927,-0.77599 0.69121,-0.27517 1.38636,-0.54543 2.09916,-0.77599 2.1989,-0.71126 2.99102,-0.7569 5.09796,-1.55199 0.8191,-0.30911 1.57992,-0.72555 2.39903,-1.03466 0.78245,-0.29528 1.60607,-0.5024 2.39904,-0.776 0.70682,-0.24387 1.39944,-0.51732 2.09916,-0.77599 0.69971,-0.25866 1.36718,-0.5956 2.09915,-0.776 0.67964,-0.16748 1.41044,-0.12156 2.09916,-0.25866 1.05852,0.41468 1.89048,-0.80221 2.69892,-1.03466 0.28449,-0.0818 0.60558,0.0507 0.89964,0 0.21918,-0.0378 0.38771,-0.19769 0.59976,-0.25866 0.0948,-0.0272 0.22919,0.061 0.29988,0 0.14994,-0.12933 -0.14995,-0.64666 0,-0.776 0.0707,-0.061 0.2292,0.061 0.29987,0 0.0707,-0.061 0,-0.17244 0,-0.25866 0,-0.43111 0,-0.86221 0,-1.29332"
       id="path7869-0"
       inkscape:connector-curvature="0" />
    <path
       style="fill:none;fill-rule:evenodd;stroke:#000000;stroke-width:0.21166822px;stroke-linecap:butt;stroke-linejoin:miter;stroke-opacity:1"
       d="m 241.18759,622.37341 c 1.30951,-0.0316 1.12307,-0.43922 2.09916,-0.77599 0.29349,-0.10127 0.62858,-0.11839 0.89964,-0.25867 0.24244,-0.12547 0.34687,-0.40826 0.59976,-0.51733 0.36863,-0.15898 0.79968,-0.17244 1.19951,-0.25866 0.79969,-0.17244 1.60647,-0.32201 2.39904,-0.51733 1.40655,-0.34664 0.4998,-0.18476 2.09916,-0.77599 0.58108,-0.21481 1.19952,-0.34489 1.79927,-0.51733 0.29989,-0.0862 0.58969,-0.2052 0.89965,-0.25867 0.19603,-0.0338 0.40372,0.0338 0.59975,0 0.30997,-0.0535 0.59976,-0.17244 0.89965,-0.25867 0.29987,-0.0862 0.60614,-0.1574 0.89964,-0.25866 0.20752,-0.0716 0.3877,-0.19769 0.59975,-0.25866 0.0948,-0.0272 0.20505,0.0272 0.29988,0 1.03375,-0.29723 0.22214,-0.25867 0.89964,-0.25867"
       id="path7871-6"
       inkscape:connector-curvature="0" />
    <path
       style="fill:none;fill-rule:evenodd;stroke:#000000;stroke-width:0.21166822px;stroke-linecap:butt;stroke-linejoin:miter;stroke-opacity:1"
       d="m 220.19602,616.94145 c 3.21432,-1.58431 1.05652,-0.70148 5.09795,-1.81065 3.41582,-0.93748 6.75778,-1.83999 9.89603,-3.36264 1.44327,-0.70026 2.02542,-1.21511 3.29868,-2.06932 0.39451,-0.26467 0.81556,-0.5 1.19951,-0.77599 0.2172,-0.15612 0.35733,-0.39186 0.59976,-0.51733 0.27105,-0.14028 0.62859,-0.11838 0.89964,-0.25867 0.48488,-0.25094 0.72903,-0.7641 1.19952,-1.03466 0.37195,-0.21389 0.78863,-0.36543 1.19952,-0.51732 0.47038,-0.17389 1.07037,-0.23979 1.4994,-0.51733 0.0295,-0.0191 1.09258,-0.8963 1.19952,-1.03466 0.12398,-0.16042 0.14182,-0.381 0.29987,-0.51733 0.72835,-0.62824 0.44036,0.0769 0.89964,-0.51733 0.10497,-0.13582 0.30509,-0.69127 0.59976,-0.77599 0.18966,-0.0545 0.4101,0.0545 0.59976,0 0.77234,-0.22207 -0.26722,-0.51734 0.59976,-0.51734"
       id="path7873-2"
       inkscape:connector-curvature="0" />
    <path
       style="fill:none;fill-rule:evenodd;stroke:#000000;stroke-width:0.21166822px;stroke-linecap:butt;stroke-linejoin:miter;stroke-opacity:1"
       d="m 212.69903,618.23477 c 0.4998,-0.25866 0.98988,-0.53183 1.49939,-0.77599 1.4994,-0.71851 1.2495,-0.43111 2.9988,-1.29332 0.81877,-0.40356 1.62195,-0.8325 2.39904,-1.29332 1.35961,-0.80627 3.8347,-2.54542 5.09795,-3.36265 1.08768,-0.70364 2.19233,-1.38767 3.29868,-2.06931 0.99288,-0.61174 1.96133,-1.25668 2.9988,-1.81065 1.06494,-0.56866 2.2112,-1.01599 3.29867,-1.55199 2.05787,-0.81638 3.76153,-2.12159 5.69771,-3.10398 0.77063,-0.39101 1.61016,-0.67174 2.39904,-1.03466 0.71109,-0.32712 1.38958,-0.70509 2.09916,-1.03466 0.5904,-0.27421 1.23356,-0.46547 1.79928,-0.77599 0.53999,-0.2964 0.92691,-0.78776 1.4994,-1.03466 0.65088,-0.28072 1.40877,-0.31883 2.09915,-0.51733 0.51067,-0.14683 0.99351,-0.35865 1.4994,-0.51733 0.59414,-0.18636 1.22156,-0.29586 1.79928,-0.51733 0.74269,0.14341 0.75248,-0.58319 1.19951,-0.77599 0.0894,-0.0385 0.19993,0 0.29989,0 0.1,0 0.19991,0 0.29987,0"
       id="path7875-6"
       inkscape:connector-curvature="0" />
    <path
       style="fill:none;fill-rule:evenodd;stroke:#000000;stroke-width:0.21166822px;stroke-linecap:butt;stroke-linejoin:miter;stroke-opacity:1"
       d="m 218.69662,607.88819 c 0.99959,0 1.9992,0 2.99879,0 0.39985,0 0.81506,0.0947 1.19952,0 0.34654,-0.0854 0.56837,-0.39487 0.89964,-0.51733 0.0953,-0.0353 2.34513,-0.49075 2.39904,-0.51733 0.36822,-0.18149 0.57384,-0.54181 0.89964,-0.77599 0.27687,-0.19902 0.62599,-0.31502 0.89964,-0.51733 0.42932,-0.31742 0.77689,-0.71062 1.19951,-1.03466 0.47839,-0.36679 1.01771,-0.67111 1.4994,-1.03466 0.31917,-0.24089 0.57385,-0.54181 0.89965,-0.776 0.27687,-0.19901 0.59058,-0.35738 0.89963,-0.51733 0.19166,-0.0992 0.44171,-0.12233 0.59976,-0.25866 0.39984,-0.34488 -0.4998,-0.25866 0.29988,-0.25866"
       id="path7877-1"
       inkscape:connector-curvature="0" />
    <path
       style="fill:none;fill-rule:evenodd;stroke:#000000;stroke-width:0.21166822px;stroke-linecap:butt;stroke-linejoin:miter;stroke-opacity:1"
       d="m 224.69421,602.45623 c 0.39984,-0.25867 0.79968,-0.51733 1.19952,-0.77599 0.1,0 0.21047,0.0385 0.29988,0 0.12644,-0.0545 0.17344,-0.20413 0.29988,-0.25867 0.41364,-0.17839 0.26823,0.31326 0.59976,-0.25866 0.0447,-0.0771 0,-0.17245 0,-0.25867 0,-0.0862 0,-0.17244 0,-0.25866"
       id="path7879-8"
       inkscape:connector-curvature="0" />
    <path
       style="fill:none;fill-rule:evenodd;stroke:#000000;stroke-width:0.21166822px;stroke-linecap:butt;stroke-linejoin:miter;stroke-opacity:1"
       d="m 210.29998,608.66418 c 0.29989,-0.51733 0.50525,-1.08422 0.89965,-1.55199 0.41573,-0.49307 1.0469,-0.82495 1.4994,-1.29332 0.55048,-0.56979 0.96814,-1.22744 1.49939,-1.81065 0.56938,-0.62506 1.19571,-1.20994 1.79928,-1.81066 1.27024,-1.26422 2.72657,-2.76917 4.19832,-3.87997 1.58208,-1.19406 4.19097,-2.77721 5.99759,-3.6213 3.61298,-1.68806 3.65519,-1.3646 7.19711,-2.58665 0.91408,-0.31538 1.78484,-0.71928 2.69891,-1.03466 0.58699,-0.20252 1.19953,-0.34488 1.79929,-0.51732 0.29987,-0.0862 0.61691,-0.13673 0.89963,-0.25867 0.12644,-0.0545 0.17345,-0.20413 0.29988,-0.25866 0.0894,-0.0385 0.19992,0 0.29989,0 0.19991,-0.0862 0.41377,-0.15172 0.59975,-0.25867 0.44127,-0.25374 0.75825,-0.78091 1.19952,-1.03465 0.18598,-0.10695 0.44171,-0.12234 0.59976,-0.25867 0.15805,-0.13633 0.1759,-0.35691 0.29988,-0.51733 0.0784,-0.10146 0.19992,-0.17244 0.29988,-0.25867 0.43537,-0.37552 0.32463,-0.25866 0.89964,-0.25866"
       id="path7881-7"
       inkscape:connector-curvature="0" />
    <path
       style="fill:none;fill-rule:evenodd;stroke:#000000;stroke-width:0.21166822px;stroke-linecap:butt;stroke-linejoin:miter;stroke-opacity:1"
       d="m 205.50191,604.52555 c 1.66631,-0.78398 4.69645,-2.15909 6.29748,-3.10398 0.94062,-0.55512 1.72161,-1.30486 2.69891,-1.81065 1.0357,-0.53601 2.21837,-0.82741 3.29868,-1.29333 3.38792,-1.46114 3.7828,-1.98961 7.49699,-3.36263 1.36586,-0.50492 2.82975,-0.7939 4.19832,-1.29333 1.2351,-0.45072 2.39903,-1.03466 3.59855,-1.55199 0.9996,-0.4311 2.05109,-0.78241 2.99879,-1.29332 1.44718,-0.78017 2.05763,-1.6351 3.29869,-2.58665 0.37355,-0.28641 0.80923,-0.50668 1.19951,-0.77599 0.11039,-0.0762 0.18679,-0.1855 0.29988,-0.25866 2.23756,-1.44753 -0.11065,-0.0544 1.4994,-0.51733 0.13411,-0.0385 0.17344,-0.20414 0.29988,-0.25867 3.33398,-1.43788 -1.5347,0.92055 1.79928,-0.51732 0.32236,-0.13903 0.56836,-0.39488 0.89963,-0.51734 0.37883,-0.14004 0.83089,-0.0997 1.19952,-0.25866 0.25288,-0.10906 0.36452,-0.38205 0.59977,-0.51733 0.0832,-0.0478 0.19991,0 0.29987,0 0.1,0 0.19992,0 0.29989,0"
       id="path7883-92"
       inkscape:connector-curvature="0" />
    <path
       style="fill:none;fill-rule:evenodd;stroke:#000000;stroke-width:0.21166822px;stroke-linecap:butt;stroke-linejoin:miter;stroke-opacity:1"
       d="m 203.70263,603.23223 c 0,-0.89279 -0.18562,-1.82453 0.59977,-2.58665 0.47888,-0.4647 1.20662,-0.68075 1.79927,-1.03466 0.70699,-0.42219 1.37722,-0.89039 2.09916,-1.29333 2.92013,-1.6298 3.21389,-1.5841 6.29747,-3.10397 3.66413,-1.80602 2.12619,-1.15211 5.39783,-2.84531 0.0238,-0.0123 3.29347,-1.60597 3.59856,-1.81065 0.44635,-0.29945 0.77019,-0.71725 1.19952,-1.03466 0.27365,-0.20232 0.59976,-0.34489 0.89964,-0.51733 0.29988,-0.17244 0.59059,-0.35739 0.89964,-0.51733 0.19166,-0.0992 0.40809,-0.15947 0.59976,-0.25867 0.30905,-0.15994 0.56836,-0.39486 0.89964,-0.51733 0.37882,-0.14003 0.8207,-0.11862 1.19951,-0.25866 0.33127,-0.12246 0.56218,-0.40817 0.89964,-0.51733 2.52759,-0.43604 0.5262,0.0272 2.69892,-0.77599 0.58109,-0.21481 1.2123,-0.31481 1.79928,-0.51733 0.41506,-0.14321 0.79968,-0.34489 1.19952,-0.51733 0.19991,-0.0862 0.41378,-0.15172 0.59976,-0.25867 0.11761,-0.0676 0.19991,-0.17244 0.29988,-0.25866 0.29988,-0.25866 0.59976,-0.51733 0.89963,-0.776 1.83633,-1.58394 -0.50576,0.32719 1.19952,-0.77599 0.22619,-0.14632 0.37358,-0.37101 0.59977,-0.51733 0.17881,-0.11568 0.40809,-0.15947 0.59975,-0.25867 0.30905,-0.15994 0.59059,-0.35737 0.89964,-0.51732 0.75806,-0.39233 1.60802,-0.69351 2.39904,-1.03466 0.19992,-0.0862 0.38771,-0.1977 0.59976,-0.25866 0.0948,-0.0272 0.22919,0.061 0.29988,0 0.14136,-0.12194 -0.0632,-0.35374 0,-0.51733 0.0707,-0.18291 0.19992,-0.34489 0.29988,-0.51734"
       id="path7885-0"
       inkscape:connector-curvature="0" />
    <path
       style="fill:none;fill-rule:evenodd;stroke:#000000;stroke-width:0.21166822px;stroke-linecap:butt;stroke-linejoin:miter;stroke-opacity:1"
       d="m 195.306,605.56021 c 0.69973,-0.43111 1.36544,-0.90657 2.09916,-1.29333 1.06873,-0.56335 2.19912,-1.03465 3.29868,-1.55199 1.19952,-0.77599 2.35098,-1.61057 3.59856,-2.32797 1.15545,-0.66444 2.4431,-1.14622 3.59855,-1.81066 14.02482,-8.06484 -5.11901,2.63657 6.29747,-4.3973 1.13002,-0.69622 2.41781,-1.18017 3.59856,-1.81065 0.91933,-0.49089 1.76319,-1.0847 2.69892,-1.55199 0.96718,-0.48299 1.98977,-0.87887 2.99879,-1.29332 1.0905,-0.44792 2.26298,-0.75731 3.29868,-1.29333 0.9773,-0.50578 1.77497,-1.23507 2.69892,-1.81065 0.87653,-0.54604 1.79927,-1.03466 2.69891,-1.55199 0.59976,-0.34488 1.2303,-0.65293 1.79928,-1.03466 0.33476,-0.22458 0.56848,-0.54747 0.89964,-0.77599 0.52025,-0.359 0.57196,-0.0934 0.89964,-0.51733 0.12398,-0.16041 0.14183,-0.381 0.29987,-0.51733 0.15806,-0.13633 0.42095,-0.14298 0.59977,-0.25866 0.45236,-0.29265 0.76512,-0.72241 1.19952,-1.03466 0.38395,-0.27599 0.81555,-0.50001 1.19951,-0.77599 0.543,-0.39031 0.9996,-0.86222 1.4994,-1.29333 0.19992,-0.17244 0.37898,-0.36498 0.59976,-0.51733 2.3733,-1.63769 -0.85559,0.89124 2.09916,-1.29332 0.32199,-0.23806 0.56848,-0.54748 0.89964,-0.77599 0.17453,-0.12044 0.40809,-0.15948 0.59976,-0.25867 0.84772,-0.43872 0.71129,-0.35486 1.19951,-0.776"
       id="path7887-23"
       inkscape:connector-curvature="0" />
    <path
       style="fill:none;fill-rule:evenodd;stroke:#000000;stroke-width:0.21166822px;stroke-linecap:butt;stroke-linejoin:miter;stroke-opacity:1"
       d="m 223.19481,627.02937 c 0.97116,-0.0103 1.76352,-0.64152 2.69892,-0.77599 0.2958,-0.0425 0.60384,0.0425 0.89964,0 0.6236,-0.0897 1.1914,-0.36752 1.79927,-0.51733 0.39629,-0.0977 0.81362,-0.13384 1.19952,-0.25866 0.41858,-0.1354 0.79968,-0.34489 1.19953,-0.51733 0.39983,-0.17245 0.80873,-0.33007 1.19951,-0.51733 0.50952,-0.24416 0.97807,-0.55116 1.4994,-0.776 1.53156,-0.66053 2.33087,-0.84261 3.89843,-1.29332 0.59976,-0.17244 1.20514,-0.33097 1.79929,-0.51733 3.94436,-1.23718 -0.27467,-0.007 2.39903,-0.77599 0.29988,-0.0862 0.58968,-0.2052 0.89964,-0.25867 0.0116,-0.002 0.89817,10e-4 0.89964,0 0.14137,-0.12194 -0.14136,-0.39539 0,-0.51733 0.0707,-0.061 0.19992,0 0.29988,0 0.1,-0.17244 0.17589,-0.35691 0.29988,-0.51733 0.18199,-0.23546 0.76674,-0.54673 0.89964,-0.77599 0.0447,-0.0771 0,-0.17244 0,-0.25866"
       id="path7889-75"
       inkscape:connector-curvature="0" />
    <path
       style="fill:none;fill-rule:evenodd;stroke:#000000;stroke-width:0.21166822px;stroke-linecap:butt;stroke-linejoin:miter;stroke-opacity:1"
       d="m 205.80179,620.56276 c 2.28075,-0.98364 1.17669,-0.56119 3.29868,-1.29332 0.4998,-0.17245 0.98006,-0.39517 1.4994,-0.51733 0.58661,-0.138 1.22244,-0.0928 1.79927,-0.25867 0.63614,-0.1829 1.17343,-0.56837 1.79928,-0.77599 1.56816,-0.52025 2.39818,-0.44645 3.89844,-1.03466 0.53061,-0.20804 0.96137,-0.58263 1.4994,-0.776 0.67174,-0.24142 1.41383,-0.30621 2.09915,-0.51733 1.43385,-0.4417 2.78467,-1.06424 4.19832,-1.55199 0.79297,-0.27359 1.60606,-0.50239 2.39904,-0.77599 1.41364,-0.48774 2.77725,-1.08054 4.19831,-1.55199 0.59006,-0.19575 1.25717,-0.23677 1.79928,-0.51733 0.48487,-0.25094 0.74715,-0.74201 1.19952,-1.03465 0.35762,-0.23136 0.83575,-0.29321 1.19952,-0.51733 0.3451,-0.21262 0.57764,-0.53793 0.89963,-0.776 0.75896,-0.56112 1.59936,-1.03465 2.39904,-1.55199 0.39984,-0.25866 0.80501,-0.51131 1.19952,-0.77599 0.50523,-0.33895 0.97504,-0.71805 1.4994,-1.03466 0.4775,-0.28831 1.03932,-0.46733 1.4994,-0.77599 0.44634,-0.29945 0.74715,-0.74201 1.19951,-1.03466 4.09576,-2.64963 -1.8964,1.88246 2.39905,-1.29333 0.32199,-0.23806 0.59975,-0.51732 0.89963,-0.77599 0.19992,-0.17244 0.42315,-0.32689 0.59976,-0.51733 0.22515,-0.24275 0.43858,-0.49793 0.59976,-0.77599 0.44124,-0.7612 -0.6947,0.34055 0.29988,-0.51733"
       id="path7891-9"
       inkscape:connector-curvature="0" />
    <path
       style="fill:none;fill-rule:evenodd;stroke:#000000;stroke-width:0.21166822px;stroke-linecap:butt;stroke-linejoin:miter;stroke-opacity:1"
       d="m 236.08963,623.14941 c 0.69973,0 1.39944,0 2.09916,0 0.29989,0 0.60559,0.0507 0.89964,0 0.21918,-0.0378 0.38292,-0.21191 0.59976,-0.25867 0.19395,-0.0418 0.40372,0.0338 0.59976,0 0.30997,-0.0535 0.59298,-0.19254 0.89964,-0.25867 0.19395,-0.0418 0.4101,0.0545 0.59976,0 0.62728,-0.18035 1.1849,-0.56402 1.79928,-0.77599 2.04777,-0.70653 -0.1109,0.26574 1.4994,-0.77599 0.17881,-0.11568 0.4417,-0.12234 0.59976,-0.25867 0.0707,-0.061 -0.0447,-0.18154 0,-0.25866 0.51193,-0.88314 0.29987,0.79997 0.29987,-1.03466"
       id="path7893-2"
       inkscape:connector-curvature="0" />
    <rect
       style="opacity:1;fill:none;fill-opacity:1;stroke:#000000;stroke-width:0.65626764;stroke-miterlimit:4;stroke-dasharray:none;stroke-opacity:1"
       id="rect7895-2"
       width="43.267723"
       height="34.753693"
       x="206.21104"
       y="581.6712" />
    <path
       style="fill:none;fill-rule:evenodd;stroke:#000000;stroke-width:0.21166822px;stroke-linecap:butt;stroke-linejoin:miter;stroke-opacity:1"
       d="m 192.79698,615.01847 c 1.30606,-0.74752 2.32797,-1.80382 3.59855,-2.58665 1.74182,-1.07316 2.63597,-1.10554 4.4982,-2.06932 0.73735,-0.3816 1.37584,-0.89224 2.09916,-1.29332 0.6779,-0.3759 1.39944,-0.68977 2.09915,-1.03466 0.69972,-0.34489 1.38807,-0.70753 2.09916,-1.03466 3.88893,-1.78903 0.86838,-0.35796 4.79808,-1.81065 0.61633,-0.22784 1.18294,-0.54815 1.79927,-0.776 0.785,-0.29019 1.60191,-0.51154 2.39904,-0.77599 1.00484,-0.33336 1.97745,-0.741 2.9988,-1.03466 0.78198,-0.22483 1.61704,-0.29249 2.39903,-0.51733 0.21205,-0.061 0.39223,-0.18706 0.59977,-0.25866 0.29349,-0.10126 0.64675,-0.0951 0.89963,-0.25867 0.17882,-0.11568 0.1759,-0.35691 0.29988,-0.51732 0.15683,-0.20292 0.44293,-0.31442 0.59976,-0.51734 0.38929,-0.50367 0.29988,-0.4747 0.29988,-1.03465"
       id="path7867-8"
       inkscape:connector-curvature="0" />
    <path
       style="fill:none;fill-rule:evenodd;stroke:#000000;stroke-width:0.21166822px;stroke-linecap:butt;stroke-linejoin:miter;stroke-opacity:1"
       d="m 201.19361,615.27713 c 0.59976,-0.25866 1.24134,-0.45516 1.79928,-0.77599 0.35286,-0.20292 0.54677,-0.57308 0.89964,-0.776 0.55793,-0.32083 1.19044,-0.53361 1.79927,-0.77599 0.69121,-0.27517 1.38636,-0.54543 2.09916,-0.77599 2.1989,-0.71126 2.99102,-0.7569 5.09796,-1.55199 0.8191,-0.30911 1.57992,-0.72555 2.39903,-1.03466 0.78245,-0.29528 1.60607,-0.5024 2.39904,-0.776 0.70682,-0.24387 1.39944,-0.51732 2.09916,-0.77599 0.69971,-0.25866 1.36718,-0.5956 2.09915,-0.776 0.67964,-0.16748 1.41044,-0.12156 2.09916,-0.25866 1.05852,0.41468 1.89048,-0.80221 2.69892,-1.03466 0.28449,-0.0818 0.60558,0.0507 0.89964,0 0.21918,-0.0378 0.38771,-0.19769 0.59976,-0.25866 0.0948,-0.0272 0.22919,0.061 0.29988,0 0.14994,-0.12933 -0.14995,-0.64666 0,-0.776 0.0707,-0.061 0.2292,0.061 0.29987,0 0.0707,-0.061 0,-0.17244 0,-0.25866 0,-0.43111 0,-0.86221 0,-1.29332"
       id="path7869-9"
       inkscape:connector-curvature="0" />
    <path
       style="fill:none;fill-rule:evenodd;stroke:#000000;stroke-width:0.21166822px;stroke-linecap:butt;stroke-linejoin:miter;stroke-opacity:1"
       d="m 216.18759,615.79446 c 1.30951,-0.0316 1.12307,-0.43922 2.09916,-0.77599 0.29349,-0.10127 0.62858,-0.11839 0.89964,-0.25867 0.24244,-0.12547 0.34687,-0.40826 0.59976,-0.51733 0.36863,-0.15898 0.79968,-0.17244 1.19951,-0.25866 0.79969,-0.17244 1.60647,-0.32201 2.39904,-0.51733 1.40655,-0.34664 0.4998,-0.18476 2.09916,-0.77599 0.58108,-0.21481 1.19952,-0.34489 1.79927,-0.51733 0.29989,-0.0862 0.58969,-0.2052 0.89965,-0.25867 0.19603,-0.0338 0.40372,0.0338 0.59975,0 0.30997,-0.0535 0.59976,-0.17244 0.89965,-0.25867 0.29987,-0.0862 0.60614,-0.1574 0.89964,-0.25866 0.20752,-0.0716 0.3877,-0.19769 0.59975,-0.25866 0.0948,-0.0272 0.20505,0.0272 0.29988,0 1.03375,-0.29723 0.22214,-0.25867 0.89964,-0.25867"
       id="path7871-73"
       inkscape:connector-curvature="0" />
    <path
       style="fill:none;fill-rule:evenodd;stroke:#000000;stroke-width:0.21166822px;stroke-linecap:butt;stroke-linejoin:miter;stroke-opacity:1"
       d="m 195.19602,610.3625 c 3.21432,-1.58431 1.05652,-0.70148 5.09795,-1.81065 3.41582,-0.93748 6.75778,-1.83999 9.89603,-3.36264 1.44327,-0.70026 2.02542,-1.21511 3.29868,-2.06932 0.39451,-0.26467 0.81556,-0.5 1.19951,-0.77599 0.2172,-0.15612 0.35733,-0.39186 0.59976,-0.51733 0.27105,-0.14028 0.62859,-0.11838 0.89964,-0.25867 0.48488,-0.25094 0.72903,-0.7641 1.19952,-1.03466 0.37195,-0.21389 0.78863,-0.36543 1.19952,-0.51732 0.47038,-0.17389 1.07037,-0.23979 1.4994,-0.51733 0.0295,-0.0191 1.09258,-0.8963 1.19952,-1.03466 0.12398,-0.16042 0.14182,-0.381 0.29987,-0.51733 0.72835,-0.62824 0.44036,0.0769 0.89964,-0.51733 0.10497,-0.13582 0.30509,-0.69127 0.59976,-0.77599 0.18966,-0.0545 0.4101,0.0545 0.59976,0 0.77234,-0.22207 -0.26722,-0.51734 0.59976,-0.51734"
       id="path7873-6"
       inkscape:connector-curvature="0" />
    <path
       style="fill:none;fill-rule:evenodd;stroke:#000000;stroke-width:0.21166822px;stroke-linecap:butt;stroke-linejoin:miter;stroke-opacity:1"
       d="m 187.69903,611.65582 c 0.4998,-0.25866 0.98988,-0.53183 1.49939,-0.77599 1.4994,-0.71851 1.2495,-0.43111 2.9988,-1.29332 0.81877,-0.40356 1.62195,-0.8325 2.39904,-1.29332 1.35961,-0.80627 3.8347,-2.54542 5.09795,-3.36265 1.08768,-0.70364 2.19233,-1.38767 3.29868,-2.06931 0.99288,-0.61174 1.96133,-1.25668 2.9988,-1.81065 1.06494,-0.56866 2.2112,-1.01599 3.29867,-1.55199 2.05787,-0.81638 3.76153,-2.12159 5.69771,-3.10398 0.77063,-0.39101 1.61016,-0.67174 2.39904,-1.03466 0.71109,-0.32712 1.38958,-0.70509 2.09916,-1.03466 0.5904,-0.27421 1.23356,-0.46547 1.79928,-0.77599 0.53999,-0.2964 0.92691,-0.78776 1.4994,-1.03466 0.65088,-0.28072 1.40877,-0.31883 2.09915,-0.51733 0.51067,-0.14683 0.99351,-0.35865 1.4994,-0.51733 0.59414,-0.18636 1.22156,-0.29586 1.79928,-0.51733 0.74269,0.14341 0.75248,-0.58319 1.19951,-0.77599 0.0894,-0.0385 0.19993,0 0.29989,0 0.1,0 0.19991,0 0.29987,0"
       id="path7875-1"
       inkscape:connector-curvature="0" />
    <path
       style="fill:none;fill-rule:evenodd;stroke:#000000;stroke-width:0.21166822px;stroke-linecap:butt;stroke-linejoin:miter;stroke-opacity:1"
       d="m 193.69662,601.30924 c 0.99959,0 1.9992,0 2.99879,0 0.39985,0 0.81506,0.0947 1.19952,0 0.34654,-0.0854 0.56837,-0.39487 0.89964,-0.51733 0.0953,-0.0353 2.34513,-0.49075 2.39904,-0.51733 0.36822,-0.18149 0.57384,-0.54181 0.89964,-0.77599 0.27687,-0.19902 0.62599,-0.31502 0.89964,-0.51733 0.42932,-0.31742 0.77689,-0.71062 1.19951,-1.03466 0.47839,-0.36679 1.01771,-0.67111 1.4994,-1.03466 0.31917,-0.24089 0.57385,-0.54181 0.89965,-0.776 0.27687,-0.19901 0.59058,-0.35738 0.89963,-0.51733 0.19166,-0.0992 0.44171,-0.12233 0.59976,-0.25866 0.39984,-0.34488 -0.4998,-0.25866 0.29988,-0.25866"
       id="path7877-2"
       inkscape:connector-curvature="0" />
    <path
       style="fill:none;fill-rule:evenodd;stroke:#000000;stroke-width:0.21166822px;stroke-linecap:butt;stroke-linejoin:miter;stroke-opacity:1"
       d="m 199.69421,595.87728 c 0.39984,-0.25867 0.79968,-0.51733 1.19952,-0.77599 0.1,0 0.21047,0.0385 0.29988,0 0.12644,-0.0545 0.17344,-0.20413 0.29988,-0.25867 0.41364,-0.17839 0.26823,0.31326 0.59976,-0.25866 0.0447,-0.0771 0,-0.17245 0,-0.25867 0,-0.0862 0,-0.17244 0,-0.25866"
       id="path7879-9"
       inkscape:connector-curvature="0" />
    <path
       style="fill:none;fill-rule:evenodd;stroke:#000000;stroke-width:0.21166822px;stroke-linecap:butt;stroke-linejoin:miter;stroke-opacity:1"
       d="m 185.29998,602.08523 c 0.29989,-0.51733 0.50525,-1.08422 0.89965,-1.55199 0.41573,-0.49307 1.0469,-0.82495 1.4994,-1.29332 0.55048,-0.56979 0.96814,-1.22744 1.49939,-1.81065 0.56938,-0.62506 1.19571,-1.20994 1.79928,-1.81066 1.27024,-1.26422 2.72657,-2.76917 4.19832,-3.87997 1.58208,-1.19406 4.19097,-2.77721 5.99759,-3.6213 3.61298,-1.68806 3.65519,-1.3646 7.19711,-2.58665 0.91408,-0.31538 1.78484,-0.71928 2.69891,-1.03466 0.58699,-0.20252 1.19953,-0.34488 1.79929,-0.51732 0.29987,-0.0862 0.61691,-0.13673 0.89963,-0.25867 0.12644,-0.0545 0.17345,-0.20413 0.29988,-0.25866 0.0894,-0.0385 0.19992,0 0.29989,0 0.19991,-0.0862 0.41377,-0.15172 0.59975,-0.25867 0.44127,-0.25374 0.75825,-0.78091 1.19952,-1.03465 0.18598,-0.10695 0.44171,-0.12234 0.59976,-0.25867 0.15805,-0.13633 0.1759,-0.35691 0.29988,-0.51733 0.0784,-0.10146 0.19992,-0.17244 0.29988,-0.25867 0.43537,-0.37552 0.32463,-0.25866 0.89964,-0.25866"
       id="path7881-3"
       inkscape:connector-curvature="0" />
    <path
       style="fill:none;fill-rule:evenodd;stroke:#000000;stroke-width:0.21166822px;stroke-linecap:butt;stroke-linejoin:miter;stroke-opacity:1"
       d="m 180.50191,597.9466 c 1.66631,-0.78398 4.69645,-2.15909 6.29748,-3.10398 0.94062,-0.55512 1.72161,-1.30486 2.69891,-1.81065 1.0357,-0.53601 2.21837,-0.82741 3.29868,-1.29333 3.38792,-1.46114 3.7828,-1.98961 7.49699,-3.36263 1.36586,-0.50492 2.82975,-0.7939 4.19832,-1.29333 1.2351,-0.45072 2.39903,-1.03466 3.59855,-1.55199 0.9996,-0.4311 2.05109,-0.78241 2.99879,-1.29332 1.44718,-0.78017 2.05763,-1.6351 3.29869,-2.58665 0.37355,-0.28641 0.80923,-0.50668 1.19951,-0.77599 0.11039,-0.0762 0.18679,-0.1855 0.29988,-0.25866 2.23756,-1.44753 -0.11065,-0.0544 1.4994,-0.51733 0.13411,-0.0385 0.17344,-0.20414 0.29988,-0.25867 3.33398,-1.43788 -1.5347,0.92055 1.79928,-0.51732 0.32236,-0.13903 0.56836,-0.39488 0.89963,-0.51734 0.37883,-0.14004 0.83089,-0.0997 1.19952,-0.25866 0.25288,-0.10906 0.36452,-0.38205 0.59977,-0.51733 0.0832,-0.0478 0.19991,0 0.29987,0 0.1,0 0.19992,0 0.29989,0"
       id="path7883-1"
       inkscape:connector-curvature="0" />
    <path
       style="fill:none;fill-rule:evenodd;stroke:#000000;stroke-width:0.21166822px;stroke-linecap:butt;stroke-linejoin:miter;stroke-opacity:1"
       d="m 178.70263,596.65328 c 0,-0.89279 -0.18562,-1.82453 0.59977,-2.58665 0.47888,-0.4647 1.20662,-0.68075 1.79927,-1.03466 0.70699,-0.42219 1.37722,-0.89039 2.09916,-1.29333 2.92013,-1.6298 3.21389,-1.5841 6.29747,-3.10397 3.66413,-1.80602 2.12619,-1.15211 5.39783,-2.84531 0.0238,-0.0123 3.29347,-1.60597 3.59856,-1.81065 0.44635,-0.29945 0.77019,-0.71725 1.19952,-1.03466 0.27365,-0.20232 0.59976,-0.34489 0.89964,-0.51733 0.29988,-0.17244 0.59059,-0.35739 0.89964,-0.51733 0.19166,-0.0992 0.40809,-0.15947 0.59976,-0.25867 0.30905,-0.15994 0.56836,-0.39486 0.89964,-0.51733 0.37882,-0.14003 0.8207,-0.11862 1.19951,-0.25866 0.33127,-0.12246 0.56218,-0.40817 0.89964,-0.51733 2.52759,-0.43604 0.5262,0.0272 2.69892,-0.77599 0.58109,-0.21481 1.2123,-0.31481 1.79928,-0.51733 0.41506,-0.14321 0.79968,-0.34489 1.19952,-0.51733 0.19991,-0.0862 0.41378,-0.15172 0.59976,-0.25867 0.11761,-0.0676 0.19991,-0.17244 0.29988,-0.25866 0.29988,-0.25866 0.59976,-0.51733 0.89963,-0.776 1.83633,-1.58394 -0.50576,0.32719 1.19952,-0.77599 0.22619,-0.14632 0.37358,-0.37101 0.59977,-0.51733 0.17881,-0.11568 0.40809,-0.15947 0.59975,-0.25867 0.30905,-0.15994 0.59059,-0.35737 0.89964,-0.51732 0.75806,-0.39233 1.60802,-0.69351 2.39904,-1.03466 0.19992,-0.0862 0.38771,-0.1977 0.59976,-0.25866 0.0948,-0.0272 0.22919,0.061 0.29988,0 0.14136,-0.12194 -0.0632,-0.35374 0,-0.51733 0.0707,-0.18291 0.19992,-0.34489 0.29988,-0.51734"
       id="path7885-9"
       inkscape:connector-curvature="0" />
    <path
       style="fill:none;fill-rule:evenodd;stroke:#000000;stroke-width:0.21166822px;stroke-linecap:butt;stroke-linejoin:miter;stroke-opacity:1"
       d="m 170.306,598.98126 c 0.69973,-0.43111 1.36544,-0.90657 2.09916,-1.29333 1.06873,-0.56335 2.19912,-1.03465 3.29868,-1.55199 1.19952,-0.77599 2.35098,-1.61057 3.59856,-2.32797 1.15545,-0.66444 2.4431,-1.14622 3.59855,-1.81066 14.02482,-8.06484 -5.11901,2.63657 6.29747,-4.3973 1.13002,-0.69622 2.41781,-1.18017 3.59856,-1.81065 0.91933,-0.49089 1.76319,-1.0847 2.69892,-1.55199 0.96718,-0.48299 1.98977,-0.87887 2.99879,-1.29332 1.0905,-0.44792 2.26298,-0.75731 3.29868,-1.29333 0.9773,-0.50578 1.77497,-1.23507 2.69892,-1.81065 0.87653,-0.54604 1.79927,-1.03466 2.69891,-1.55199 0.59976,-0.34488 1.2303,-0.65293 1.79928,-1.03466 0.33476,-0.22458 0.56848,-0.54747 0.89964,-0.77599 0.52025,-0.359 0.57196,-0.0934 0.89964,-0.51733 0.12398,-0.16041 0.14183,-0.381 0.29987,-0.51733 0.15806,-0.13633 0.42095,-0.14298 0.59977,-0.25866 0.45236,-0.29265 0.76512,-0.72241 1.19952,-1.03466 0.38395,-0.27599 0.81555,-0.50001 1.19951,-0.77599 0.543,-0.39031 0.9996,-0.86222 1.4994,-1.29333 0.19992,-0.17244 0.37898,-0.36498 0.59976,-0.51733 2.3733,-1.63769 -0.85559,0.89124 2.09916,-1.29332 0.32199,-0.23806 0.56848,-0.54748 0.89964,-0.77599 0.17453,-0.12044 0.40809,-0.15948 0.59976,-0.25867 0.84772,-0.43872 0.71129,-0.35486 1.19951,-0.776"
       id="path7887-4"
       inkscape:connector-curvature="0" />
    <path
       style="fill:none;fill-rule:evenodd;stroke:#000000;stroke-width:0.21166822px;stroke-linecap:butt;stroke-linejoin:miter;stroke-opacity:1"
       d="m 198.19481,620.45042 c 0.97116,-0.0103 1.76352,-0.64152 2.69892,-0.77599 0.2958,-0.0425 0.60384,0.0425 0.89964,0 0.6236,-0.0897 1.1914,-0.36752 1.79927,-0.51733 0.39629,-0.0977 0.81362,-0.13384 1.19952,-0.25866 0.41858,-0.1354 0.79968,-0.34489 1.19953,-0.51733 0.39983,-0.17245 0.80873,-0.33007 1.19951,-0.51733 0.50952,-0.24416 0.97807,-0.55116 1.4994,-0.776 1.53156,-0.66053 2.33087,-0.84261 3.89843,-1.29332 0.59976,-0.17244 1.20514,-0.33097 1.79929,-0.51733 3.94436,-1.23718 -0.27467,-0.007 2.39903,-0.77599 0.29988,-0.0862 0.58968,-0.2052 0.89964,-0.25867 0.0116,-0.002 0.89817,10e-4 0.89964,0 0.14137,-0.12194 -0.14136,-0.39539 0,-0.51733 0.0707,-0.061 0.19992,0 0.29988,0 0.1,-0.17244 0.17589,-0.35691 0.29988,-0.51733 0.18199,-0.23546 0.76674,-0.54673 0.89964,-0.77599 0.0447,-0.0771 0,-0.17244 0,-0.25866"
       id="path7889-78"
       inkscape:connector-curvature="0" />
    <path
       style="fill:none;fill-rule:evenodd;stroke:#000000;stroke-width:0.21166822px;stroke-linecap:butt;stroke-linejoin:miter;stroke-opacity:1"
       d="m 180.80179,613.98381 c 2.28075,-0.98364 1.17669,-0.56119 3.29868,-1.29332 0.4998,-0.17245 0.98006,-0.39517 1.4994,-0.51733 0.58661,-0.138 1.22244,-0.0928 1.79927,-0.25867 0.63614,-0.1829 1.17343,-0.56837 1.79928,-0.77599 1.56816,-0.52025 2.39818,-0.44645 3.89844,-1.03466 0.53061,-0.20804 0.96137,-0.58263 1.4994,-0.776 0.67174,-0.24142 1.41383,-0.30621 2.09915,-0.51733 1.43385,-0.4417 2.78467,-1.06424 4.19832,-1.55199 0.79297,-0.27359 1.60606,-0.50239 2.39904,-0.77599 1.41364,-0.48774 2.77725,-1.08054 4.19831,-1.55199 0.59006,-0.19575 1.25717,-0.23677 1.79928,-0.51733 0.48487,-0.25094 0.74715,-0.74201 1.19952,-1.03465 0.35762,-0.23136 0.83575,-0.29321 1.19952,-0.51733 0.3451,-0.21262 0.57764,-0.53793 0.89963,-0.776 0.75896,-0.56112 1.59936,-1.03465 2.39904,-1.55199 0.39984,-0.25866 0.80501,-0.51131 1.19952,-0.77599 0.50523,-0.33895 0.97504,-0.71805 1.4994,-1.03466 0.4775,-0.28831 1.03932,-0.46733 1.4994,-0.77599 0.44634,-0.29945 0.74715,-0.74201 1.19951,-1.03466 4.09576,-2.64963 -1.8964,1.88246 2.39905,-1.29333 0.32199,-0.23806 0.59975,-0.51732 0.89963,-0.77599 0.19992,-0.17244 0.42315,-0.32689 0.59976,-0.51733 0.22515,-0.24275 0.43858,-0.49793 0.59976,-0.77599 0.44124,-0.7612 -0.6947,0.34055 0.29988,-0.51733"
       id="path7891-4"
       inkscape:connector-curvature="0" />
    <path
       style="fill:none;fill-rule:evenodd;stroke:#000000;stroke-width:0.21166822px;stroke-linecap:butt;stroke-linejoin:miter;stroke-opacity:1"
       d="m 211.08963,616.57046 c 0.69973,0 1.39944,0 2.09916,0 0.29989,0 0.60559,0.0507 0.89964,0 0.21918,-0.0378 0.38292,-0.21191 0.59976,-0.25867 0.19395,-0.0418 0.40372,0.0338 0.59976,0 0.30997,-0.0535 0.59298,-0.19254 0.89964,-0.25867 0.19395,-0.0418 0.4101,0.0545 0.59976,0 0.62728,-0.18035 1.1849,-0.56402 1.79928,-0.77599 2.04777,-0.70653 -0.1109,0.26574 1.4994,-0.77599 0.17881,-0.11568 0.4417,-0.12234 0.59976,-0.25867 0.0707,-0.061 -0.0447,-0.18154 0,-0.25866 0.51193,-0.88314 0.29987,0.79997 0.29987,-1.03466"
       id="path7893-5"
       inkscape:connector-curvature="0" />
    <rect
       style="opacity:1;fill:none;fill-opacity:1;stroke:#000000;stroke-width:0.65626764;stroke-miterlimit:4;stroke-dasharray:none;stroke-opacity:1"
       id="rect7895-0"
       width="43.267723"
       height="34.753693"
       x="181.21104"
       y="575.09222" />
  </g>
  <g
     inkscape:groupmode="layer"
     id="layer3"
     inkscape:label="Layer 3">
    <circle
       style="opacity:0.6;fill:#ff0000;fill-opacity:1;stroke-width:1;stroke-miterlimit:4;stroke-dasharray:none"
       id="path3478"
       cx="219.63133"
       cy="592.20447"
       r="56.578949" />
  </g>
</svg>
