<?xml version="1.0" encoding="UTF-8" standalone="no"?>
<!-- Created with Inkscape (http://www.inkscape.org/) -->

<svg
   xmlns:osb="http://www.openswatchbook.org/uri/2009/osb"
   xmlns:dc="http://purl.org/dc/elements/1.1/"
   xmlns:cc="http://creativecommons.org/ns#"
   xmlns:rdf="http://www.w3.org/1999/02/22-rdf-syntax-ns#"
   xmlns:svg="http://www.w3.org/2000/svg"
   xmlns="http://www.w3.org/2000/svg"
   xmlns:sodipodi="http://sodipodi.sourceforge.net/DTD/sodipodi-0.dtd"
   xmlns:inkscape="http://www.inkscape.org/namespaces/inkscape"
   width="210mm"
   height="297mm"
   viewBox="0 0 744.09448819 1052.3622047"
   id="svg2"
   version="1.1"
   inkscape:version="0.91 r13725"
   sodipodi:docname="set-2-part-7-failed.svg"
   inkscape:export-filename="/home/appreciate/Dropbox (MIT)/rumor-spreading-modeling/experiments/spaceship/set-2-part-7.png"
   inkscape:export-xdpi="90"
   inkscape:export-ydpi="90">
  <defs
     id="defs4">
    <inkscape:perspective
       sodipodi:type="inkscape:persp3d"
       inkscape:vp_x="-1069.7368 : 76.181093 : 1"
       inkscape:vp_y="0 : 1000 : 0"
       inkscape:vp_z="-325.64236 : 76.181093 : 1"
       inkscape:persp3d-origin="-697.68961 : -99.212608 : 1"
       id="perspective4787" />
    <linearGradient
       id="linearGradient4147"
       osb:paint="gradient">
      <stop
         style="stop-color:#000000;stop-opacity:1;"
         offset="0"
         id="stop4149" />
      <stop
         style="stop-color:#000000;stop-opacity:0;"
         offset="1"
         id="stop4151" />
    </linearGradient>
    <linearGradient
       id="linearGradient4141"
       osb:paint="solid">
      <stop
         style="stop-color:#000000;stop-opacity:1;"
         offset="0"
         id="stop4143" />
    </linearGradient>
  </defs>
  <sodipodi:namedview
     id="base"
     pagecolor="#ffffff"
     bordercolor="#666666"
     borderopacity="1.0"
     inkscape:pageopacity="0.0"
     inkscape:pageshadow="2"
     inkscape:zoom="0.76"
     inkscape:cx="242.57519"
     inkscape:cy="520"
     inkscape:document-units="px"
     inkscape:current-layer="layer3"
     showgrid="false"
     inkscape:window-width="1920"
     inkscape:window-height="1058"
     inkscape:window-x="0"
     inkscape:window-y="0"
     inkscape:window-maximized="1" />
  <metadata
     id="metadata7">
    <rdf:RDF>
      <cc:Work
         rdf:about="">
        <dc:format>image/svg+xml</dc:format>
        <dc:type
           rdf:resource="http://purl.org/dc/dcmitype/StillImage" />
        <dc:title></dc:title>
      </cc:Work>
    </rdf:RDF>
  </metadata>
  <g
     inkscape:label="Layer 1"
     inkscape:groupmode="layer"
     id="layer1">
    <path
       style="fill:none;fill-rule:evenodd;stroke:#000000;stroke-width:1px;stroke-linecap:butt;stroke-linejoin:miter;stroke-opacity:1"
       d="m 134.21053,247.15168 c 248.68421,-150 248.68421,-150 248.68421,-150 l 234.21052,143.42105 z"
       id="path3381"
       inkscape:connector-curvature="0" />
    <path
       style="fill:#000000"
       d="m 142.96993,243.26489 c 1.08552,-0.64636 55.52521,-33.48357 120.97708,-72.9716 108.52875,-65.47691 119.24168,-71.64486 121.71052,-70.07457 1.48892,0.94702 52.88306,32.42566 114.20919,69.95254 61.32613,37.52688 111.25733,68.47542 110.95821,68.77455 -0.91786,0.91784 -339.51981,5.49126 -406.67079,5.49281 -37.66295,8.7e-4 -62.36118,-0.47293 -61.18421,-1.17373 z"
       id="path3383"
       inkscape:connector-curvature="0" />
    <path
       style="fill:none;fill-rule:evenodd;stroke:#000000;stroke-width:1px;stroke-linecap:butt;stroke-linejoin:miter;stroke-opacity:1"
       d="M 138.15789,903.73063 43.421053,1014.2569 700,1015.5727 615.78947,902.41484 Z"
       id="path3385"
       inkscape:connector-curvature="0" />
    <path
       style="fill:#000000"
       d="m 159.00139,1012.9522 -112.258021,-0.6689 45.805387,-53.45915 45.805384,-53.4591 165.79473,-0.9038 c 91.18711,-0.49709 198.62504,-0.71681 238.75098,-0.48827 l 72.95624,0.41554 39.25026,52.63158 c 21.58764,28.94737 39.84725,53.6678 40.57691,54.9342 1.26146,2.1895 -9.13106,2.287 -211.54862,1.9848 -117.08138,-0.1748 -263.39134,-0.6189 -325.13325,-0.9869 z"
       id="path3387"
       inkscape:connector-curvature="0" />
    <path
       style="fill:#000000"
       d="m 180.75314,1049.0071 -101.611514,-0.3453 0.734764,-31.8998 c 0.404121,-17.5449 0.962695,-32.63993 1.241276,-33.54453 0.399245,-1.29643 20.787164,-1.6388 96.271494,-1.61668 92.99975,0.0273 484.54379,3.40673 485.2517,4.18829 0.19374,0.2139 0.7837,14.74752 1.31101,32.29682 l 0.95877,31.9079 -191.27299,-0.3207 c -105.20014,-0.1764 -236.99817,-0.4761 -292.88451,-0.666 z"
       id="path3395"
       inkscape:connector-curvature="0" />
    <flowRoot
       xml:space="preserve"
       id="flowRoot3361"
       style="fill:black;stroke:none;stroke-opacity:1;stroke-width:1px;stroke-linejoin:miter;stroke-linecap:butt;fill-opacity:1;font-family:sans-serif;font-style:normal;font-weight:normal;font-size:15px;line-height:125%;letter-spacing:0px;word-spacing:0px"><flowRegion
         id="flowRegion3363"><rect
           id="rect3365"
           width="15.789474"
           height="27.631578"
           x="78.947365"
           y="16.83589" /></flowRegion><flowPara
         id="flowPara3367"></flowPara></flowRoot>    <flowRoot
       xml:space="preserve"
       id="flowRoot3369"
       style="fill:black;stroke:none;stroke-opacity:1;stroke-width:1px;stroke-linejoin:miter;stroke-linecap:butt;fill-opacity:1;font-family:sans-serif;font-style:normal;font-weight:normal;font-size:15px;line-height:125%;letter-spacing:0px;word-spacing:0px"><flowRegion
         id="flowRegion3371"><rect
           id="rect3373"
           width="26.31579"
           height="38.157894"
           x="92.105263"
           y="24.730625" /></flowRegion><flowPara
         id="flowPara3375"></flowPara></flowRoot>    <rect
       style="opacity:1;fill:none;fill-opacity:1;stroke:#000000;stroke-width:4.9187355;stroke-miterlimit:4;stroke-dasharray:none;stroke-opacity:1"
       id="rect4346"
       width="480.34445"
       height="650.08136"
       x="134.16991"
       y="248.37421" />
  </g>
  <g
     inkscape:groupmode="layer"
     id="layer2"
     inkscape:label="Layer 2">
    <path
       style="fill:none;fill-rule:evenodd;stroke:#000000;stroke-width:1px;stroke-linecap:butt;stroke-linejoin:miter;stroke-opacity:1"
       d="m -257.89474,307.62536 c -3.94736,0 -7.89473,0 -11.8421,0 -4.82456,0 -9.64912,0 -14.47369,0 -0.43859,0 -0.87719,0 -1.31578,0 -0.4386,0 -1.00566,0.31014 -1.31579,0 -0.31014,-0.31013 0,-0.87719 0,-1.31579 0,-0.43859 0,-0.87719 0,-1.31579 0,-1.31579 0,-2.63157 0,-3.94736 0,-7.89474 0,-15.78948 0,-23.68421 0,-1.75439 0,-3.50878 0,-5.26316 0,-0.4386 -0.3923,-1.11965 0,-1.31579 0.78458,-0.39229 1.75438,0 2.63157,0 0.8772,0 1.75439,0 2.63158,0 3.07018,0 6.14035,0 9.21053,0 0.4386,0 0.9235,-0.19615 1.31579,0 2.39594,1.19797 0.77131,0.99813 1.31579,2.63158 0.31013,0.9304 0.77178,1.81556 1.31579,2.63158 2.00728,3.01092 1.04154,-0.82276 2.63158,3.94736 0.13869,0.41609 -0.19615,0.9235 0,1.31579 0.27739,0.55479 1.11964,0.72735 1.31579,1.31579 0.2495,0.74851 0,5.33969 0,6.57895 0,4.38597 0,8.77193 0,13.1579 0,1.02853 0.23975,8.49126 0,9.21052 -0.31014,0.93041 -0.62231,1.9381 -1.31579,2.63158 -0.69348,0.69348 -1.81556,0.77178 -2.63158,1.31579 -0.5161,0.34406 -0.72735,1.11964 -1.31579,1.31579 -1.39817,0.46606 -3.86499,-0.46606 -5.26316,0 -0.9304,0.31013 -1.68013,1.07793 -2.63158,1.31579 -1.00061,0.25015 -5.47712,0 -6.57895,0 -0.52014,0 -6.01699,0.28097 -6.57894,0 -0.55479,-0.27739 -1.0384,-0.761 -1.31579,-1.31579 -0.20022,-0.40044 0,-3.35479 0,-3.94737 0,-3.50877 0,-7.01754 0,-10.52631 0,-0.8772 -0.48658,-1.90172 0,-2.63158 0.54401,-0.81602 1.84699,-0.72735 2.63158,-1.31579 7.61577,-5.71183 -1.69472,-0.89211 5.26315,-2.63158 0.95145,-0.23786 1.721,-0.95156 2.63158,-1.31579 1.28777,-0.51511 2.65961,-0.80069 3.94737,-1.31579 0.91059,-0.36424 1.68013,-1.07793 2.63158,-1.31579 0.851,-0.21275 1.75439,0 2.63158,0 2.19298,0 4.38596,0 6.57895,0 0.59257,0 3.54693,-0.20022 3.94737,0 2.58295,1.29147 0.59236,2.50052 1.31579,3.94737 0.27739,0.55478 1.03839,0.761 1.31578,1.31579 0.39202,0.78402 -0.30563,5.3564 0,6.57894 1.14061,4.56243 3.16885,8.96928 5.26316,13.1579 0.4386,0.87719 0.77178,1.81556 1.31579,2.63158 0.34407,0.51609 1.0384,0.761 1.31579,1.31579 0.23792,0.47583 0,5.66376 0,6.57895 0,2.19298 0,4.38596 0,6.57894 0,0.8772 0.27739,1.7994 0,2.63158 -0.19614,0.58844 -0.79969,0.97173 -1.31579,1.31579 -0.81602,0.54401 -1.75438,0.87719 -2.63158,1.31579 -2.95829,1.47915 -5.92098,3.28946 -9.21052,3.94737 -0.86016,0.17203 -1.75439,0 -2.63158,0 -2.63158,0 -5.26316,0 -7.89474,0 -0.87719,0 -1.75438,0 -2.63158,0 -0.87719,0 -2.01131,0.62027 -2.63158,0 -2.09173,-2.09173 -0.9744,-5.50503 -1.31579,-7.89474 -0.25574,-1.7902 -1.06004,-3.47295 -1.31579,-5.26316 -0.18608,-1.30256 0,-2.63157 0,-3.94736 0,-4.38597 0,-8.77193 0,-13.1579 0,-3.94737 0,-7.89474 0,-11.8421 0,-0.4386 0,-0.8772 0,-1.31579 0,-0.4386 -0.31013,-1.00566 0,-1.31579 0.69349,-0.69349 1.81557,-0.77178 2.63158,-1.31579 1.93615,-1.29077 3.32701,-3.97239 5.26316,-5.26316 0.66262,-2.8989 2.70683,-0.69552 3.94737,-1.31579 0.55479,-0.27739 0.72735,-1.11964 1.31579,-1.31579 0.83218,-0.27739 1.75438,0 2.63158,0 0.43859,0 1.20941,0.4255 1.31579,0 0.4255,-1.702 0,-3.50877 0,-5.26316 0,-1.31579 0,-2.63158 0,-3.94737 0,-0.87719 0,-1.75438 0,-2.63157 0,-1.31579 0.58844,-2.7705 0,-3.94737 -0.4386,-0.8772 -1.81556,-0.77178 -2.63158,-1.31579 -0.5161,-0.34407 -0.72735,-1.11965 -1.31579,-1.31579 -0.34345,-0.11448 -7.25946,-0.21176 -7.89474,0 -4.5378,1.5126 -1.38002,0.98424 -3.94737,5.26316 -0.63825,1.06375 -2.07679,1.522 -2.63158,2.63157 -0.78458,1.56918 0.42551,3.56116 0,5.26316 -0.23786,0.95145 -1.00565,1.70118 -1.31578,2.63158 -0.21771,0.6531 -0.11206,3.83531 0,3.94737 2.6879,2.68791 6.19783,0.56262 9.21052,1.31579 0.95145,0.23786 1.70118,1.00565 2.63158,1.31579 1.63345,0.54448 1.43361,-1.08015 2.63158,1.31579 0.19615,0.39229 -0.31014,1.00565 0,1.31579 0.31013,0.31013 1.00565,-0.31014 1.31579,0 0.16253,0.16253 0,4.43804 0,5.26316 0,2.63157 0,5.26315 0,7.89473 0,0.4386 0,0.8772 0,1.31579 0,0.4386 0.31013,1.00566 0,1.31579 -0.69348,0.69348 -1.81556,0.77178 -2.63158,1.31579 -0.5161,0.34406 -0.71404,1.16535 -1.31579,1.31579 -1.2765,0.31913 -2.64948,-0.21631 -3.94737,0 -1.36809,0.22802 -2.58734,1.04378 -3.94737,1.31579 -0.86015,0.17203 -1.75438,0 -2.63158,0 -2.19298,0 -4.38596,0 -6.57894,0 -1.31579,0 -2.63158,0 -3.94737,0 -0.4386,0 -1.00566,0.31013 -1.31579,0 -0.31014,-0.31013 0,-0.87719 0,-1.31579 0,-2.19298 0,-4.38596 0,-6.57895 0,-0.49431 -0.0328,-6.54611 0,-6.57894 0.69348,-0.69349 1.72099,-0.95156 2.63158,-1.31579 1.28776,-0.51511 2.57927,-1.08778 3.94737,-1.31579 1.29788,-0.21632 2.63158,0 3.94737,0 2.63157,0 5.26315,0 7.89473,0 5.26316,0 10.52632,0 15.78948,0 1.75438,0 3.50877,0 5.26315,0 0.8772,0 1.77142,0.17203 2.63158,0 1.36003,-0.27201 2.58734,-1.04379 3.94737,-1.31579 0.0507,-0.0101 3.94092,0.006 3.94737,0 0.31013,-0.31014 0,-0.8772 0,-1.31579 0,-0.4386 0,-0.8772 0,-1.31579 0,-0.87719 0,-1.75439 0,-2.63158 0,-0.87719 0.39229,-1.84699 0,-2.63158 -1.30829,-2.61658 -6.61712,-5.28224 -9.21053,-6.57895 -0.87719,-0.43859 -1.66989,-1.12345 -2.63158,-1.31579 -1.29023,-0.25804 -2.63157,0 -3.94736,0 -2.19299,0 -4.38597,0 -6.57895,0 -0.4386,0 -1.00566,-0.31013 -1.31579,0 -0.62027,0.62027 0.39229,1.847 0,2.63158 -0.27739,0.55479 -1.0384,0.76101 -1.31579,1.31579 -0.20022,0.40044 0,3.35479 0,3.94737 0,2.63158 0,5.26316 0,7.89474 0,9.64912 0,19.29824 0,28.94737 0,2.19298 0,4.38596 0,6.57894 0,0.4386 -0.31014,1.00566 0,1.31579 0.31013,0.31014 0.87719,0 1.31579,0 0.4386,0 0.87719,0 1.31579,0 3.94737,0 7.89474,0 11.8421,0 1.75439,0 3.50878,0 5.26316,0 0.87719,0 1.75439,0 2.63158,0 0.4386,0 0.9235,0.19615 1.31579,0 0.55479,-0.27739 0.87719,-0.87719 1.31579,-1.31579 0.4386,-0.43859 1.0384,-0.761 1.31579,-1.31579 0.19615,-0.39229 0,-0.87719 0,-1.31579 0,-0.87719 -0.27739,-1.7994 0,-2.63157 0.19615,-0.58844 1.0384,-0.76101 1.31579,-1.31579 0.23499,-0.46998 0,-7.59018 0,-7.89474 0,-3.07018 0,-6.14035 0,-9.21053 0,-0.87719 0.27739,-1.7994 0,-2.63158 -0.27861,-0.83583 -3.97762,-2.60132 -2.63158,-3.94736 0.25611,-0.25611 6.09849,0.24023 6.57895,0 0.39229,-0.19615 -0.31014,-1.00566 0,-1.31579 0.31013,-0.31014 0.92349,0.19614 1.31579,0 0.55478,-0.2774 0.87719,-0.8772 1.31579,-1.31579"
       id="path6772"
       inkscape:connector-curvature="0" />
    <rect
       style="opacity:1;fill:#000000;fill-opacity:1;stroke:#000000;stroke-width:4.49657106;stroke-miterlimit:4;stroke-dasharray:none;stroke-opacity:1"
       id="rect6797"
       width="53.766586"
       height="59.029743"
       x="-280.83063"
       y="388.63678" />
    <rect
       style="opacity:1;fill:#808080;fill-opacity:1;stroke:#000000;stroke-width:3;stroke-miterlimit:4;stroke-dasharray:none;stroke-opacity:1"
       id="rect6799"
       width="40.789474"
       height="50"
       x="-302.63156"
       y="361.57269" />
    <rect
       style="opacity:1;fill:#800080;fill-opacity:1;stroke:#ffff00;stroke-width:3;stroke-miterlimit:4;stroke-dasharray:none;stroke-opacity:1"
       id="rect6891"
       width="43.421051"
       height="26.31579"
       x="-280.26315"
       y="493.15167" />
    <ellipse
       style="opacity:1;fill:#800080;fill-opacity:1;stroke:#ffff00;stroke-width:3;stroke-miterlimit:4;stroke-dasharray:none;stroke-opacity:1"
       id="path6893"
       cx="-285.52631"
       cy="520.78326"
       rx="31.578947"
       ry="18.421053" />
    <ellipse
       style="opacity:1;fill:#800080;fill-opacity:1;stroke:#ffff00;stroke-width:3;stroke-miterlimit:4;stroke-dasharray:none;stroke-opacity:1"
       id="path6897"
       cx="-239.47369"
       cy="525.38855"
       rx="28.947369"
       ry="11.184211" />
    <ellipse
       style="opacity:1;fill:#800080;fill-opacity:1;stroke:#ffff00;stroke-width:3;stroke-miterlimit:4;stroke-dasharray:none;stroke-opacity:1"
       id="path6899"
       cx="-251.97369"
       cy="537.23065"
       rx="13.815789"
       ry="17.763159" />
    <path
       sodipodi:type="star"
       style="opacity:1;fill:#666666;fill-opacity:1;stroke:#4d4d4d;stroke-width:3;stroke-miterlimit:4;stroke-dasharray:none;stroke-opacity:1"
       id="path6951"
       sodipodi:sides="5"
       sodipodi:cx="297.36841"
       sodipodi:cy="633.94116"
       sodipodi:r1="123.6072"
       sodipodi:r2="120.71423"
       sodipodi:arg1="1.0833437"
       sodipodi:arg2="1.642741"
       inkscape:flatsided="false"
       inkscape:rounded="0"
       inkscape:randomized="0"
       d="m 355.26314,743.15169 -66.57199,11.19143 -77.29767,-31.59288 -31.21556,-59.85539 6.16032,-83.27719 47.27972,-48.18409 81.10496,-19.87525 60.43603,30.07598 43.9653,70.9936 -9.9282,66.77207 z"
       inkscape:transform-center-x="-2.6079493"
       inkscape:transform-center-y="-1.0084494"
       transform="matrix(0.4862991,0,0,0.15311621,-408.55944,517.59872)" />
    <ellipse
       style="opacity:1;fill:#ffffff;fill-opacity:1;stroke:#4d4d4d;stroke-width:3;stroke-miterlimit:4;stroke-dasharray:none;stroke-opacity:1"
       id="path6953"
       cx="-257.23682"
       cy="611.57275"
       rx="36.184212"
       ry="2.6315789" />
    <g
       sodipodi:type="inkscape:box3d"
       id="g6995"
       style="opacity:1;fill:#ffffff;fill-opacity:1;stroke:#4d4d4d;stroke-width:3;stroke-miterlimit:4;stroke-dasharray:none;stroke-opacity:1"
       inkscape:perspectiveID="#perspective4787"
       inkscape:corner0="-0.54098067 : 0.32272346 : 0 : 1"
       inkscape:corner7="-0.54246617 : 0.2696671 : 0.30247292 : 1">
      <path
         sodipodi:type="inkscape:box3dside"
         id="path7007"
         style="fill:#e9e9ff;fill-rule:evenodd;stroke:none;stroke-width:1px;stroke-linecap:butt;stroke-linejoin:round;stroke-opacity:1"
         inkscape:box3dsidetype="11"
         d="m -285.59801,782.70606 1.53267,-0.37817 0,69.81038 -1.53267,0.24198 z"
         points="-284.06534,782.32789 -284.06534,852.13827 -285.59801,852.38025 -285.59801,782.70606 " />
      <path
         sodipodi:type="inkscape:box3dside"
         id="path7003"
         style="fill:#d7d7ff;fill-rule:evenodd;stroke:none;stroke-width:1px;stroke-linecap:butt;stroke-linejoin:round;stroke-opacity:1"
         inkscape:box3dsidetype="14"
         d="m -256.57903,654.17267 0,115.96161 -27.48631,82.00399 0,-69.81038 z"
         points="-256.57903,770.13428 -284.06534,852.13827 -284.06534,782.32789 -256.57903,654.17267 " />
      <path
         sodipodi:type="inkscape:box3dside"
         id="path6999"
         style="fill:#4d4d9f;fill-rule:evenodd;stroke:none;stroke-width:1px;stroke-linecap:butt;stroke-linejoin:round;stroke-opacity:1"
         inkscape:box3dsidetype="5"
         d="m -259.21061,655.21477 2.63158,-1.0421 -27.48631,128.15522 -1.53267,0.37817 z"
         points="-256.57903,654.17267 -284.06534,782.32789 -285.59801,782.70606 -259.21061,655.21477 " />
      <path
         sodipodi:type="inkscape:box3dside"
         id="path6997"
         style="fill:#353564;fill-rule:evenodd;stroke:none;stroke-width:1px;stroke-linecap:butt;stroke-linejoin:round;stroke-opacity:1"
         inkscape:box3dsidetype="6"
         d="m -259.21061,655.21477 0,115.58633 -26.3874,81.57915 0,-69.67419 z"
         points="-259.21061,770.8011 -285.59801,852.38025 -285.59801,782.70606 -259.21061,655.21477 " />
      <path
         sodipodi:type="inkscape:box3dside"
         id="path7005"
         style="fill:#afafde;fill-rule:evenodd;stroke:none;stroke-width:1px;stroke-linecap:butt;stroke-linejoin:round;stroke-opacity:1"
         inkscape:box3dsidetype="13"
         d="m -259.21061,770.8011 2.63158,-0.66682 -27.48631,82.00399 -1.53267,0.24198 z"
         points="-256.57903,770.13428 -284.06534,852.13827 -285.59801,852.38025 -259.21061,770.8011 " />
      <path
         sodipodi:type="inkscape:box3dside"
         id="path7001"
         style="fill:#8686bf;fill-rule:evenodd;stroke:none;stroke-width:1px;stroke-linecap:butt;stroke-linejoin:round;stroke-opacity:1"
         inkscape:box3dsidetype="3"
         d="m -259.21061,655.21477 2.63158,-1.0421 0,115.96161 -2.63158,0.66682 z"
         points="-256.57903,654.17267 -256.57903,770.13428 -259.21061,770.8011 -259.21061,655.21477 " />
    </g>
    <circle
       style="opacity:1;fill:#000000;fill-opacity:1;stroke:#000000;stroke-width:3;stroke-miterlimit:4;stroke-dasharray:none;stroke-opacity:1"
       id="path7051"
       cx="-273.02631"
       cy="930.65167"
       r="45.394737" />
    <circle
       style="opacity:1;fill:#000000;fill-opacity:1;stroke:#000000;stroke-width:3;stroke-miterlimit:4;stroke-dasharray:none;stroke-opacity:1"
       id="path7053"
       cx="-267.10526"
       cy="949.73059"
       r="17.105263" />
    <circle
       style="opacity:1;fill:#000000;fill-opacity:1;stroke:#000000;stroke-width:3;stroke-miterlimit:4;stroke-dasharray:none;stroke-opacity:1"
       id="path7055"
       cx="-259.86841"
       cy="934.599"
       r="9.8684206" />
    <circle
       style="opacity:1;fill:#000000;fill-opacity:1;stroke:#000000;stroke-width:3;stroke-miterlimit:4;stroke-dasharray:none;stroke-opacity:1"
       id="path7057"
       cx="-276.3158"
       cy="920.7832"
       r="7.8947368" />
    <ellipse
       style="opacity:1;fill:#000000;fill-opacity:1;stroke:#000000;stroke-width:3;stroke-miterlimit:4;stroke-dasharray:none;stroke-opacity:1"
       id="path7097"
       cx="396.71054"
       cy="466.17801"
       rx="4.6052632"
       ry="5.9210525" />
    <ellipse
       style="opacity:1;fill:#000000;fill-opacity:1;stroke:#000000;stroke-width:3;stroke-miterlimit:4;stroke-dasharray:none;stroke-opacity:1"
       id="path7105"
       cx="415.78946"
       cy="471.44116"
       rx="6.5789475"
       ry="3.2894738" />
    <ellipse
       style="opacity:1;fill:#000000;fill-opacity:1;stroke:#000000;stroke-width:3;stroke-miterlimit:4;stroke-dasharray:none;stroke-opacity:1"
       id="path7107"
       cx="427.63159"
       cy="484.59906"
       rx="10.526316"
       ry="5.9210525" />
    <ellipse
       style="opacity:1;fill:#000000;fill-opacity:1;stroke:#000000;stroke-width:3;stroke-miterlimit:4;stroke-dasharray:none;stroke-opacity:1"
       id="path7109"
       cx="398.6842"
       cy="487.23062"
       rx="6.5789475"
       ry="3.2894738" />
    <ellipse
       style="opacity:1;fill:#000000;fill-opacity:1;stroke:#000000;stroke-width:3;stroke-miterlimit:4;stroke-dasharray:none;stroke-opacity:1"
       id="path7111"
       cx="430.26315"
       cy="461.57272"
       rx="2.6315789"
       ry="6.5789475" />
    <ellipse
       style="opacity:1;fill:#000000;fill-opacity:1;stroke:#000000;stroke-width:3;stroke-miterlimit:4;stroke-dasharray:none;stroke-opacity:1"
       id="path7113"
       cx="407.89474"
       cy="451.04642"
       rx="9.2105265"
       ry="5.2631578" />
    <ellipse
       style="opacity:1;fill:#000000;fill-opacity:1;stroke:#000000;stroke-width:3;stroke-miterlimit:4;stroke-dasharray:none;stroke-opacity:1"
       id="path7115"
       cx="411.8421"
       cy="495.12537"
       rx="3.9473684"
       ry="4.6052632" />
    <ellipse
       style="opacity:1;fill:#000000;fill-opacity:1;stroke:#000000;stroke-width:3;stroke-miterlimit:4;stroke-dasharray:none;stroke-opacity:1"
       id="path7117"
       cx="440.78946"
       cy="474.07272"
       rx="3.9473684"
       ry="0.65789473" />
  </g>
  <g
     inkscape:groupmode="layer"
     id="layer3"
     inkscape:label="Layer 3">
    <circle
       style="opacity:0.6;fill:#ff0000;fill-opacity:1;stroke-width:1;stroke-miterlimit:4;stroke-dasharray:none"
       id="path3478"
       cx="415.68411"
       cy="473.88876"
       r="56.578949" />
  </g>
</svg>
