<?xml version="1.0" encoding="UTF-8" standalone="no"?>
<!-- Created with Inkscape (http://www.inkscape.org/) -->

<svg
   xmlns:dc="http://purl.org/dc/elements/1.1/"
   xmlns:cc="http://creativecommons.org/ns#"
   xmlns:rdf="http://www.w3.org/1999/02/22-rdf-syntax-ns#"
   xmlns:svg="http://www.w3.org/2000/svg"
   xmlns="http://www.w3.org/2000/svg"
   xmlns:sodipodi="http://sodipodi.sourceforge.net/DTD/sodipodi-0.dtd"
   xmlns:inkscape="http://www.inkscape.org/namespaces/inkscape"
   width="200"
   height="200"
   viewBox="0 0 199.99999 199.99999"
   id="svg6522"
   version="1.1"
   inkscape:version="0.91 r13725"
   sodipodi:docname="set1-part-1-icon.svg">
  <defs
     id="defs6524" />
  <sodipodi:namedview
     id="base"
     pagecolor="#ffffff"
     bordercolor="#666666"
     borderopacity="1.0"
     inkscape:pageopacity="0.0"
     inkscape:pageshadow="2"
     inkscape:zoom="1.979899"
     inkscape:cx="38.65692"
     inkscape:cy="91.148629"
     inkscape:document-units="px"
     inkscape:current-layer="layer1"
     showgrid="false"
     inkscape:snap-nodes="false"
     units="px"
     inkscape:window-width="1920"
     inkscape:window-height="1058"
     inkscape:window-x="0"
     inkscape:window-y="0"
     inkscape:window-maximized="1" />
  <metadata
     id="metadata6527">
    <rdf:RDF>
      <cc:Work
         rdf:about="">
        <dc:format>image/svg+xml</dc:format>
        <dc:type
           rdf:resource="http://purl.org/dc/dcmitype/StillImage" />
        <dc:title></dc:title>
      </cc:Work>
    </rdf:RDF>
  </metadata>
  <g
     inkscape:label="Layer 1"
     inkscape:groupmode="layer"
     id="layer1"
     transform="translate(0,-852.36223)">
    <circle
       style="opacity:1;fill:#000000;fill-opacity:1;stroke-width:1;stroke-miterlimit:4;stroke-dasharray:none"
       id="path3488"
       cx="98.489861"
       cy="952.35712"
       r="43.421047" />
    <path
       sodipodi:type="spiral"
       style="fill:#ffffff;fill-opacity:1;fill-rule:evenodd;stroke:#000000;stroke-width:1px;stroke-linecap:butt;stroke-linejoin:miter;stroke-opacity:1"
       id="path4300"
       sodipodi:cx="95.858337"
       sodipodi:cy="952.35712"
       sodipodi:expansion="1"
       sodipodi:revolution="8.4054499"
       sodipodi:radius="32.683529"
       sodipodi:argument="-51.942097"
       sodipodi:t0="0"
       d="m 95.858337,952.35712 c -0.06177,-0.5816 0.753507,-0.37021 0.966656,-0.10268 0.577622,0.72502 -0.03769,1.71804 -0.76131,2.03599 -1.294388,0.56873 -2.698549,-0.37664 -3.105314,-1.62529 -0.596943,-1.83245 0.715789,-3.69593 2.489276,-4.17465 2.36378,-0.63806 4.699745,1.05443 5.243975,3.35326 0.68485,2.89285 -1.392677,5.70676 -4.217244,6.3133 -3.42093,0.73461 -6.715593,-1.73068 -7.382631,-5.08122 -0.786081,-3.9485 2.06853,-7.72557 5.945208,-8.45196 4.475778,-0.83865 8.736297,2.40627 9.521287,6.80919 0.89196,5.00287 -2.74395,9.74756 -7.673172,10.59062 -5.529848,0.94578 -10.759206,-3.08157 -11.659946,-8.53716 -0.999993,-6.05674 3.419149,-11.77115 9.401139,-12.72928 6.583569,-1.05448 12.783309,3.75671 13.798609,10.26513 1.10919,7.11035 -4.09424,13.79565 -11.12911,14.86793 -7.637103,1.16408 -14.808134,-4.43175 -15.937262,-11.99309 -1.219098,-8.16382 4.769251,-15.82073 12.857071,-17.00659 8.690531,-1.27423 16.833421,5.10674 18.075921,13.72105 1.32946,9.21722 -5.44422,17.8462 -14.585038,19.14525 -9.743884,1.38477 -18.859026,-5.78169 -20.214578,-15.44902 -1.440136,-10.27054 6.11916,-19.87191 16.313003,-21.2839 10.797193,-1.49557 20.884853,6.45662 22.353233,17.17698 1.55104,11.32384 -6.79407,21.89784 -18.040966,23.42257 -11.850468,1.60655 -22.910858,-7.13153 -24.491894,-18.90495 -1.662103,-12.3771 7.468979,-23.92391 19.768934,-25.56123 12.903716,-1.71768 24.936986,7.80643 26.630556,20.63292 1.77329,13.43034 -8.14387,25.95009 -21.496903,27.69988 -13.956951,1.82893 -26.963214,-8.48131 -28.769211,-22.36088 -1.884587,-14.48356 8.818747,-27.97636 23.224866,-29.83854 15.010168,-1.94026 28.989518,9.15618 30.907868,24.08885 1.99596,15.53677 -9.49362,30.0027 -24.952831,31.9772 -16.063375,2.05166 -31.01589,-9.83106 -33.046527,-25.81682 -2.107389,-16.58997 10.168486,-32.02909 26.680798,-34.11585 17.11657,-2.16313 33.04231,10.50591 35.18518,27.54478 1.33139,10.58637 -2.82513,21.36911 -10.84699,28.38818" />
  </g>
</svg>
