<?xml version="1.0" encoding="UTF-8" standalone="no"?>
<!-- Created with Inkscape (http://www.inkscape.org/) -->

<svg
   xmlns:osb="http://www.openswatchbook.org/uri/2009/osb"
   xmlns:dc="http://purl.org/dc/elements/1.1/"
   xmlns:cc="http://creativecommons.org/ns#"
   xmlns:rdf="http://www.w3.org/1999/02/22-rdf-syntax-ns#"
   xmlns:svg="http://www.w3.org/2000/svg"
   xmlns="http://www.w3.org/2000/svg"
   xmlns:sodipodi="http://sodipodi.sourceforge.net/DTD/sodipodi-0.dtd"
   xmlns:inkscape="http://www.inkscape.org/namespaces/inkscape"
   width="210mm"
   height="297mm"
   viewBox="0 0 744.09448819 1052.3622047"
   id="svg2"
   version="1.1"
   inkscape:version="0.91 r13725"
   sodipodi:docname="your-ship.svg"
   inkscape:export-filename="/home/appreciate/Dropbox (MIT)/rumor-spreading-modeling/experiments/spaceship/your-ship.png"
   inkscape:export-xdpi="90"
   inkscape:export-ydpi="90">
  <defs
     id="defs4">
    <linearGradient
       id="linearGradient4147"
       osb:paint="gradient">
      <stop
         style="stop-color:#000000;stop-opacity:1;"
         offset="0"
         id="stop4149" />
      <stop
         style="stop-color:#000000;stop-opacity:0;"
         offset="1"
         id="stop4151" />
    </linearGradient>
    <linearGradient
       id="linearGradient4141"
       osb:paint="solid">
      <stop
         style="stop-color:#000000;stop-opacity:1;"
         offset="0"
         id="stop4143" />
    </linearGradient>
  </defs>
  <sodipodi:namedview
     id="base"
     pagecolor="#ffffff"
     bordercolor="#666666"
     borderopacity="1.0"
     inkscape:pageopacity="0.0"
     inkscape:pageshadow="2"
     inkscape:zoom="0.76"
     inkscape:cx="242.57519"
     inkscape:cy="520"
     inkscape:document-units="px"
     inkscape:current-layer="layer1"
     showgrid="false"
     inkscape:window-width="1920"
     inkscape:window-height="1058"
     inkscape:window-x="0"
     inkscape:window-y="0"
     inkscape:window-maximized="1" />
  <metadata
     id="metadata7">
    <rdf:RDF>
      <cc:Work
         rdf:about="">
        <dc:format>image/svg+xml</dc:format>
        <dc:type
           rdf:resource="http://purl.org/dc/dcmitype/StillImage" />
        <dc:title></dc:title>
      </cc:Work>
    </rdf:RDF>
  </metadata>
  <g
     inkscape:label="Layer 1"
     inkscape:groupmode="layer"
     id="layer1">
    <path
       style="fill:none;fill-rule:evenodd;stroke:#000000;stroke-width:1px;stroke-linecap:butt;stroke-linejoin:miter;stroke-opacity:1"
       d="m 134.21053,247.15168 c 248.68421,-150 248.68421,-150 248.68421,-150 l 234.21052,143.42105 z"
       id="path3381"
       inkscape:connector-curvature="0" />
    <path
       style="fill:#000000"
       d="m 142.96993,243.26489 c 1.08552,-0.64636 55.52521,-33.48357 120.97708,-72.9716 108.52875,-65.47691 119.24168,-71.64486 121.71052,-70.07457 1.48892,0.94702 52.88306,32.42566 114.20919,69.95254 61.32613,37.52688 111.25733,68.47542 110.95821,68.77455 -0.91786,0.91784 -339.51981,5.49126 -406.67079,5.49281 -37.66295,8.7e-4 -62.36118,-0.47293 -61.18421,-1.17373 z"
       id="path3383"
       inkscape:connector-curvature="0" />
    <path
       style="fill:none;fill-rule:evenodd;stroke:#000000;stroke-width:1px;stroke-linecap:butt;stroke-linejoin:miter;stroke-opacity:1"
       d="M 138.15789,903.73063 43.421053,1014.2569 700,1015.5727 615.78947,902.41484 Z"
       id="path3385"
       inkscape:connector-curvature="0" />
    <path
       style="fill:#000000"
       d="m 159.00139,1012.9522 -112.258021,-0.6689 45.805387,-53.45915 45.805384,-53.4591 165.79473,-0.9038 c 91.18711,-0.49709 198.62504,-0.71681 238.75098,-0.48827 l 72.95624,0.41554 39.25026,52.63158 c 21.58764,28.94737 39.84725,53.6678 40.57691,54.9342 1.26146,2.1895 -9.13106,2.287 -211.54862,1.9848 -117.08138,-0.1748 -263.39134,-0.6189 -325.13325,-0.9869 z"
       id="path3387"
       inkscape:connector-curvature="0" />
    <path
       style="fill:#000000"
       d="m 180.75314,1049.0071 -101.611514,-0.3453 0.734764,-31.8998 c 0.404121,-17.5449 0.962695,-32.63993 1.241276,-33.54453 0.399245,-1.29643 20.787164,-1.6388 96.271494,-1.61668 92.99975,0.0273 484.54379,3.40673 485.2517,4.18829 0.19374,0.2139 0.7837,14.74752 1.31101,32.29682 l 0.95877,31.9079 -191.27299,-0.3207 c -105.20014,-0.1764 -236.99817,-0.4761 -292.88451,-0.666 z"
       id="path3395"
       inkscape:connector-curvature="0" />
    <flowRoot
       xml:space="preserve"
       id="flowRoot3353"
       style="font-style:normal;font-weight:normal;font-size:30px;line-height:125%;font-family:sans-serif;letter-spacing:0px;word-spacing:0px;fill:#000000;fill-opacity:1;stroke:none;stroke-width:1px;stroke-linecap:butt;stroke-linejoin:miter;stroke-opacity:1"><flowRegion
         id="flowRegion3355"><rect
           id="rect3357"
           width="542.10529"
           height="77.631584"
           x="7.8947368"
           y="4.9937835"
           style="font-size:30px" /></flowRegion><flowPara
         id="flowPara3359"
         style="font-size:45px">Your Ship:</flowPara></flowRoot>    <flowRoot
       xml:space="preserve"
       id="flowRoot3361"
       style="fill:black;stroke:none;stroke-opacity:1;stroke-width:1px;stroke-linejoin:miter;stroke-linecap:butt;fill-opacity:1;font-family:sans-serif;font-style:normal;font-weight:normal;font-size:15px;line-height:125%;letter-spacing:0px;word-spacing:0px"><flowRegion
         id="flowRegion3363"><rect
           id="rect3365"
           width="15.789474"
           height="27.631578"
           x="78.947365"
           y="16.83589" /></flowRegion><flowPara
         id="flowPara3367"></flowPara></flowRoot>    <flowRoot
       xml:space="preserve"
       id="flowRoot3369"
       style="fill:black;stroke:none;stroke-opacity:1;stroke-width:1px;stroke-linejoin:miter;stroke-linecap:butt;fill-opacity:1;font-family:sans-serif;font-style:normal;font-weight:normal;font-size:15px;line-height:125%;letter-spacing:0px;word-spacing:0px"><flowRegion
         id="flowRegion3371"><rect
           id="rect3373"
           width="26.31579"
           height="38.157894"
           x="92.105263"
           y="24.730625" /></flowRegion><flowPara
         id="flowPara3375"></flowPara></flowRoot>    <rect
       style="opacity:1;fill:none;fill-opacity:1;stroke:#000000;stroke-width:4.9187355;stroke-miterlimit:4;stroke-dasharray:none;stroke-opacity:1"
       id="rect4346"
       width="480.34445"
       height="650.08136"
       x="134.16991"
       y="248.37421" />
  </g>
  <g
     inkscape:groupmode="layer"
     id="layer2"
     inkscape:label="Layer 2">
    <circle
       style="opacity:1;fill:#000000;fill-opacity:1;stroke-width:1;stroke-miterlimit:4;stroke-dasharray:none"
       id="path3488"
       cx="-360.52634"
       cy="812.88855"
       r="43.421051" />
    <path
       sodipodi:type="spiral"
       style="fill:#ffffff;fill-opacity:1;fill-rule:evenodd;stroke:#000000;stroke-width:1px;stroke-linecap:butt;stroke-linejoin:miter;stroke-opacity:1"
       id="path4300"
       sodipodi:cx="-363.15787"
       sodipodi:cy="812.88855"
       sodipodi:expansion="1"
       sodipodi:revolution="8.4054499"
       sodipodi:radius="32.683533"
       sodipodi:argument="-51.942097"
       sodipodi:t0="0"
       d="m -363.15787,812.88855 c -0.0618,-0.5816 0.75351,-0.37021 0.96666,-0.10267 0.57762,0.72501 -0.0377,1.71804 -0.76131,2.03598 -1.29439,0.56873 -2.69855,-0.37664 -3.10532,-1.62529 -0.59694,-1.83244 0.71579,-3.69592 2.48928,-4.17464 2.36378,-0.63807 4.69975,1.05442 5.24397,3.35325 0.68486,2.89285 -1.39267,5.70676 -4.21724,6.31331 -3.42093,0.7346 -6.71559,-1.73068 -7.38263,-5.08123 -0.78608,-3.9485 2.06853,-7.72556 5.94521,-8.45196 4.47578,-0.83865 8.73629,2.40628 9.52129,6.80919 0.89196,5.00288 -2.74395,9.74756 -7.67318,10.59062 -5.52985,0.94579 -10.7592,-3.08157 -11.65994,-8.53716 -1,-6.05674 3.41915,-11.77114 9.40114,-12.72927 6.58356,-1.05449 12.78331,3.7567 13.7986,10.26512 1.10919,7.11035 -4.09423,13.79565 -11.1291,14.86794 -7.63711,1.16407 -14.80814,-4.43176 -15.93727,-11.99309 -1.2191,-8.16383 4.76925,-15.82074 12.85707,-17.0066 8.69053,-1.27423 16.83343,5.10674 18.07593,13.72106 1.32946,9.21721 -5.44423,17.84619 -14.58504,19.14525 -9.74389,1.38476 -18.85903,-5.7817 -20.21458,-15.44902 -1.44014,-10.27055 6.11916,-19.87192 16.313,-21.28391 10.7972,-1.49556 20.88486,6.45662 22.35324,17.17699 1.55104,11.32383 -6.79408,21.89784 -18.04097,23.42256 -11.85047,1.60656 -22.91086,-7.13153 -24.4919,-18.90495 -1.6621,-12.3771 7.46898,-23.92391 19.76894,-25.56123 12.90372,-1.71768 24.93699,7.80643 26.63056,20.63292 1.77329,13.43034 -8.14387,25.9501 -21.49691,27.69989 -13.95695,1.82893 -26.96321,-8.48131 -28.76921,-22.36089 -1.88459,-14.48356 8.81875,-27.97636 23.22487,-29.83854 15.01017,-1.94026 28.98952,9.15618 30.90787,24.08885 1.99596,15.53678 -9.49362,30.0027 -24.95284,31.9772 -16.06337,2.05167 -31.01589,-9.83105 -33.04653,-25.81682 -2.10739,-16.58997 10.16849,-32.02909 26.6808,-34.11586 17.11658,-2.16312 33.04232,10.50592 35.18519,27.54479 1.33139,10.58637 -2.82513,21.36911 -10.84699,28.38819" />
  </g>
  <g
     inkscape:groupmode="layer"
     id="layer3"
     inkscape:label="Layer 3">
    <circle
       style="opacity:0.6;fill:#ff0000;fill-opacity:1;stroke-width:1;stroke-miterlimit:4;stroke-dasharray:none"
       id="path3478"
       cx="-391.42105"
       cy="659.57288"
       r="56.578949" />
  </g>
</svg>
