<?xml version="1.0" encoding="UTF-8" standalone="no"?>
<!-- Created with Inkscape (http://www.inkscape.org/) -->

<svg
   xmlns:osb="http://www.openswatchbook.org/uri/2009/osb"
   xmlns:dc="http://purl.org/dc/elements/1.1/"
   xmlns:cc="http://creativecommons.org/ns#"
   xmlns:rdf="http://www.w3.org/1999/02/22-rdf-syntax-ns#"
   xmlns:svg="http://www.w3.org/2000/svg"
   xmlns="http://www.w3.org/2000/svg"
   xmlns:sodipodi="http://sodipodi.sourceforge.net/DTD/sodipodi-0.dtd"
   xmlns:inkscape="http://www.inkscape.org/namespaces/inkscape"
   width="210mm"
   height="297mm"
   viewBox="0 0 744.09448819 1052.3622047"
   id="svg2"
   version="1.1"
   inkscape:version="0.91 r13725"
   sodipodi:docname="othership-2.svg"
   inkscape:export-filename="/home/appreciate/Dropbox (MIT)/rumor-spreading-modeling/experiments/spaceship/othership-2.png"
   inkscape:export-xdpi="90"
   inkscape:export-ydpi="90">
  <defs
     id="defs4">
    <linearGradient
       id="linearGradient4147"
       osb:paint="gradient">
      <stop
         style="stop-color:#000000;stop-opacity:1;"
         offset="0"
         id="stop4149" />
      <stop
         style="stop-color:#000000;stop-opacity:0;"
         offset="1"
         id="stop4151" />
    </linearGradient>
    <linearGradient
       id="linearGradient4141"
       osb:paint="solid">
      <stop
         style="stop-color:#000000;stop-opacity:1;"
         offset="0"
         id="stop4143" />
    </linearGradient>
  </defs>
  <sodipodi:namedview
     id="base"
     pagecolor="#ffffff"
     bordercolor="#666666"
     borderopacity="1.0"
     inkscape:pageopacity="0.0"
     inkscape:pageshadow="2"
     inkscape:zoom="0.76"
     inkscape:cx="166.2594"
     inkscape:cy="677.89474"
     inkscape:document-units="px"
     inkscape:current-layer="layer1"
     showgrid="false"
     inkscape:window-width="1920"
     inkscape:window-height="1058"
     inkscape:window-x="0"
     inkscape:window-y="0"
     inkscape:window-maximized="1" />
  <metadata
     id="metadata7">
    <rdf:RDF>
      <cc:Work
         rdf:about="">
        <dc:format>image/svg+xml</dc:format>
        <dc:type
           rdf:resource="http://purl.org/dc/dcmitype/StillImage" />
        <dc:title />
      </cc:Work>
    </rdf:RDF>
  </metadata>
  <g
     inkscape:label="Layer 1"
     inkscape:groupmode="layer"
     id="layer1">
    <rect
       id="rect3336"
       width="414.47369"
       height="543.42108"
       x="160.52632"
       y="181.30957"
       style="fill-opacity:1;fill:#ffffff;stroke-width:1;stroke-miterlimit:4;stroke-dasharray:none" />
    <rect
       style="fill:#000000;fill-opacity:1;stroke-width:1;stroke-miterlimit:4;stroke-dasharray:none"
       id="rect4315"
       width="486.8421"
       height="657.89471"
       x="132.89473"
       y="190.5201" />
    <rect
       style="fill:#ffffff;fill-opacity:1;stroke-width:1;stroke-miterlimit:4;stroke-dasharray:none"
       id="rect4155"
       width="217.10527"
       height="250"
       x="179.78946"
       y="266.17798" />
    <rect
       style="fill:#ffffff;fill-opacity:1;stroke-width:1;stroke-miterlimit:4;stroke-dasharray:none"
       id="rect4159"
       width="468.42105"
       height="622.36841"
       x="140.31577"
       y="208.28326" />
    <path
       style="fill:none;fill-rule:evenodd;stroke:#000000;stroke-width:1px;stroke-linecap:butt;stroke-linejoin:miter;stroke-opacity:1"
       d="M 134.21053,193.15168 C 382.89474,43.151678 382.89474,43.151678 382.89474,43.151678 L 617.10526,186.57273 Z"
       id="path3381"
       inkscape:connector-curvature="0" />
    <path
       style="fill:#000000"
       d="m 142.96993,189.26489 c 1.08552,-0.64636 55.52521,-33.48357 120.97708,-72.9716 108.52875,-65.476907 119.24168,-71.644857 121.71052,-70.074569 1.48892,0.947014 52.88306,32.425655 114.20919,69.952539 61.32613,37.52688 111.25733,68.47542 110.95821,68.77455 -0.91786,0.91784 -339.51981,5.49126 -406.67079,5.49281 -37.66295,8.7e-4 -62.36118,-0.47293 -61.18421,-1.17373 z"
       id="path3383"
       inkscape:connector-curvature="0" />
    <path
       style="fill:none;fill-rule:evenodd;stroke:#000000;stroke-width:1px;stroke-linecap:butt;stroke-linejoin:miter;stroke-opacity:1"
       d="M 138.15789,849.73063 43.421053,960.25694 700,961.57273 615.78947,848.41484 Z"
       id="path3385"
       inkscape:connector-curvature="0" />
    <path
       style="fill:#000000"
       d="m 159.00139,958.95224 -112.258021,-0.66898 45.805387,-53.45911 45.805384,-53.4591 165.79473,-0.9038 c 91.18711,-0.49709 198.62504,-0.71681 238.75098,-0.48827 l 72.95624,0.41554 39.25026,52.63158 c 21.58764,28.94737 39.84725,53.66776 40.57691,54.93421 1.26146,2.18951 -9.13106,2.28702 -211.54862,1.98477 -117.08138,-0.17482 -263.39134,-0.6189 -325.13325,-0.98684 z"
       id="path3387"
       inkscape:connector-curvature="0" />
    <path
       style="fill:#000000"
       d="M 180.75314,995.0071 79.141626,994.6618 79.87639,962.76199 c 0.404121,-17.54488 0.962695,-32.63992 1.241276,-33.54452 0.399245,-1.29643 20.787164,-1.6388 96.271494,-1.61668 92.99975,0.0273 484.54379,3.40673 485.2517,4.18829 0.19374,0.2139 0.7837,14.74747 1.31101,32.29681 l 0.95877,31.90791 -191.27299,-0.3207 c -105.20014,-0.1764 -236.99817,-0.4761 -292.88451,-0.666 z"
       id="path3395"
       inkscape:connector-curvature="0" />
    <ellipse
       id="path3355"
       cx="238.30032"
       cy="570.26776"
       rx="32.12154"
       ry="38.198589" />
    <rect
       id="rect3362"
       width="12.154097"
       height="23.440044"
       x="235.69586"
       y="520.78326" />
    <rect
       id="rect3364"
       width="20.835594"
       height="34.72599"
       x="221.80548"
       y="529.46472" />
    <rect
       id="rect3366"
       width="22.571894"
       height="4.3407488"
       x="250.45444"
       y="540.75073" />
    <rect
       id="rect3371"
       width="29.517092"
       height="35.594139"
       x="226.14624"
       y="587.6308" />
    <rect
       id="rect3373"
       width="23.440044"
       height="1.7362995"
       x="188.8158"
       y="567.66333" />
    <rect
       id="rect3375"
       width="5.2088985"
       height="32.989689"
       x="206.1788"
       y="579.81744" />
    <ellipse
       id="path3377"
       cx="239.60254"
       cy="574.60852"
       rx="19.533369"
       ry="20.835594"
       style="fill:#999999" />
    <ellipse
       id="path3355-3"
       cx="423.00513"
       cy="403.74164"
       rx="28.268253"
       ry="33.616302"
       style="fill:#b3b3b3" />
    <rect
       id="rect3375-6"
       width="100.8489"
       height="29.032259"
       x="394.73685"
       y="412.14575" />
    <rect
       style="fill:#000000"
       id="rect3692"
       width="100"
       height="88.198753"
       x="391.44736"
       y="573.37396" />
    <rect
       style="fill:#808080"
       id="rect3694"
       width="77.639748"
       height="67.08075"
       x="405.73309"
       y="587.03857" />
    <rect
       style="fill:#1a1a1a"
       id="rect3696"
       width="49.068317"
       height="32.298134"
       x="428.71445"
       y="615.60999" />
    <rect
       style="fill:#b3b3b3"
       id="rect3698"
       width="20.496887"
       height="8.6956396"
       x="454.18027"
       y="634.24353" />
    <rect
       id="rect3375-67"
       width="113.15789"
       height="69.437798"
       x="200"
       y="307.44595" />
    <ellipse
       id="path3355-5"
       cx="212.00159"
       cy="382.88455"
       rx="1.7145141"
       ry="60.436604"
       style="fill:#ff0000" />
    <ellipse
       id="path3355-9"
       cx="296.01276"
       cy="400.02966"
       rx="1.7145141"
       ry="60.436604"
       style="fill:#ff0000" />
    <ellipse
       id="path3355-9-1"
       cx="260.8652"
       cy="423.17563"
       rx="1.7145141"
       ry="60.436604"
       style="fill:#ff0000" />
    <ellipse
       id="path3355-9-2"
       cx="238.57657"
       cy="377.741"
       rx="1.7145141"
       ry="60.436604"
       style="fill:#ff0000" />
    <circle
       style="opacity:0.6;fill:#ff0000;fill-opacity:1;stroke-width:1;stroke-miterlimit:4;stroke-dasharray:none"
       id="path4180-3-3"
       cx="252.63159"
       cy="348.41483"
       r="59.210529" />
  </g>
</svg>
