<?xml version="1.0" encoding="UTF-8" standalone="no"?>
<!-- Created with Inkscape (http://www.inkscape.org/) -->

<svg
   xmlns:osb="http://www.openswatchbook.org/uri/2009/osb"
   xmlns:dc="http://purl.org/dc/elements/1.1/"
   xmlns:cc="http://creativecommons.org/ns#"
   xmlns:rdf="http://www.w3.org/1999/02/22-rdf-syntax-ns#"
   xmlns:svg="http://www.w3.org/2000/svg"
   xmlns="http://www.w3.org/2000/svg"
   xmlns:sodipodi="http://sodipodi.sourceforge.net/DTD/sodipodi-0.dtd"
   xmlns:inkscape="http://www.inkscape.org/namespaces/inkscape"
   width="210mm"
   height="297mm"
   viewBox="0 0 744.09448819 1052.3622047"
   id="svg2"
   version="1.1"
   inkscape:version="0.91 r13725"
   sodipodi:docname="othership.svg"
   inkscape:export-filename="/home/appreciate/Dropbox (MIT)/rumor-spreading-modeling/experiments/spaceship/othership.png"
   inkscape:export-xdpi="90"
   inkscape:export-ydpi="90">
  <defs
     id="defs4">
    <linearGradient
       id="linearGradient4147"
       osb:paint="gradient">
      <stop
         style="stop-color:#000000;stop-opacity:1;"
         offset="0"
         id="stop4149" />
      <stop
         style="stop-color:#000000;stop-opacity:0;"
         offset="1"
         id="stop4151" />
    </linearGradient>
    <linearGradient
       id="linearGradient4141"
       osb:paint="solid">
      <stop
         style="stop-color:#000000;stop-opacity:1;"
         offset="0"
         id="stop4143" />
    </linearGradient>
  </defs>
  <sodipodi:namedview
     id="base"
     pagecolor="#ffffff"
     bordercolor="#666666"
     borderopacity="1.0"
     inkscape:pageopacity="0.0"
     inkscape:pageshadow="2"
     inkscape:zoom="0.76"
     inkscape:cx="389.28572"
     inkscape:cy="677.89474"
     inkscape:document-units="px"
     inkscape:current-layer="layer1"
     showgrid="false"
     inkscape:window-width="1920"
     inkscape:window-height="1058"
     inkscape:window-x="0"
     inkscape:window-y="0"
     inkscape:window-maximized="1" />
  <metadata
     id="metadata7">
    <rdf:RDF>
      <cc:Work
         rdf:about="">
        <dc:format>image/svg+xml</dc:format>
        <dc:type
           rdf:resource="http://purl.org/dc/dcmitype/StillImage" />
        <dc:title />
      </cc:Work>
    </rdf:RDF>
  </metadata>
  <g
     inkscape:label="Layer 1"
     inkscape:groupmode="layer"
     id="layer1">
    <rect
       id="rect3336"
       width="414.47369"
       height="543.42108"
       x="160.52632"
       y="181.30957"
       style="fill-opacity:1;fill:#ffffff;stroke-width:1;stroke-miterlimit:4;stroke-dasharray:none" />
    <rect
       style="fill:#000000;fill-opacity:1;stroke-width:1;stroke-miterlimit:4;stroke-dasharray:none"
       id="rect4315"
       width="486.8421"
       height="657.89471"
       x="132.89473"
       y="190.5201" />
    <rect
       style="fill:#ffffff;fill-opacity:1;stroke-width:1;stroke-miterlimit:4;stroke-dasharray:none"
       id="rect4155"
       width="217.10527"
       height="250"
       x="179.78946"
       y="266.17798" />
    <rect
       style="fill:#ffffff;fill-opacity:1;stroke-width:1;stroke-miterlimit:4;stroke-dasharray:none"
       id="rect4159"
       width="468.42105"
       height="622.36841"
       x="140.31577"
       y="208.28326"
       inkscape:export-xdpi="90"
       inkscape:export-ydpi="90" />
    <path
       style="fill:none;fill-rule:evenodd;stroke:#000000;stroke-width:1px;stroke-linecap:butt;stroke-linejoin:miter;stroke-opacity:1"
       d="M 134.21053,193.15168 C 382.89474,43.151678 382.89474,43.151678 382.89474,43.151678 L 617.10526,186.57273 Z"
       id="path3381"
       inkscape:connector-curvature="0" />
    <path
       style="fill:#000000"
       d="m 142.96993,189.26489 c 1.08552,-0.64636 55.52521,-33.48357 120.97708,-72.9716 108.52875,-65.476907 119.24168,-71.644857 121.71052,-70.074569 1.48892,0.947014 52.88306,32.425655 114.20919,69.952539 61.32613,37.52688 111.25733,68.47542 110.95821,68.77455 -0.91786,0.91784 -339.51981,5.49126 -406.67079,5.49281 -37.66295,8.7e-4 -62.36118,-0.47293 -61.18421,-1.17373 z"
       id="path3383"
       inkscape:connector-curvature="0" />
    <path
       style="fill:none;fill-rule:evenodd;stroke:#000000;stroke-width:1px;stroke-linecap:butt;stroke-linejoin:miter;stroke-opacity:1"
       d="M 138.15789,849.73063 43.421053,960.25694 700,961.57273 615.78947,848.41484 Z"
       id="path3385"
       inkscape:connector-curvature="0" />
    <path
       style="fill:#000000"
       d="m 159.00139,958.95224 -112.258021,-0.66898 45.805387,-53.45911 45.805384,-53.4591 165.79473,-0.9038 c 91.18711,-0.49709 198.62504,-0.71681 238.75098,-0.48827 l 72.95624,0.41554 39.25026,52.63158 c 21.58764,28.94737 39.84725,53.66776 40.57691,54.93421 1.26146,2.18951 -9.13106,2.28702 -211.54862,1.98477 -117.08138,-0.17482 -263.39134,-0.6189 -325.13325,-0.98684 z"
       id="path3387"
       inkscape:connector-curvature="0" />
    <path
       style="fill:#000000"
       d="M 180.75314,995.0071 79.141626,994.6618 79.87639,962.76199 c 0.404121,-17.54488 0.962695,-32.63992 1.241276,-33.54452 0.399245,-1.29643 20.787164,-1.6388 96.271494,-1.61668 92.99975,0.0273 484.54379,3.40673 485.2517,4.18829 0.19374,0.2139 0.7837,14.74747 1.31101,32.29681 l 0.95877,31.90791 -191.27299,-0.3207 c -105.20014,-0.1764 -236.99817,-0.4761 -292.88451,-0.666 z"
       id="path3395"
       inkscape:connector-curvature="0" />
    <ellipse
       id="path3355"
       cx="235.66875"
       cy="338.68884"
       rx="32.12154"
       ry="38.198589" />
    <rect
       id="rect3362"
       width="12.154097"
       height="23.440044"
       x="233.06429"
       y="289.20432" />
    <rect
       id="rect3364"
       width="20.835594"
       height="34.72599"
       x="219.1739"
       y="297.8858" />
    <rect
       id="rect3366"
       width="22.571894"
       height="4.3407488"
       x="247.82286"
       y="309.17178" />
    <rect
       id="rect3371"
       width="29.517092"
       height="35.594139"
       x="223.51466"
       y="356.05185" />
    <rect
       id="rect3373"
       width="23.440044"
       height="1.7362995"
       x="186.18422"
       y="336.08441" />
    <rect
       id="rect3375"
       width="5.2088985"
       height="32.989689"
       x="203.54723"
       y="348.23849" />
    <ellipse
       id="path3377"
       cx="236.97096"
       cy="343.0296"
       rx="19.533369"
       ry="20.835594"
       style="fill:#999999" />
    <ellipse
       id="path3355-3"
       cx="384.84723"
       cy="355.05743"
       rx="28.268253"
       ry="33.616302"
       style="fill:#b3b3b3" />
    <rect
       id="rect3375-6"
       width="100.8489"
       height="29.032259"
       x="356.57895"
       y="363.46155" />
    <rect
       id="rect3375-7"
       width="118.42104"
       height="72.667465"
       x="201.3158"
       y="464.86218" />
    <ellipse
       id="path3355-3-5"
       cx="230.02393"
       cy="514.20428"
       rx="7.1770339"
       ry="9.419857"
       style="fill:#ffd42a" />
    <ellipse
       id="path3355-356"
       cx="219.25838"
       cy="489.98181"
       rx="7.1770339"
       ry="9.419857"
       style="fill:#ffd42a" />
    <ellipse
       id="path3355-6"
       cx="292.82297"
       cy="509.71863"
       rx="7.1770339"
       ry="9.419857"
       style="fill:#ffd42a" />
    <ellipse
       id="path3355-7"
       cx="258.73206"
       cy="490.87894"
       rx="7.1770339"
       ry="9.419857"
       style="fill:#ffd42a" />
    <ellipse
       id="path3355-5"
       cx="255.14354"
       cy="519.5871"
       rx="7.1770339"
       ry="9.419857"
       style="fill:#ffd42a" />
    <ellipse
       id="path3355-35"
       cx="280.26315"
       cy="479.21625"
       rx="7.1770339"
       ry="9.419857"
       style="fill:#ffd42a" />
    <ellipse
       id="path3355-62"
       cx="308.97128"
       cy="479.21625"
       rx="7.1770339"
       ry="9.419857"
       style="fill:#ffd42a" />
    <path
       style="fill:none;fill-rule:evenodd;stroke:#000000;stroke-width:0.56231421px;stroke-linecap:butt;stroke-linejoin:miter;stroke-opacity:1"
       d="m 378.94398,435.04507 c 49.57244,88.78645 162.77516,86.56679 162.77516,86.56679 l -113.94261,2.21966 0,0.73989 -49.57244,-87.30668 z"
       id="path3665"
       inkscape:connector-curvature="0" />
    <path
       style="fill:#008000"
       d="m 405.51365,484.22299 c -12.12251,-21.45417 -21.93478,-39.11372 -21.80505,-39.24345 0.12972,-0.12972 2.61647,2.99237 5.52611,6.938 27.17012,36.84417 73.21864,61.49112 127.95797,68.4881 7.08293,0.90536 6.53049,0.94581 -19.71879,1.44371 -14.85323,0.28174 -36.6614,0.70777 -48.4626,0.94674 l -21.45673,0.43449 -22.04091,-39.00759 z"
       id="path3667"
       inkscape:connector-curvature="0" />
    <ellipse
       style="fill:#ff00ff"
       id="path3669"
       cx="449.60318"
       cy="479.43829"
       rx="15.167686"
       ry="32.555031" />
    <path
       style="fill:#000000"
       d="m 447.59513,511.15323 c -5.152,-1.37786 -9.94378,-9.81447 -11.86983,-20.89852 -1.42894,-8.22334 -1.44003,-13.35181 -0.0461,-21.34508 2.63196,-15.09277 8.83484,-23.25099 16.14384,-21.23287 7.22062,1.9937 12.35595,15.19431 12.35595,31.76153 0,13.19306 -3.07852,23.74604 -8.51238,29.1799 -2.70132,2.70132 -4.88513,3.3872 -8.07146,2.53504 z"
       id="path3671"
       inkscape:connector-curvature="0" />
    <ellipse
       style="fill:#4d4d4d"
       id="path3570"
       cx="243.74353"
       cy="647.51398"
       rx="59.216984"
       ry="12.085099" />
    <ellipse
       style="fill:#4d4d4d"
       id="path3570-7"
       cx="243.50182"
       cy="638.32935"
       rx="59.216984"
       ry="12.085099" />
    <ellipse
       style="fill:#4d4d4d"
       id="path3570-0"
       cx="241.56821"
       cy="626.7276"
       rx="59.216984"
       ry="12.085099" />
    <ellipse
       style="fill:#4d4d4d"
       id="path3570-9"
       cx="239.1512"
       cy="614.64252"
       rx="59.216984"
       ry="12.085099" />
    <ellipse
       style="fill:#4d4d4d"
       id="path3570-3"
       cx="239.1512"
       cy="602.55743"
       rx="59.216984"
       ry="12.085099" />
    <circle
       style="opacity:0.6;fill:#ff0000;fill-opacity:1;stroke-width:1;stroke-miterlimit:4;stroke-dasharray:none"
       id="path4180"
       cx="261.8421"
       cy="497.09906"
       r="59.210529" />
    <circle
       style="opacity:0.6;fill:#ff0000;fill-opacity:1;stroke-width:1;stroke-miterlimit:4;stroke-dasharray:none"
       id="path4180-3"
       cx="406.57895"
       cy="360.25693"
       r="59.210529" />
  </g>
</svg>
