<?xml version="1.0" encoding="UTF-8" standalone="no"?>
<!-- Created with Inkscape (http://www.inkscape.org/) -->

<svg
   xmlns:dc="http://purl.org/dc/elements/1.1/"
   xmlns:cc="http://creativecommons.org/ns#"
   xmlns:rdf="http://www.w3.org/1999/02/22-rdf-syntax-ns#"
   xmlns:svg="http://www.w3.org/2000/svg"
   xmlns="http://www.w3.org/2000/svg"
   xmlns:sodipodi="http://sodipodi.sourceforge.net/DTD/sodipodi-0.dtd"
   xmlns:inkscape="http://www.inkscape.org/namespaces/inkscape"
   width="210mm"
   height="297mm"
   viewBox="0 0 744.09448819 1052.3622047"
   id="svg3347"
   version="1.1"
   inkscape:version="0.91 r13725"
   sodipodi:docname="crazymax.svg"
   inkscape:export-filename="/home/appreciate/Dropbox (MIT)/rumor-spreading-modeling/experiments/spaceship/crazymax.png"
   inkscape:export-xdpi="90"
   inkscape:export-ydpi="90">
  <defs
     id="defs3349" />
  <sodipodi:namedview
     id="base"
     pagecolor="#ffffff"
     bordercolor="#666666"
     borderopacity="1.0"
     inkscape:pageopacity="0.0"
     inkscape:pageshadow="2"
     inkscape:zoom="0.76"
     inkscape:cx="153.28947"
     inkscape:cy="520"
     inkscape:document-units="px"
     inkscape:current-layer="layer1"
     showgrid="false"
     inkscape:window-width="1920"
     inkscape:window-height="1058"
     inkscape:window-x="0"
     inkscape:window-y="0"
     inkscape:window-maximized="1" />
  <metadata
     id="metadata3352">
    <rdf:RDF>
      <cc:Work
         rdf:about="">
        <dc:format>image/svg+xml</dc:format>
        <dc:type
           rdf:resource="http://purl.org/dc/dcmitype/StillImage" />
        <dc:title />
      </cc:Work>
    </rdf:RDF>
  </metadata>
  <g
     inkscape:label="Layer 1"
     inkscape:groupmode="layer"
     id="layer1">
    <ellipse
       style="fill:#4d4d4d"
       id="path3570-9"
       cx="355.26318"
       cy="436.57272"
       rx="90.131569"
       ry="82.894737" />
    <path
       sodipodi:type="spiral"
       style="fill:none;fill-rule:evenodd;stroke:#000000;stroke-width:1px;stroke-linecap:butt;stroke-linejoin:miter;stroke-opacity:1"
       id="path3628"
       sodipodi:cx="394.73685"
       sodipodi:cy="427.36221"
       sodipodi:expansion="1"
       sodipodi:revolution="3"
       sodipodi:radius="72.475998"
       sodipodi:argument="-17.002954"
       sodipodi:t0="0"
       d="m 394.73685,427.36221 c -0.98957,3.4965 -5.20143,0.39113 -5.81141,-1.64473 -1.65301,-5.51705 4.19271,-9.81917 9.10087,-9.97808 8.77955,-0.28424 14.68857,8.41596 14.14475,16.55701 -0.79807,11.94731 -12.67933,19.65475 -24.01314,18.31142 -15.10619,-1.79045 -24.65933,-16.95469 -22.4781,-31.46928 2.74486,-18.26513 21.23522,-29.68318 38.92542,-26.64477 21.42521,3.67993 34.7181,25.51854 30.81144,46.38156 -4.60385,24.58634 -29.80359,39.75993 -53.83769,34.97811 -27.74832,-5.52079 -44.80639,-34.08979 -39.14479,-61.29383 6.43307,-30.91095 38.37682,-49.85607 68.74997,-43.31146 34.07409,7.34207 54.90812,42.66444 47.47813,76.20611 -8.2487,37.23761 -46.95251,59.96193 -83.66224,51.6448" />
    <path
       sodipodi:type="spiral"
       style="fill:none;fill-rule:evenodd;stroke:#000000;stroke-width:1px;stroke-linecap:butt;stroke-linejoin:miter;stroke-opacity:1"
       id="path3630"
       sodipodi:cx="430.26315"
       sodipodi:cy="381.30957"
       sodipodi:expansion="1"
       sodipodi:revolution="3"
       sodipodi:radius="72.559555"
       sodipodi:argument="-15.780562"
       sodipodi:t0="0"
       d="m 430.26315,381.30957 c -3.62843,0.26389 -2.14585,-4.76087 -0.43859,-6.0307 4.62657,-3.44117 10.6729,0.58923 12.5,5.15351 3.26825,8.16443 -2.89901,16.69849 -10.74562,18.9693 -11.51523,3.3325 -22.82887,-5.21345 -25.43859,-16.33773 -3.47836,-14.82692 7.52604,-28.99947 21.92983,-31.90789 18.1257,-3.65995 35.18997,9.83692 38.37718,27.52194 3.86014,21.41894 -12.14664,41.39184 -33.11405,44.84648 -24.70936,4.07118 -47.60081,-14.45562 -51.31577,-38.70615 -4.28907,-27.9982 16.76411,-53.81453 44.29826,-57.78508 31.28605,-4.51158 60.03157,19.07227 64.25437,49.89037 4.73734,34.57326 -21.38018,66.25103 -55.48248,70.72367 -37.86001,4.96547 -72.4723,-23.68791 -77.19296,-61.07459" />
    <path
       sodipodi:type="spiral"
       style="fill:none;fill-rule:evenodd;stroke:#000000;stroke-width:1px;stroke-linecap:butt;stroke-linejoin:miter;stroke-opacity:1"
       id="path3632"
       sodipodi:cx="405.26315"
       sodipodi:cy="397.09906"
       sodipodi:expansion="1"
       sodipodi:revolution="3"
       sodipodi:radius="101.17899"
       sodipodi:argument="-16.066734"
       sodipodi:t0="0"
       d="m 405.26315,397.09906 c -4.74995,1.78123 -4.74453,-5.52404 -2.96053,-7.89474 4.83453,-6.42442 14.50926,-3.41285 18.75,1.97368 7.5857,9.63525 2.69484,23.47897 -6.90788,29.60527 -14.09237,8.99059 -32.5907,2.01181 -40.46053,-11.84209 -10.48925,-18.46508 -1.34709,-41.75551 16.7763,-51.3158 22.80643,-12.03065 50.94626,-0.69251 62.17106,21.7105 13.59473,27.13306 0.0439,60.15178 -26.64471,73.02633 -31.45165,15.17222 -69.36649,-0.60084 -83.88159,-31.57892 -16.75826,-35.76541 1.24309,-78.58736 36.51312,-94.73685 40.07604,-18.35009 87.81254,1.88359 105.59212,41.44733 19.946,44.38453 -2.52281,97.04086 -46.38153,116.44738 -48.6915,21.54492 -106.27155,-3.16108 -127.30266,-51.31574" />
    <path
       sodipodi:type="spiral"
       style="fill:none;fill-rule:evenodd;stroke:#000000;stroke-width:1px;stroke-linecap:butt;stroke-linejoin:miter;stroke-opacity:1"
       id="path3634"
       sodipodi:cx="313.1579"
       sodipodi:cy="443.15167"
       sodipodi:expansion="1"
       sodipodi:revolution="3"
       sodipodi:radius="125.88331"
       sodipodi:argument="-16.559929"
       sodipodi:t0="0.056468047"
       d="m 306.2093,441.65296 c -4.3889,-7.2923 4.02722,-14.70028 10.65906,-15.70435 13.35857,-2.02249 23.48778,10.77452 23.74706,23.12527 0.39875,18.99385 -17.60742,32.52798 -35.59148,31.78978 -24.58256,-1.00904 -41.65668,-24.46423 -39.8325,-48.05769 2.33219,-30.16386 31.32982,-50.82712 60.52391,-47.87522 35.74432,3.61421 60.02059,38.19977 55.91794,72.99012 -4.87329,41.32527 -45.07231,69.22813 -85.45634,63.96066 -46.90692,-6.11829 -78.44488,-51.94654 -72.00337,-97.92255 7.35405,-52.48922 58.82193,-87.668 110.38876,-80.04609 58.07206,8.58342 96.89569,65.69818 88.08881,122.85497 -9.8082,63.65535 -72.57509,106.12679 -135.32119,96.13153 -20.76652,-3.30805 -40.53635,-12.02642 -57.06687,-25.01093" />
    <path
       sodipodi:type="spiral"
       style="fill:none;fill-rule:evenodd;stroke:#000000;stroke-width:1px;stroke-linecap:butt;stroke-linejoin:miter;stroke-opacity:1"
       id="path3636"
       sodipodi:cx="242.10527"
       sodipodi:cy="394.46747"
       sodipodi:expansion="1"
       sodipodi:revolution="3"
       sodipodi:radius="74.919159"
       sodipodi:argument="-18.315161"
       sodipodi:t0="0.056467999"
       d="m 241.98685,398.69635 c -3.78735,3.36366 -9.04001,-0.75167 -10.35127,-4.52206 -2.6413,-7.59474 3.74008,-14.91761 10.93763,-16.41733 11.0689,-2.30639 20.95239,6.751 22.48339,17.35321 2.09273,14.49225 -9.76625,27.04157 -23.76879,28.54944 -17.90203,1.9278 -33.15611,-12.78207 -34.6155,-30.18437 -1.78683,-21.30682 15.79793,-39.28461 36.59995,-40.68155 24.7094,-1.65934 45.42162,18.81378 46.74761,43.01552 1.54016,28.11086 -21.8296,51.56422 -49.43111,52.81367 -31.51168,1.42646 -57.71065,-24.84541 -58.87972,-55.84668 -1.31655,-34.91212 27.86123,-63.85986 62.26226,-64.94578 38.31232,-1.20938 70.01113,30.87705 71.01183,68.67784 0.3312,12.51061 -2.61174,25.02862 -8.40417,36.11708" />
    <path
       sodipodi:type="spiral"
       style="fill:none;fill-rule:evenodd;stroke:#000000;stroke-width:1px;stroke-linecap:butt;stroke-linejoin:miter;stroke-opacity:1"
       id="path3638"
       sodipodi:cx="277.63159"
       sodipodi:cy="544.46747"
       sodipodi:expansion="1"
       sodipodi:revolution="3"
       sodipodi:radius="110.93284"
       sodipodi:argument="-20.031036"
       sodipodi:t0="0.056467999"
       d="m 283.85286,543.73571 c 5.739,4.82898 0.83386,13.40583 -4.40961,16.13414 -10.56198,5.49566 -22.65708,-2.28641 -26.39515,-12.51083 -5.74866,-15.72383 5.406,-32.14344 20.61204,-36.65615 20.78527,-6.16847 41.71044,8.52028 46.91717,28.71325 6.65672,25.81639 -11.62999,51.31471 -36.81447,57.17817 -30.83509,7.17904 -60.93945,-14.73675 -67.43919,-44.91568 -7.72062,-35.84765 17.84168,-70.57665 53.0169,-77.70019 40.85678,-8.27415 80.22202,20.94537 87.9612,61.11811 8.83556,45.86382 -24.04823,89.87303 -69.21932,98.22221 -50.86949,9.40244 -99.5281,-27.1505 -108.48322,-77.32053 -9.97329,-55.87423 30.25233,-109.1862 85.42175,-118.74424 18.25896,-3.16334 37.22964,-1.53119 54.71581,4.58188" />
    <path
       sodipodi:type="spiral"
       style="fill:none;fill-rule:evenodd;stroke:#000000;stroke-width:1px;stroke-linecap:butt;stroke-linejoin:miter;stroke-opacity:1"
       id="path3640"
       sodipodi:cx="380.26315"
       sodipodi:cy="465.52011"
       sodipodi:expansion="1"
       sodipodi:revolution="3"
       sodipodi:radius="83.643234"
       sodipodi:argument="-16.942085"
       sodipodi:t0="0.056467999"
       d="m 375.60785,466.31791 c -4.51278,-3.40831 -1.15971,-10.06089 2.68015,-12.32321 7.73465,-4.55702 17.15045,0.82267 20.37068,8.37289 4.9523,11.61126 -2.79523,24.41703 -14.06565,28.41817 -15.40563,5.46919 -31.74408,-4.7606 -36.46564,-19.75841 -6.03643,-19.17447 6.72102,-39.09904 25.45117,-44.51311 22.93259,-6.62882 46.46928,8.67843 52.56058,31.14392 7.23548,26.68534 -10.63395,53.84884 -36.83667,60.60806 -30.43504,7.85098 -61.2345,-12.58824 -68.65554,-42.52944 -8.47234,-34.18283 14.54166,-68.62437 48.22219,-76.70301 37.92938,-9.09777 76.01727,16.49448 84.75048,53.91495 9.72615,41.67507 -18.44685,83.41244 -59.6077,92.79796 -13.62267,3.10625 -27.97148,2.62994 -41.38029,-1.27919" />
    <path
       sodipodi:type="spiral"
       style="fill:none;fill-rule:evenodd;stroke:#000000;stroke-width:1px;stroke-linecap:butt;stroke-linejoin:miter;stroke-opacity:1"
       id="path3642"
       sodipodi:cx="385.52631"
       sodipodi:cy="568.15167"
       sodipodi:expansion="1"
       sodipodi:revolution="3"
       sodipodi:radius="75"
       sodipodi:argument="-15.707963"
       sodipodi:t0="0.056467999"
       d="m 383.47215,564.44809 c 1.54779,-4.82887 8.17127,-3.96166 11.22334,-1.38202 6.14782,5.19618 4.38394,14.75855 -1.05213,19.72039 -8.35997,7.63066 -21.49273,4.86697 -28.21745,-3.48629 -9.19206,-11.41813 -5.374,-28.27597 5.92045,-36.71449 14.43977,-10.78852 35.08136,-5.89348 45.21155,8.3546 12.40307,17.44489 6.42003,41.8988 -10.78876,53.7086 -20.44124,14.02811 -48.72356,6.95094 -62.20565,-13.22292 -15.65974,-23.43237 -7.48472,-55.55311 15.65707,-70.7027 26.42018,-17.29576 62.38598,-8.02047 79.19975,18.09123 18.93486,29.40572 8.55762,69.22123 -20.52538,87.6968 -32.38966,20.57619 -76.05826,9.09582 -96.19386,-22.95953 -6.66411,-10.6091 -10.51131,-22.89396 -11.17477,-35.40011" />
  </g>
</svg>
