<?xml version="1.0" encoding="UTF-8" standalone="no"?>
<!-- Created with Inkscape (http://www.inkscape.org/) -->

<svg
   xmlns:dc="http://purl.org/dc/elements/1.1/"
   xmlns:cc="http://creativecommons.org/ns#"
   xmlns:rdf="http://www.w3.org/1999/02/22-rdf-syntax-ns#"
   xmlns:svg="http://www.w3.org/2000/svg"
   xmlns="http://www.w3.org/2000/svg"
   xmlns:sodipodi="http://sodipodi.sourceforge.net/DTD/sodipodi-0.dtd"
   xmlns:inkscape="http://www.inkscape.org/namespaces/inkscape"
   width="200"
   height="200"
   viewBox="0 0 199.99999 199.99999"
   id="svg6522"
   version="1.1"
   inkscape:version="0.91 r13725"
   sodipodi:docname="set-3-part-8-icon.svg"
   inkscape:export-filename="/home/appreciate/Dropbox (MIT)/rumor-spreading-modeling/experiments/spaceship/set-3-part-8-icon.png"
   inkscape:export-xdpi="90"
   inkscape:export-ydpi="90">
  <defs
     id="defs6524">
    <inkscape:perspective
       sodipodi:type="inkscape:persp3d"
       inkscape:vp_x="-350.73697 : -63.083392 : 1"
       inkscape:vp_y="0 : 1508.9024 : 0"
       inkscape:vp_z="772.02898 : -63.083392 : 1"
       inkscape:persp3d-origin="210.64601 : -327.73537 : 1"
       id="perspective4787" />
    <inkscape:perspective
       sodipodi:type="inkscape:persp3d"
       inkscape:vp_x="-647.15183 : -109.77237 : 1"
       inkscape:vp_y="0 : 938.84263 : 0"
       inkscape:vp_z="51.435783 : -109.77237 : 1"
       inkscape:persp3d-origin="-297.85804 : -274.43945 : 1"
       id="perspective4787-3" />
  </defs>
  <sodipodi:namedview
     id="base"
     pagecolor="#ffffff"
     bordercolor="#666666"
     borderopacity="1.0"
     inkscape:pageopacity="0.0"
     inkscape:pageshadow="2"
     inkscape:zoom="1.979899"
     inkscape:cx="70.476725"
     inkscape:cy="46.344226"
     inkscape:document-units="px"
     inkscape:current-layer="layer1"
     showgrid="false"
     inkscape:snap-nodes="false"
     units="px"
     inkscape:window-width="1920"
     inkscape:window-height="1058"
     inkscape:window-x="0"
     inkscape:window-y="0"
     inkscape:window-maximized="1" />
  <metadata
     id="metadata6527">
    <rdf:RDF>
      <cc:Work
         rdf:about="">
        <dc:format>image/svg+xml</dc:format>
        <dc:type
           rdf:resource="http://purl.org/dc/dcmitype/StillImage" />
        <dc:title></dc:title>
      </cc:Work>
    </rdf:RDF>
  </metadata>
  <g
     inkscape:label="Layer 1"
     inkscape:groupmode="layer"
     id="layer1"
     transform="translate(0,-852.36223)">
    <path
       style="fill:none;fill-rule:evenodd;stroke:#000000;stroke-width:1.19892228px;stroke-linecap:butt;stroke-linejoin:miter;stroke-opacity:1"
       d="m 70.03454,938.64554 c -1.577529,52.05839 -56.791052,52.05839 -1.577529,52.05839 55.213519,0 63.101169,45.74837 55.213519,0 -7.88765,-45.74834 39.43823,-42.59326 -9.46518,-45.74834 -48.903399,-3.15508 -11.04271,-26.81797 -11.04271,-26.81797 0,0 77.29894,-93.07424 39.43823,-23.66296 -37.8607,69.4113 -7.88763,14.19777 -7.88763,14.19777"
       id="path8062"
       inkscape:connector-curvature="0" />
    <path
       style="opacity:1;fill:none;fill-opacity:1;stroke:#000000;stroke-width:1.19892228;stroke-miterlimit:4;stroke-dasharray:none;stroke-opacity:1"
       id="path8078"
       d="m 57.353156,1002.7525 c 7.401175,0.1612 14.805191,0.1423 22.207649,0.1115 4.814236,-0.1748 9.531576,-0.2008 14.252128,0.7828 1.598463,0.5966 3.748239,1.4099 5.09711,2.5011 1.464987,0.8278 2.604047,2.0058 4.249057,2.4579 2.68695,1.6065 5.5987,2.6623 8.55067,3.6842 3.68793,1.6673 7.46139,3.1233 11.19297,4.704 1.32934,0.6728 2.61356,1.4271 3.89077,2.1923 0,0 -19.71389,12.7428 -19.71389,12.7428 l 0,0 c -1.17384,-0.72 -2.3559,-1.4302 -3.62548,-1.9741 -3.672444,-1.5923 -7.381934,-3.1182 -11.098293,-4.5938 -2.973075,-1.0941 -5.877309,-2.2902 -8.723862,-3.674 -1.607455,-0.8042 -3.012112,-1.919 -4.546181,-2.8528 -1.476329,-0.6762 -2.869129,-1.5604 -4.503799,-1.7847 -4.510202,-0.8533 -9.085997,-0.5863 -13.656792,-0.6461 -7.505265,-0.031 -15.011921,-0.046 -22.515975,0.1115 0,0 18.943918,-13.7635 18.943918,-13.7635 z"
       inkscape:connector-curvature="0" />
  </g>
</svg>
