<?xml version="1.0" encoding="UTF-8" standalone="no"?>
<!-- Created with Inkscape (http://www.inkscape.org/) -->

<svg
   xmlns:osb="http://www.openswatchbook.org/uri/2009/osb"
   xmlns:dc="http://purl.org/dc/elements/1.1/"
   xmlns:cc="http://creativecommons.org/ns#"
   xmlns:rdf="http://www.w3.org/1999/02/22-rdf-syntax-ns#"
   xmlns:svg="http://www.w3.org/2000/svg"
   xmlns="http://www.w3.org/2000/svg"
   xmlns:xlink="http://www.w3.org/1999/xlink"
   xmlns:sodipodi="http://sodipodi.sourceforge.net/DTD/sodipodi-0.dtd"
   xmlns:inkscape="http://www.inkscape.org/namespaces/inkscape"
   width="210mm"
   height="297mm"
   viewBox="0 0 744.09448819 1052.3622047"
   id="svg2"
   version="1.1"
   inkscape:version="0.91 r13725"
   sodipodi:docname="set-3-part-3-failed.svg"
   inkscape:export-filename="/home/appreciate/Dropbox (MIT)/rumor-spreading-modeling/experiments/spaceship/set-3-part-3.png"
   inkscape:export-xdpi="90"
   inkscape:export-ydpi="90">
  <defs
     id="defs4">
    <inkscape:perspective
       sodipodi:type="inkscape:persp3d"
       inkscape:vp_x="-1069.7368 : 76.181093 : 1"
       inkscape:vp_y="0 : 1000 : 0"
       inkscape:vp_z="-325.64236 : 76.181093 : 1"
       inkscape:persp3d-origin="-697.68961 : -99.212608 : 1"
       id="perspective4787" />
    <linearGradient
       id="linearGradient4147"
       osb:paint="gradient">
      <stop
         style="stop-color:#000000;stop-opacity:1;"
         offset="0"
         id="stop4149" />
      <stop
         style="stop-color:#000000;stop-opacity:0;"
         offset="1"
         id="stop4151" />
    </linearGradient>
    <linearGradient
       id="linearGradient4141"
       osb:paint="solid">
      <stop
         style="stop-color:#000000;stop-opacity:1;"
         offset="0"
         id="stop4143" />
    </linearGradient>
  </defs>
  <sodipodi:namedview
     id="base"
     pagecolor="#ffffff"
     bordercolor="#666666"
     borderopacity="1.0"
     inkscape:pageopacity="0.0"
     inkscape:pageshadow="2"
     inkscape:zoom="0.76"
     inkscape:cx="242.57519"
     inkscape:cy="416.2662"
     inkscape:document-units="px"
     inkscape:current-layer="layer3"
     showgrid="false"
     inkscape:window-width="1920"
     inkscape:window-height="1058"
     inkscape:window-x="0"
     inkscape:window-y="0"
     inkscape:window-maximized="1" />
  <metadata
     id="metadata7">
    <rdf:RDF>
      <cc:Work
         rdf:about="">
        <dc:format>image/svg+xml</dc:format>
        <dc:type
           rdf:resource="http://purl.org/dc/dcmitype/StillImage" />
        <dc:title></dc:title>
      </cc:Work>
    </rdf:RDF>
  </metadata>
  <g
     inkscape:label="Layer 1"
     inkscape:groupmode="layer"
     id="layer1">
    <path
       style="fill:none;fill-rule:evenodd;stroke:#000000;stroke-width:1px;stroke-linecap:butt;stroke-linejoin:miter;stroke-opacity:1"
       d="m 134.21053,247.15168 c 248.68421,-150 248.68421,-150 248.68421,-150 l 234.21052,143.42105 z"
       id="path3381"
       inkscape:connector-curvature="0" />
    <path
       style="fill:#000000"
       d="m 142.96993,243.26489 c 1.08552,-0.64636 55.52521,-33.48357 120.97708,-72.9716 108.52875,-65.47691 119.24168,-71.64486 121.71052,-70.07457 1.48892,0.94702 52.88306,32.42566 114.20919,69.95254 61.32613,37.52688 111.25733,68.47542 110.95821,68.77455 -0.91786,0.91784 -339.51981,5.49126 -406.67079,5.49281 -37.66295,8.7e-4 -62.36118,-0.47293 -61.18421,-1.17373 z"
       id="path3383"
       inkscape:connector-curvature="0" />
    <path
       style="fill:none;fill-rule:evenodd;stroke:#000000;stroke-width:1px;stroke-linecap:butt;stroke-linejoin:miter;stroke-opacity:1"
       d="M 138.15789,903.73063 43.421053,1014.2569 700,1015.5727 615.78947,902.41484 Z"
       id="path3385"
       inkscape:connector-curvature="0" />
    <path
       style="fill:#000000"
       d="m 159.00139,1012.9522 -112.258021,-0.6689 45.805387,-53.45915 45.805384,-53.4591 165.79473,-0.9038 c 91.18711,-0.49709 198.62504,-0.71681 238.75098,-0.48827 l 72.95624,0.41554 39.25026,52.63158 c 21.58764,28.94737 39.84725,53.6678 40.57691,54.9342 1.26146,2.1895 -9.13106,2.287 -211.54862,1.9848 -117.08138,-0.1748 -263.39134,-0.6189 -325.13325,-0.9869 z"
       id="path3387"
       inkscape:connector-curvature="0" />
    <path
       style="fill:#000000"
       d="m 180.75314,1049.0071 -101.611514,-0.3453 0.734764,-31.8998 c 0.404121,-17.5449 0.962695,-32.63993 1.241276,-33.54453 0.399245,-1.29643 20.787164,-1.6388 96.271494,-1.61668 92.99975,0.0273 484.54379,3.40673 485.2517,4.18829 0.19374,0.2139 0.7837,14.74752 1.31101,32.29682 l 0.95877,31.9079 -191.27299,-0.3207 c -105.20014,-0.1764 -236.99817,-0.4761 -292.88451,-0.666 z"
       id="path3395"
       inkscape:connector-curvature="0" />
    <flowRoot
       xml:space="preserve"
       id="flowRoot3361"
       style="fill:black;stroke:none;stroke-opacity:1;stroke-width:1px;stroke-linejoin:miter;stroke-linecap:butt;fill-opacity:1;font-family:sans-serif;font-style:normal;font-weight:normal;font-size:15px;line-height:125%;letter-spacing:0px;word-spacing:0px"><flowRegion
         id="flowRegion3363"><rect
           id="rect3365"
           width="15.789474"
           height="27.631578"
           x="78.947365"
           y="16.83589" /></flowRegion><flowPara
         id="flowPara3367"></flowPara></flowRoot>    <flowRoot
       xml:space="preserve"
       id="flowRoot3369"
       style="fill:black;stroke:none;stroke-opacity:1;stroke-width:1px;stroke-linejoin:miter;stroke-linecap:butt;fill-opacity:1;font-family:sans-serif;font-style:normal;font-weight:normal;font-size:15px;line-height:125%;letter-spacing:0px;word-spacing:0px"><flowRegion
         id="flowRegion3371"><rect
           id="rect3373"
           width="26.31579"
           height="38.157894"
           x="92.105263"
           y="24.730625" /></flowRegion><flowPara
         id="flowPara3375"></flowPara></flowRoot>    <rect
       style="opacity:1;fill:none;fill-opacity:1;stroke:#000000;stroke-width:4.9187355;stroke-miterlimit:4;stroke-dasharray:none;stroke-opacity:1"
       id="rect4346"
       width="480.34445"
       height="650.08136"
       x="134.16991"
       y="248.37421" />
  </g>
  <g
     inkscape:groupmode="layer"
     id="layer2"
     inkscape:label="Layer 2">
    <path
       style="fill:none;fill-rule:evenodd;stroke:#000000;stroke-width:0.5799948px;stroke-linecap:butt;stroke-linejoin:miter;stroke-opacity:1"
       d="m -371.0693,308.17405 c 34.378,-16.0962 7.41492,-63.21127 34.378,-16.0962 26.96308,47.11507 54.68796,60.09619 26.96308,47.11507 -27.72488,-12.98112 -16.31026,-44.13328 -16.31026,-44.13328 l -1.15464,-23.20244"
       id="path7327"
       inkscape:connector-curvature="0" />
    <rect
       style="opacity:1;fill:#000000;fill-opacity:1;stroke:#000000;stroke-width:3;stroke-miterlimit:4;stroke-dasharray:none;stroke-opacity:1"
       id="rect7329"
       width="19.736841"
       height="25"
       x="-392.10526"
       y="291.83588" />
    <path
       sodipodi:type="star"
       style="opacity:1;fill:#008000;fill-opacity:1;stroke:#000000;stroke-width:3;stroke-miterlimit:4;stroke-dasharray:none;stroke-opacity:1"
       id="path7371"
       sodipodi:sides="5"
       sodipodi:cx="-367.10528"
       sodipodi:cy="370.78326"
       sodipodi:r1="16.747267"
       sodipodi:r2="16.355295"
       sodipodi:arg1="0.78539816"
       sodipodi:arg2="1.4137167"
       inkscape:flatsided="false"
       inkscape:rounded="0"
       inkscape:randomized="0"
       d="m -355.26318,382.62537 -9.28357,4.31183 -10.16164,-1.23201 -6.96957,-7.49678 -1.96841,-10.045 4.97614,-8.94509 8.94509,-4.97614 10.045,1.96841 7.49678,6.96957 1.23201,10.16164 z"
       inkscape:transform-center-x="0.19357198"
       inkscape:transform-center-y="-0.19357198" />
    <path
       sodipodi:type="spiral"
       style="fill:none;fill-rule:evenodd;stroke:#000000;stroke-width:1px;stroke-linecap:butt;stroke-linejoin:miter;stroke-opacity:1"
       id="path7381"
       sodipodi:cx="-347.36844"
       sodipodi:cy="404.99377"
       sodipodi:expansion="1"
       sodipodi:revolution="2.86151"
       sodipodi:radius="34.311592"
       sodipodi:argument="-20.554262"
       sodipodi:t0="0.162862"
       d="m -345.46627,410.24812 c -3.23503,2.59702 -7.92076,0.90138 -9.97517,-2.33176 -3.07092,-4.83288 -0.62036,-11.15318 4.13001,-13.81425 6.39589,-3.58286 14.40684,-0.34616 17.65332,5.92826 4.11167,7.94656 0.0757,17.67061 -7.72652,21.4924 -9.49157,4.64927 -20.94002,-0.19248 -25.33147,-9.52478 -5.192,-11.03356 0.45929,-24.21292 11.32303,-29.17054 12.57377,-5.73798 27.48815,0.72519 33.00962,13.12128 6.28613,14.11283 -0.99044,30.76498 -14.91954,36.84869 -15.65109,6.83581 -34.04298,-1.25524 -40.68776,-16.71779 -4.07213,-9.47594 -3.35825,-20.53334 1.67493,-29.50688" />
    <rect
       style="opacity:1;fill:#00ff00;fill-opacity:1;stroke:#000000;stroke-width:1.54645002;stroke-miterlimit:4;stroke-dasharray:none;stroke-opacity:1"
       id="rect7491"
       width="18.061995"
       height="50.889938"
       x="529.34601"
       y="776.9455" />
    <use
       id="use7607"
       xlink:href="#rect7491"
       x="0"
       y="0"
       width="100%"
       height="100%"
       transform="translate(21.062357,-0.61535474)" />
    <use
       id="use7609"
       xlink:href="#rect7491"
       x="0"
       y="0"
       width="100%"
       height="100%"
       transform="translate(17.650854,20.204735)" />
    <use
       id="use7611"
       xlink:href="#rect7491"
       x="0"
       y="0"
       width="100%"
       height="100%"
       transform="translate(18.25533,13.676835)" />
    <use
       id="use7613"
       xlink:href="#rect7491"
       x="0"
       y="0"
       width="100%"
       height="100%"
       transform="translate(-0.27830195,17.796815)" />
    <use
       id="use7615"
       xlink:href="#rect7491"
       x="0"
       y="0"
       width="100%"
       height="100%"
       transform="translate(0.05591105,24.213875)" />
    <use
       id="use7617"
       xlink:href="#rect7491"
       x="0"
       y="0"
       width="100%"
       height="100%"
       transform="translate(5.7810561,-7.1377447)" />
    <use
       id="use7619"
       xlink:href="#rect7491"
       x="0"
       y="0"
       width="100%"
       height="100%"
       transform="translate(8.0966261,-9.8293347)" />
    <use
       id="use7621"
       xlink:href="#rect7491"
       x="0"
       y="0"
       width="100%"
       height="100%"
       transform="translate(-22.710917,-6.5238147)" />
    <use
       id="use7623"
       xlink:href="#rect7491"
       x="0"
       y="0"
       width="100%"
       height="100%"
       transform="translate(-12.011918,15.693515)" />
    <use
       id="use7625"
       xlink:href="#rect7491"
       x="0"
       y="0"
       width="100%"
       height="100%"
       transform="translate(-1.8756259,-22.711315)" />
    <use
       id="use7627"
       xlink:href="#rect7491"
       x="0"
       y="0"
       width="100%"
       height="100%"
       transform="translate(-11.069432,-5.6397147)" />
    <use
       id="use7629"
       xlink:href="#rect7491"
       x="0"
       y="0"
       width="100%"
       height="100%"
       transform="translate(4.1600241,2.9711853)" />
    <use
       id="use7631"
       xlink:href="#rect7491"
       x="0"
       y="0"
       width="100%"
       height="100%"
       transform="translate(-14.714951,9.9204353)" />
    <use
       id="use7633"
       xlink:href="#rect7491"
       x="0"
       y="0"
       width="100%"
       height="100%"
       transform="translate(-24.69167,-10.592905)" />
    <use
       id="use7635"
       xlink:href="#rect7491"
       x="0"
       y="0"
       width="100%"
       height="100%"
       transform="translate(-2.7811399,17.612935)" />
    <use
       id="use7637"
       xlink:href="#rect7491"
       x="0"
       y="0"
       width="100%"
       height="100%"
       transform="translate(0.15083905,7.8400353)" />
    <use
       id="use7639"
       xlink:href="#rect7491"
       x="0"
       y="0"
       width="100%"
       height="100%"
       transform="translate(4.8796701,0.23812526)" />
    <use
       id="use7641"
       xlink:href="#rect7491"
       x="0"
       y="0"
       width="100%"
       height="100%"
       transform="translate(-2.0126999,22.100635)" />
    <use
       id="use7643"
       xlink:href="#rect7491"
       x="0"
       y="0"
       width="100%"
       height="100%"
       transform="translate(13.021002,10.147745)" />
    <use
       id="use7645"
       xlink:href="#rect7491"
       x="0"
       y="0"
       width="100%"
       height="100%"
       transform="translate(12.090922,-4.3545147)" />
    <use
       id="use7647"
       xlink:href="#rect7491"
       x="0"
       y="0"
       width="100%"
       height="100%"
       transform="translate(2.3527851,-14.269125)" />
    <use
       id="use7649"
       xlink:href="#rect7491"
       x="0"
       y="0"
       width="100%"
       height="100%"
       transform="translate(-14.282489,-20.685575)" />
    <use
       id="use7651"
       xlink:href="#rect7491"
       x="0"
       y="0"
       width="100%"
       height="100%"
       transform="translate(-20.376006,7.8593453)" />
    <use
       id="use7653"
       xlink:href="#rect7491"
       x="0"
       y="0"
       width="100%"
       height="100%"
       transform="translate(17.474755,16.452785)" />
    <use
       id="use7655"
       xlink:href="#rect7491"
       x="0"
       y="0"
       width="100%"
       height="100%"
       transform="translate(0.24810305,10.534985)" />
    <use
       id="use7657"
       xlink:href="#rect7491"
       x="0"
       y="0"
       width="100%"
       height="100%"
       transform="translate(-2.6788799,21.436605)" />
    <use
       id="use7659"
       xlink:href="#rect7491"
       x="0"
       y="0"
       width="100%"
       height="100%"
       transform="translate(1.2798241,10.084805)" />
  </g>
  <g
     inkscape:groupmode="layer"
     id="layer3"
     inkscape:label="Layer 3">
    <circle
       style="opacity:0.6;fill:#ff0000;fill-opacity:1;stroke-width:1;stroke-miterlimit:4;stroke-dasharray:none"
       id="path3478"
       cx="538.73669"
       cy="800.20453"
       r="56.578949" />
  </g>
</svg>
