<?xml version="1.0" encoding="UTF-8" standalone="no"?>
<!-- Created with Inkscape (http://www.inkscape.org/) -->

<svg
   xmlns:dc="http://purl.org/dc/elements/1.1/"
   xmlns:cc="http://creativecommons.org/ns#"
   xmlns:rdf="http://www.w3.org/1999/02/22-rdf-syntax-ns#"
   xmlns:svg="http://www.w3.org/2000/svg"
   xmlns="http://www.w3.org/2000/svg"
   xmlns:sodipodi="http://sodipodi.sourceforge.net/DTD/sodipodi-0.dtd"
   xmlns:inkscape="http://www.inkscape.org/namespaces/inkscape"
   width="200"
   height="200"
   viewBox="0 0 199.99999 199.99999"
   id="svg6522"
   version="1.1"
   inkscape:version="0.91 r13725"
   sodipodi:docname="set-3-part-4-icon.svg"
   inkscape:export-filename="/home/appreciate/Dropbox (MIT)/rumor-spreading-modeling/experiments/spaceship/set-3-part-3-icon.png"
   inkscape:export-xdpi="90"
   inkscape:export-ydpi="90">
  <defs
     id="defs6524">
    <inkscape:perspective
       sodipodi:type="inkscape:persp3d"
       inkscape:vp_x="-350.73697 : -63.083392 : 1"
       inkscape:vp_y="0 : 1508.9024 : 0"
       inkscape:vp_z="772.02898 : -63.083392 : 1"
       inkscape:persp3d-origin="210.64601 : -327.73537 : 1"
       id="perspective4787" />
    <inkscape:perspective
       sodipodi:type="inkscape:persp3d"
       inkscape:vp_x="-647.15183 : -109.77237 : 1"
       inkscape:vp_y="0 : 938.84263 : 0"
       inkscape:vp_z="51.435783 : -109.77237 : 1"
       inkscape:persp3d-origin="-297.85804 : -274.43945 : 1"
       id="perspective4787-3" />
  </defs>
  <sodipodi:namedview
     id="base"
     pagecolor="#ffffff"
     bordercolor="#666666"
     borderopacity="1.0"
     inkscape:pageopacity="0.0"
     inkscape:pageshadow="2"
     inkscape:zoom="1.979899"
     inkscape:cx="70.476725"
     inkscape:cy="46.344226"
     inkscape:document-units="px"
     inkscape:current-layer="layer1"
     showgrid="false"
     inkscape:snap-nodes="false"
     units="px"
     inkscape:window-width="1920"
     inkscape:window-height="1058"
     inkscape:window-x="0"
     inkscape:window-y="0"
     inkscape:window-maximized="1" />
  <metadata
     id="metadata6527">
    <rdf:RDF>
      <cc:Work
         rdf:about="">
        <dc:format>image/svg+xml</dc:format>
        <dc:type
           rdf:resource="http://purl.org/dc/dcmitype/StillImage" />
        <dc:title></dc:title>
      </cc:Work>
    </rdf:RDF>
  </metadata>
  <g
     inkscape:label="Layer 1"
     inkscape:groupmode="layer"
     id="layer1"
     transform="translate(0,-852.36223)">
    <path
       style="opacity:1;fill:#ffe680;fill-opacity:1;stroke:#000000;stroke-width:4.5326333;stroke-miterlimit:4;stroke-dasharray:none;stroke-opacity:1"
       id="path7724"
       d="m 55.554693,989.4349 c 0.198363,-6.3597 0.117244,-12.72291 0.05348,-19.08401 -0.03279,-3.52699 -0.08053,-7.05368 -0.09065,-10.58083 -0.006,-3.43453 0.05152,-6.86886 0.04064,-10.30328 0.0015,-3.5198 -0.04336,-7.03895 -0.0045,-10.55863 -0.252755,-4.44756 0.372235,-8.75117 1.595003,-13.01232 0.979835,-3.15613 2.548957,-6.02507 4.749883,-8.47856 1.711537,-1.54256 3.274178,-3.18014 4.824897,-4.86988 1.33613,-1.3571 2.303998,-2.82507 3.795612,-4.05655 8.943037,-8.95201 19.673201,-15.74202 31.819572,-16.06066 3.2788,-0.0242 6.55777,0.005 9.83658,0.0187 5.14867,-0.4553 8.16955,1.16617 12.10958,4.29701 4.39112,4.52342 8.53265,9.30446 12.10387,14.50283 2.90363,4.17335 4.35414,9.14859 5.6639,14.01125 0.95405,4.37263 1.2412,8.84341 1.40285,13.3037 0.0719,3.57189 0.0641,7.14517 0.0632,10.71768 -0.0163,3.51095 -0.0325,7.02188 -0.0409,10.53286 -0.009,3.25286 -0.008,6.50593 0.0539,9.7584 0.0482,1.95643 0.006,3.91347 -0.008,5.87036 -0.0305,3.37817 -0.0409,6.7565 -0.0482,10.13497 0.0169,3.1047 0.0391,6.20976 0.0313,9.31456 0.009,1.1593 0.0279,2.318 0.0287,3.4773 0,0 -26.41233,13.4579 -26.41233,13.4579 l 0,0 c 7.2e-4,-1.1692 0.0198,-2.3375 0.0285,-3.5066 -0.008,-3.1155 0.0151,-6.231 0.0313,-9.3465 -0.008,-3.3618 -0.0175,-6.7238 -0.0482,-10.08572 -0.0136,-1.95402 -0.0565,-3.90819 -0.009,-5.86191 0.0603,-3.2718 0.0628,-6.54451 0.0568,-9.81677 -0.005,-3.5063 -0.0151,-7.01259 -0.006,-10.51874 0.0239,-3.55388 0.0642,-7.10781 0.0198,-10.66179 -0.0677,-4.26241 -0.20534,-8.5456 -1.04262,-12.7395 -1.12234,-4.56566 -2.4482,-9.22327 -5.03441,-13.19062 -3.37756,-4.93779 -7.32901,-9.52376 -11.678891,-13.62963 -3.735736,-2.58315 -6.671281,-2.93303 -11.145081,-2.67738 -3.25857,0.005 -6.528125,-0.0465 -9.776104,0.25322 -1.108274,0.16405 -2.214101,0.29356 -3.248508,0.7585 -0.295755,0.13296 -1.126738,0.64248 -0.84579,0.48057 24.845525,-14.31726 33.588324,-17.03838 23.620188,-13.85078 -1.547275,1.21481 -3.195855,1.86405 -3.90775,3.82351 -1.785087,1.50287 -2.95159,3.43431 -4.866447,4.83577 -2.353071,2.05919 -4.295561,4.24906 -5.491104,7.19731 -1.258198,4.00774 -2.365067,7.95601 -1.93208,12.21972 0.03943,3.52118 -0.006,7.04186 -0.0045,10.56314 -0.01058,3.42064 0.04669,6.84119 0.04064,10.26194 -0.01058,3.55791 -0.05787,7.11548 -0.09065,10.67321 -0.063,6.34292 -0.146706,12.688 0.05348,19.02961 0,0 -26.292477,13.39664 -26.292477,13.39664 z"
       inkscape:connector-curvature="0" />
  </g>
</svg>
