<?xml version="1.0" encoding="UTF-8" standalone="no"?>
<!-- Created with Inkscape (http://www.inkscape.org/) -->

<svg
   xmlns:osb="http://www.openswatchbook.org/uri/2009/osb"
   xmlns:dc="http://purl.org/dc/elements/1.1/"
   xmlns:cc="http://creativecommons.org/ns#"
   xmlns:rdf="http://www.w3.org/1999/02/22-rdf-syntax-ns#"
   xmlns:svg="http://www.w3.org/2000/svg"
   xmlns="http://www.w3.org/2000/svg"
   xmlns:xlink="http://www.w3.org/1999/xlink"
   xmlns:sodipodi="http://sodipodi.sourceforge.net/DTD/sodipodi-0.dtd"
   xmlns:inkscape="http://www.inkscape.org/namespaces/inkscape"
   width="210mm"
   height="297mm"
   viewBox="0 0 744.09448819 1052.3622047"
   id="svg2"
   version="1.1"
   inkscape:version="0.91 r13725"
   sodipodi:docname="set-1-part-8.svg"
   inkscape:export-filename="/home/appreciate/Dropbox (MIT)/rumor-spreading-modeling/experiments/spaceship/set-1-part-7.png"
   inkscape:export-xdpi="90"
   inkscape:export-ydpi="90">
  <defs
     id="defs4">
    <pattern
       inkscape:collect="always"
       xlink:href="#Strips1_1"
       id="pattern6431"
       patternTransform="matrix(10,0,0,10,-838.15789,50)" />
    <pattern
       inkscape:stockid="Stripes 1:1"
       id="Strips1_1"
       patternTransform="translate(0,0) scale(10,10)"
       height="1"
       width="2"
       patternUnits="userSpaceOnUse"
       inkscape:collect="always">
      <rect
         id="rect5613"
         height="2"
         width="1"
         y="-0.5"
         x="0"
         style="fill:black;stroke:none" />
    </pattern>
    <inkscape:perspective
       sodipodi:type="inkscape:persp3d"
       inkscape:vp_x="-438.1579 : 122.23373 : 1"
       inkscape:vp_y="0 : 1000 : 0"
       inkscape:vp_z="305.93659 : 122.23373 : 1"
       inkscape:persp3d-origin="-66.110656 : -53.159976 : 1"
       id="perspective4787" />
    <linearGradient
       id="linearGradient4147"
       osb:paint="gradient">
      <stop
         style="stop-color:#000000;stop-opacity:1;"
         offset="0"
         id="stop4149" />
      <stop
         style="stop-color:#000000;stop-opacity:0;"
         offset="1"
         id="stop4151" />
    </linearGradient>
    <linearGradient
       id="linearGradient4141"
       osb:paint="solid">
      <stop
         style="stop-color:#000000;stop-opacity:1;"
         offset="0"
         id="stop4143" />
    </linearGradient>
  </defs>
  <sodipodi:namedview
     id="base"
     pagecolor="#ffffff"
     bordercolor="#666666"
     borderopacity="1.0"
     inkscape:pageopacity="0.0"
     inkscape:pageshadow="2"
     inkscape:zoom="0.76"
     inkscape:cx="242.57519"
     inkscape:cy="520"
     inkscape:document-units="px"
     inkscape:current-layer="layer2"
     showgrid="false"
     inkscape:window-width="1920"
     inkscape:window-height="1058"
     inkscape:window-x="0"
     inkscape:window-y="0"
     inkscape:window-maximized="1" />
  <metadata
     id="metadata7">
    <rdf:RDF>
      <cc:Work
         rdf:about="">
        <dc:format>image/svg+xml</dc:format>
        <dc:type
           rdf:resource="http://purl.org/dc/dcmitype/StillImage" />
        <dc:title></dc:title>
      </cc:Work>
    </rdf:RDF>
  </metadata>
  <g
     inkscape:label="Layer 1"
     inkscape:groupmode="layer"
     id="layer1">
    <path
       style="fill:none;fill-rule:evenodd;stroke:#000000;stroke-width:1px;stroke-linecap:butt;stroke-linejoin:miter;stroke-opacity:1"
       d="m 134.21053,247.15168 c 248.68421,-150 248.68421,-150 248.68421,-150 l 234.21052,143.42105 z"
       id="path3381"
       inkscape:connector-curvature="0" />
    <path
       style="fill:#000000"
       d="m 142.96993,243.26489 c 1.08552,-0.64636 55.52521,-33.48357 120.97708,-72.9716 108.52875,-65.47691 119.24168,-71.64486 121.71052,-70.07457 1.48892,0.94702 52.88306,32.42566 114.20919,69.95254 61.32613,37.52688 111.25733,68.47542 110.95821,68.77455 -0.91786,0.91784 -339.51981,5.49126 -406.67079,5.49281 -37.66295,8.7e-4 -62.36118,-0.47293 -61.18421,-1.17373 z"
       id="path3383"
       inkscape:connector-curvature="0" />
    <path
       style="fill:none;fill-rule:evenodd;stroke:#000000;stroke-width:1px;stroke-linecap:butt;stroke-linejoin:miter;stroke-opacity:1"
       d="M 138.15789,903.73063 43.421053,1014.2569 700,1015.5727 615.78947,902.41484 Z"
       id="path3385"
       inkscape:connector-curvature="0" />
    <path
       style="fill:#000000"
       d="m 159.00139,1012.9522 -112.258021,-0.6689 45.805387,-53.45915 45.805384,-53.4591 165.79473,-0.9038 c 91.18711,-0.49709 198.62504,-0.71681 238.75098,-0.48827 l 72.95624,0.41554 39.25026,52.63158 c 21.58764,28.94737 39.84725,53.6678 40.57691,54.9342 1.26146,2.1895 -9.13106,2.287 -211.54862,1.9848 -117.08138,-0.1748 -263.39134,-0.6189 -325.13325,-0.9869 z"
       id="path3387"
       inkscape:connector-curvature="0" />
    <path
       style="fill:#000000"
       d="m 180.75314,1049.0071 -101.611514,-0.3453 0.734764,-31.8998 c 0.404121,-17.5449 0.962695,-32.63993 1.241276,-33.54453 0.399245,-1.29643 20.787164,-1.6388 96.271494,-1.61668 92.99975,0.0273 484.54379,3.40673 485.2517,4.18829 0.19374,0.2139 0.7837,14.74752 1.31101,32.29682 l 0.95877,31.9079 -191.27299,-0.3207 c -105.20014,-0.1764 -236.99817,-0.4761 -292.88451,-0.666 z"
       id="path3395"
       inkscape:connector-curvature="0" />
    <flowRoot
       xml:space="preserve"
       id="flowRoot3361"
       style="fill:black;stroke:none;stroke-opacity:1;stroke-width:1px;stroke-linejoin:miter;stroke-linecap:butt;fill-opacity:1;font-family:sans-serif;font-style:normal;font-weight:normal;font-size:15px;line-height:125%;letter-spacing:0px;word-spacing:0px"><flowRegion
         id="flowRegion3363"><rect
           id="rect3365"
           width="15.789474"
           height="27.631578"
           x="78.947365"
           y="16.83589" /></flowRegion><flowPara
         id="flowPara3367"></flowPara></flowRoot>    <flowRoot
       xml:space="preserve"
       id="flowRoot3369"
       style="fill:black;stroke:none;stroke-opacity:1;stroke-width:1px;stroke-linejoin:miter;stroke-linecap:butt;fill-opacity:1;font-family:sans-serif;font-style:normal;font-weight:normal;font-size:15px;line-height:125%;letter-spacing:0px;word-spacing:0px"><flowRegion
         id="flowRegion3371"><rect
           id="rect3373"
           width="26.31579"
           height="38.157894"
           x="92.105263"
           y="24.730625" /></flowRegion><flowPara
         id="flowPara3375"></flowPara></flowRoot>    <rect
       style="opacity:1;fill:none;fill-opacity:1;stroke:#000000;stroke-width:4.9187355;stroke-miterlimit:4;stroke-dasharray:none;stroke-opacity:1"
       id="rect4346"
       width="480.34445"
       height="650.08136"
       x="134.16991"
       y="248.37421" />
  </g>
  <g
     inkscape:groupmode="layer"
     id="layer2"
     inkscape:label="Layer 2">
    <circle
       style="opacity:1;fill:#000000;fill-opacity:1;stroke-width:1;stroke-miterlimit:4;stroke-dasharray:none"
       id="path3488"
       cx="-356.57898"
       cy="837.88855"
       r="43.421051" />
    <path
       sodipodi:type="spiral"
       style="fill:#ffffff;fill-opacity:1;fill-rule:evenodd;stroke:#000000;stroke-width:1px;stroke-linecap:butt;stroke-linejoin:miter;stroke-opacity:1"
       id="path4300"
       sodipodi:cx="-359.21051"
       sodipodi:cy="837.88855"
       sodipodi:expansion="1"
       sodipodi:revolution="8.4054499"
       sodipodi:radius="32.683533"
       sodipodi:argument="-51.942097"
       sodipodi:t0="0"
       d="m -359.21051,837.88855 c -0.0618,-0.5816 0.75351,-0.37021 0.96666,-0.10267 0.57762,0.72501 -0.0377,1.71804 -0.76131,2.03598 -1.29439,0.56873 -2.69855,-0.37664 -3.10532,-1.62529 -0.59694,-1.83244 0.71579,-3.69592 2.48928,-4.17464 2.36378,-0.63807 4.69974,1.05442 5.24397,3.35325 0.68485,2.89285 -1.39267,5.70676 -4.21724,6.31331 -3.42093,0.7346 -6.7156,-1.73068 -7.38263,-5.08123 -0.78608,-3.9485 2.06853,-7.72556 5.94521,-8.45196 4.47577,-0.83865 8.73629,2.40628 9.52128,6.80919 0.89197,5.00288 -2.74394,9.74756 -7.67317,10.59062 -5.52985,0.94579 -10.75921,-3.08157 -11.65995,-8.53716 -0.99999,-6.05674 3.41915,-11.77114 9.40114,-12.72927 6.58357,-1.05449 12.78332,3.7567 13.79861,10.26512 1.10919,7.11035 -4.09424,13.79565 -11.12911,14.86794 -7.6371,1.16407 -14.80813,-4.43176 -15.93726,-11.99309 -1.2191,-8.16383 4.76925,-15.82074 12.85707,-17.0066 8.69053,-1.27423 16.83342,5.10674 18.07592,13.72106 1.32946,9.21721 -5.44422,17.84619 -14.58504,19.14525 -9.74388,1.38476 -18.85902,-5.7817 -20.21458,-15.44902 -1.44013,-10.27055 6.11917,-19.87192 16.31301,-21.28391 10.79719,-1.49556 20.88486,6.45662 22.35324,17.17699 1.55103,11.32383 -6.79408,21.89784 -18.04097,23.42256 -11.85047,1.60656 -22.91086,-7.13153 -24.4919,-18.90495 -1.6621,-12.3771 7.46898,-23.92391 19.76894,-25.56123 12.90372,-1.71768 24.93699,7.80643 26.63055,20.63292 1.7733,13.43034 -8.14387,25.9501 -21.4969,27.69989 -13.95695,1.82893 -26.96322,-8.48131 -28.76921,-22.36089 -1.88459,-14.48356 8.81874,-27.97636 23.22486,-29.83854 15.01017,-1.94026 28.98953,9.15618 30.90788,24.08885 1.99595,15.53678 -9.49362,30.0027 -24.95284,31.9772 -16.06338,2.05167 -31.01589,-9.83105 -33.04653,-25.81682 -2.10739,-16.58997 10.16849,-32.02909 26.6808,-34.11586 17.11658,-2.16312 33.04232,10.50592 35.18519,27.54479 1.33138,10.58637 -2.82514,21.36911 -10.84699,28.38819" />
    <ellipse
       style="opacity:1;fill:#ffff00;fill-opacity:1;stroke:#000000;stroke-width:3;stroke-miterlimit:4;stroke-dasharray:none;stroke-opacity:1"
       id="path4741"
       cx="-186.18422"
       cy="709.59906"
       rx="82.236839"
       ry="11.184211" />
    <path
       style="fill:none;fill-rule:evenodd;stroke:#000000;stroke-width:1px;stroke-linecap:butt;stroke-linejoin:miter;stroke-opacity:1"
       d="m -227.63158,712.88853 c -26.31579,-97.36843 40.78948,-19.73685 40.78948,-19.73685 l -10.52632,-60.52631 40.78948,47.36842 17.10526,6.57895"
       id="path4745"
       inkscape:connector-curvature="0" />
    <g
       sodipodi:type="inkscape:box3d"
       id="g4789"
       style="opacity:1;fill:#ffff00;fill-opacity:1;stroke:#000000;stroke-width:3;stroke-miterlimit:4;stroke-dasharray:none;stroke-opacity:1"
       inkscape:perspectiveID="#perspective4787"
       inkscape:corner0="0.5885163 : 0.3658116 : 0 : 1"
       inkscape:corner7="0.40674577 : 0.3329166 : 0.36477679 : 1">
      <path
         sodipodi:type="inkscape:box3dside"
         id="path4801"
         style="fill:#e9e9ff;fill-rule:evenodd;stroke:none;stroke-width:1px;stroke-linecap:butt;stroke-linejoin:round;stroke-opacity:1"
         inkscape:box3dsidetype="11"
         d="m -108.72672,832.64291 33.801928,-10.0027 0,18.56877 -33.801928,8.27472 z"
         points="-74.924792,822.64021 -74.924792,841.20898 -108.72672,849.4837 -108.72672,832.64291 " />
      <path
         sodipodi:type="inkscape:box3dside"
         id="path4791"
         style="fill:#353564;fill-rule:evenodd;stroke:none;stroke-width:1px;stroke-linecap:butt;stroke-linejoin:round;stroke-opacity:1"
         inkscape:box3dsidetype="6"
         d="m -203.94737,810.25694 0,20.708 95.22065,18.51876 0,-16.84079 z"
         points="-203.94737,830.96494 -108.72672,849.4837 -108.72672,832.64291 -203.94737,810.25694 " />
      <path
         sodipodi:type="inkscape:box3dside"
         id="path4793"
         style="fill:#4d4d9f;fill-rule:evenodd;stroke:none;stroke-width:1px;stroke-linecap:butt;stroke-linejoin:round;stroke-opacity:1"
         inkscape:box3dsidetype="5"
         d="m -203.94737,810.25694 30.26316,-15.48902 98.759418,27.87229 -33.801928,10.0027 z"
         points="-173.68421,794.76792 -74.924792,822.64021 -108.72672,832.64291 -203.94737,810.25694 " />
      <path
         sodipodi:type="inkscape:box3dside"
         id="path4799"
         style="fill:#afafde;fill-rule:evenodd;stroke:none;stroke-width:1px;stroke-linecap:butt;stroke-linejoin:round;stroke-opacity:1"
         inkscape:box3dsidetype="13"
         d="m -203.94737,830.96494 30.26316,-12.81326 98.759418,23.0573 -33.801928,8.27472 z"
         points="-173.68421,818.15168 -74.924792,841.20898 -108.72672,849.4837 -203.94737,830.96494 " />
      <path
         sodipodi:type="inkscape:box3dside"
         id="path4797"
         style="fill:#d7d7ff;fill-rule:evenodd;stroke:none;stroke-width:1px;stroke-linecap:butt;stroke-linejoin:round;stroke-opacity:1"
         inkscape:box3dsidetype="14"
         d="m -173.68421,794.76792 0,23.38376 98.759418,23.0573 0,-18.56877 z"
         points="-173.68421,818.15168 -74.924792,841.20898 -74.924792,822.64021 -173.68421,794.76792 " />
      <path
         sodipodi:type="inkscape:box3dside"
         id="path4795"
         style="fill:#8686bf;fill-rule:evenodd;stroke:none;stroke-width:1px;stroke-linecap:butt;stroke-linejoin:round;stroke-opacity:1"
         inkscape:box3dsidetype="3"
         d="m -203.94737,810.25694 30.26316,-15.48902 0,23.38376 -30.26316,12.81326 z"
         points="-173.68421,794.76792 -173.68421,818.15168 -203.94737,830.96494 -203.94737,810.25694 " />
    </g>
    <rect
       style="opacity:1;fill:#00ff00;fill-opacity:1;stroke:#000000;stroke-width:3;stroke-miterlimit:4;stroke-dasharray:none;stroke-opacity:1"
       id="rect4848"
       width="40.789474"
       height="36.842106"
       x="-225.00002"
       y="548.41486" />
    <circle
       style="opacity:1;fill:#b3b3b3;fill-opacity:1;stroke:url(#pattern6431);stroke-width:3;stroke-miterlimit:4;stroke-dasharray:none;stroke-opacity:1"
       id="path4892"
       cx="-432.23685"
       cy="637.23065"
       r="49.342106" />
    <path
       style="opacity:1;fill:#808000;fill-opacity:1;stroke:#000000;stroke-width:3;stroke-miterlimit:4;stroke-dasharray:none;stroke-opacity:1"
       id="path6435"
       d="m -155.31416,496.62223 c 5.67058,0.12685 11.34374,0.108 17.01526,0.0658 2.35495,0.36099 4.92487,-0.48189 7.26778,-0.0608 1.15419,0.20746 1.64918,0.68392 2.5811,1.31591 2.83456,2.17309 4.62405,5.41007 6.32617,8.48539 1.89937,3.86678 3.40909,7.86928 4.72383,11.96518 1.17287,4.17956 2.80699,8.20563 3.86497,12.41665 0.8637,3.64346 1.05466,7.38862 1.14085,11.11734 0.0711,4.02407 0.009,8.0487 -0.0236,12.0728 -0.0733,4.26374 0.28313,8.54009 -0.41648,12.7621 -2.193,9.4308 -10.73491,9.87716 -20.04279,15.1209 -2.60472,0.0812 -5.22906,-0.0314 -7.83837,-0.0871 -5.36951,-0.0927 -10.73965,-0.061 -16.10954,-0.0503 -4.68809,-0.16197 -8.61753,-2.30975 -12.2739,-5.06012 -2.82215,-2.27651 -4.34684,-5.57252 -6.12587,-8.63741 -0.86086,-1.59611 -1.58901,-3.20502 -1.85015,-5.00244 -0.44007,-2.93203 1.32143,-4.90312 3.76853,-6.29886 6.33727,-3.61455 12.74934,-7.09635 19.12401,-10.64453 5.41636,-2.36707 11.26284,-3.51862 17.08415,-4.36971 2.36529,-0.35863 4.75566,-0.47596 7.14495,-0.44938 1.74217,0.042 3.48472,0.0395 5.22721,0.0468 1.58735,0.61769 2.82452,1.86115 4.01661,3.03955 1.16466,1.44576 2.81018,2.11875 4.41776,2.9411 3.09077,1.30916 6.42189,1.63521 9.73393,1.85641 1.36906,-0.0874 2.94296,0.44075 4.26899,-0.14062 0.39212,-0.17191 1.41789,-0.95661 1.04339,-0.74908 -15.62099,8.65628 -20.05224,13.03095 -14.72291,7.94844 1.762,-2.6635 1.87506,-5.90693 2.0222,-8.99742 0.10148,-3.18539 0.0583,-6.3726 0.0309,-9.55876 -0.0521,-2.39876 -0.0507,-4.7982 -0.0509,-7.1974 0.0735,-4.35075 0.0696,-8.70223 0.1153,-13.05326 0.0826,-8.03311 0.34454,-16.05784 -0.39705,-24.06591 -0.61191,-3.74303 -0.77645,-7.66028 -2.03354,-11.2735 2.267,6.43522 0.0144,0.42963 17.240624,-8.54602 0,0 -17.617094,8.67503 -17.617094,8.67503 l 0,0 c 17.465754,-10.23334 13.83377,-15.84061 17.615834,-9.5591 1.03024,3.87228 1.08604,7.95473 1.69914,11.89553 0.72092,8.02606 0.58202,16.07123 0.66646,24.12322 0.0457,4.31022 0.0398,8.62095 0.11923,12.93081 0.006,2.40416 0.0198,4.80837 0.002,7.21251 0.01,3.21628 0.0461,6.43326 -0.007,9.64917 -0.11833,3.37693 -0.21379,6.83365 -1.51619,10.00304 -4.316884,8.65773 -15.183644,12.99759 -24.314474,12.00586 -3.50083,-0.35489 -6.99167,-0.90119 -10.19847,-2.43854 -1.79436,-0.88458 -3.52714,-1.83702 -4.83549,-3.39226 -0.87876,-0.85038 -1.85001,-1.90708 -3.17291,-1.79198 -1.73761,-0.0155 -3.47516,-0.0554 -5.21297,-0.0328 -2.2717,0.0422 -4.53905,0.19794 -6.7871,0.54304 -5.72921,0.90998 -11.42391,2.19196 -16.67721,4.73819 4.67855,-2.76864 9.39476,-5.47463 14.03566,-8.30593 0.63977,-0.39031 -1.37449,0.60487 -2.02434,0.97812 -0.4939,0.28367 -0.93243,0.65441 -1.39547,0.98607 -0.28654,0.20524 -0.64837,0.33775 -0.85322,0.62457 -0.27764,0.38871 -0.191,1.1283 -0.17662,1.56615 0.11039,1.5628 0.64726,2.97316 1.37773,4.36559 1.56239,2.87037 2.95574,5.92367 5.58077,8.00094 3.47813,2.48902 7.22092,4.11552 11.58395,4.0503 5.36553,0.0345 10.73102,0.10129 16.09682,0.0657 2.4932,-0.0277 5.25186,0.29339 7.61236,-0.64483 -5.38675,3.11845 -10.794,6.20176 -16.16026,9.35535 -0.21554,0.12667 0.47281,-0.16506 0.69986,-0.26971 1.46005,-0.67299 2.14473,-2.16058 2.56619,-3.64167 1.06091,-4.07002 0.55317,-8.27949 0.67835,-12.44781 -0.0149,-3.99576 -0.0241,-7.99145 -0.0436,-11.98717 -0.071,-3.60254 -0.15662,-7.22457 -0.90787,-10.76395 -0.98132,-4.19028 -2.61667,-8.16185 -3.77392,-12.30253 -1.29146,-3.97226 -2.70596,-7.86783 -4.58094,-11.61187 -1.54222,-2.76255 -3.13709,-5.77114 -5.87206,-7.51843 -2.79998,-1.19118 -6.13735,-0.18906 -9.08536,-0.55824 -5.73189,-0.0436 -11.46527,-0.0578 -17.19628,0.0658 0,0 15.80079,-11.47995 15.80079,-11.47995 z"
       inkscape:connector-curvature="0" />
    <rect
       style="opacity:1;fill:#000000;fill-opacity:1;stroke:#000000;stroke-width:3;stroke-miterlimit:4;stroke-dasharray:none;stroke-opacity:1"
       id="rect6475"
       width="53.947369"
       height="9.2105265"
       x="482.89471"
       y="468.15167" />
    <rect
       style="opacity:1;fill:#000000;fill-opacity:1;stroke:#000000;stroke-width:3;stroke-miterlimit:4;stroke-dasharray:none;stroke-opacity:1"
       id="rect6477"
       width="5.2631578"
       height="47.36842"
       x="518.42108"
       y="448.41483" />
    <rect
       style="opacity:1;fill:#000000;fill-opacity:1;stroke:#000000;stroke-width:3;stroke-miterlimit:4;stroke-dasharray:none;stroke-opacity:1"
       id="rect6482"
       width="61.842106"
       height="17.105263"
       x="488.15787"
       y="493.15167" />
  </g>
  <g
     inkscape:groupmode="layer"
     id="layer3"
     inkscape:label="Layer 3">
    <circle
       style="opacity:0.6;fill:#ff0000;fill-opacity:1;stroke-width:1;stroke-miterlimit:4;stroke-dasharray:none"
       id="path3478"
       cx="-202.78951"
       cy="367.99393"
       r="56.578949" />
    <path
       sodipodi:type="star"
       style="opacity:1;fill:none;fill-opacity:1;stroke:#000000;stroke-width:5;stroke-miterlimit:4;stroke-dasharray:none;stroke-opacity:1"
       id="path4697"
       sodipodi:sides="5"
       sodipodi:cx="-301.31579"
       sodipodi:cy="529.99377"
       sodipodi:r1="6.5789475"
       sodipodi:r2="3.2894738"
       sodipodi:arg1="-0.64350111"
       sodipodi:arg2="-0.015182578"
       inkscape:flatsided="false"
       inkscape:rounded="0"
       inkscape:randomized="0"
       d="m -296.05264,526.04641 -1.97406,3.89742 2.09148,3.8357 -4.31669,-0.67307 -3.00167,3.17441 -0.69379,-4.31341 -3.94662,-1.8738 3.88791,-1.99276 0.56252,-4.33249 3.09665,3.08182 z"
       inkscape:transform-center-x="0.59880672"
       inkscape:transform-center-y="0.030865095" />
    <path
       sodipodi:type="star"
       style="opacity:1;fill:none;fill-opacity:1;stroke:#000000;stroke-width:5;stroke-miterlimit:4;stroke-dasharray:none;stroke-opacity:1"
       id="path4699"
       sodipodi:sides="5"
       sodipodi:cx="-322.36842"
       sodipodi:cy="510.25695"
       sodipodi:r1="17.702137"
       sodipodi:r2="8.8510685"
       sodipodi:arg1="0.7328151"
       sodipodi:arg2="1.3611336"
       inkscape:flatsided="false"
       inkscape:rounded="0"
       inkscape:randomized="0"
       d="m -309.21051,522.09906 -11.31573,-3.18486 -9.03867,7.51607 -0.46776,-11.74607 -9.94131,-6.27369 11.02662,-4.0746 2.89461,-11.39343 7.28259,9.22782 11.73028,-0.76783 -6.52574,9.77771 z"
       inkscape:transform-center-x="1.1385254"
       inkscape:transform-center-y="-0.57058379" />
    <path
       sodipodi:type="star"
       style="opacity:1;fill:none;fill-opacity:1;stroke:#000000;stroke-width:5;stroke-miterlimit:4;stroke-dasharray:none;stroke-opacity:1"
       id="path4701"
       sodipodi:sides="5"
       sodipodi:cx="-309.21053"
       sodipodi:cy="506.30957"
       sodipodi:r1="32.683533"
       sodipodi:r2="16.341766"
       sodipodi:arg1="0.69989287"
       sodipodi:arg2="1.3282114"
       inkscape:flatsided="false"
       inkscape:rounded="0"
       inkscape:randomized="0"
       d="m -284.21054,527.3622 -21.0745,-5.18935 -16.22232,14.41875 -1.57701,-21.64663 -18.72602,-10.97271 20.09985,-8.18901 4.649,-21.20025 13.99941,16.58555 21.59926,-2.12977 -11.44775,18.43944 z"
       inkscape:transform-center-x="2.426092"
       inkscape:transform-center-y="-0.72226709" />
  </g>
</svg>
