<?xml version="1.0" encoding="UTF-8" standalone="no"?>
<!-- Created with Inkscape (http://www.inkscape.org/) -->

<svg
   xmlns:dc="http://purl.org/dc/elements/1.1/"
   xmlns:cc="http://creativecommons.org/ns#"
   xmlns:rdf="http://www.w3.org/1999/02/22-rdf-syntax-ns#"
   xmlns:svg="http://www.w3.org/2000/svg"
   xmlns="http://www.w3.org/2000/svg"
   xmlns:sodipodi="http://sodipodi.sourceforge.net/DTD/sodipodi-0.dtd"
   xmlns:inkscape="http://www.inkscape.org/namespaces/inkscape"
   width="200"
   height="200"
   viewBox="0 0 199.99999 199.99999"
   id="svg6522"
   version="1.1"
   inkscape:version="0.91 r13725"
   sodipodi:docname="set-1-part-7-icon.svg"
   inkscape:export-filename="/home/appreciate/Dropbox (MIT)/rumor-spreading-modeling/experiments/spaceship/set-1-part-6-icon.png"
   inkscape:export-xdpi="90"
   inkscape:export-ydpi="90">
  <defs
     id="defs6524">
    <inkscape:perspective
       sodipodi:type="inkscape:persp3d"
       inkscape:vp_x="-350.73697 : -63.083392 : 1"
       inkscape:vp_y="0 : 1508.9024 : 0"
       inkscape:vp_z="772.02898 : -63.083392 : 1"
       inkscape:persp3d-origin="210.64601 : -327.73537 : 1"
       id="perspective4787" />
  </defs>
  <sodipodi:namedview
     id="base"
     pagecolor="#ffffff"
     bordercolor="#666666"
     borderopacity="1.0"
     inkscape:pageopacity="0.0"
     inkscape:pageshadow="2"
     inkscape:zoom="1.979899"
     inkscape:cx="-46.448431"
     inkscape:cy="127.15643"
     inkscape:document-units="px"
     inkscape:current-layer="layer1"
     showgrid="false"
     inkscape:snap-nodes="false"
     units="px"
     inkscape:window-width="1920"
     inkscape:window-height="1058"
     inkscape:window-x="0"
     inkscape:window-y="0"
     inkscape:window-maximized="1" />
  <metadata
     id="metadata6527">
    <rdf:RDF>
      <cc:Work
         rdf:about="">
        <dc:format>image/svg+xml</dc:format>
        <dc:type
           rdf:resource="http://purl.org/dc/dcmitype/StillImage" />
        <dc:title></dc:title>
      </cc:Work>
    </rdf:RDF>
  </metadata>
  <g
     inkscape:label="Layer 1"
     inkscape:groupmode="layer"
     id="layer1"
     transform="translate(0,-852.36223)">
    <path
       style="opacity:1;fill:#808000;fill-opacity:1;stroke:#000000;stroke-width:4.70155144;stroke-miterlimit:4;stroke-dasharray:none;stroke-opacity:1"
       id="path6435"
       d="m 70.007228,903.57813 c 8.886841,0.1988 17.777724,0.16926 26.666037,0.10311 3.690635,0.56574 7.718175,-0.7552 11.389945,-0.0953 1.80882,0.32513 2.58456,1.07183 4.04505,2.06228 4.44228,3.40563 7.24674,8.47858 9.91427,13.29817 2.97666,6.05995 5.34267,12.3326 7.40311,18.75163 1.83811,6.55014 4.39907,12.85974 6.05712,19.45918 1.35358,5.70997 1.65285,11.57933 1.78792,17.42291 0.11143,6.30647 0.0141,12.61377 -0.037,18.92027 -0.11487,6.68212 0.44371,13.38382 -0.6527,20.00052 -3.43684,14.7798 -16.82358,15.4794 -31.41073,23.6973 -4.08208,0.1269 -8.194901,-0.049 -12.284169,-0.1365 -8.415008,-0.1457 -16.831003,-0.095 -25.246608,-0.078 -7.347098,-0.2537 -13.505252,-3.6196 -19.235455,-7.9301 -4.422828,-3.5676 -6.812297,-8.7331 -9.600363,-13.5363 -1.349125,-2.5014 -2.49027,-5.0229 -2.899525,-7.8399 -0.689671,-4.595 2.070924,-7.68396 5.905978,-9.87136 9.931667,-5.66471 19.980558,-11.12132 29.970836,-16.68185 8.48843,-3.70969 17.65094,-5.51439 26.774001,-6.84821 3.706845,-0.56203 7.452995,-0.74591 11.197445,-0.70425 2.7303,0.0658 5.4612,0.0619 8.192,0.0734 2.48766,0.96803 4.42654,2.91673 6.29476,4.7635 1.82524,2.26584 4.40407,3.32055 6.92345,4.60925 4.8438,2.05175 10.06428,2.56266 15.25483,2.90932 2.14558,-0.13635 4.61217,0.69081 6.6903,-0.22035 0.61453,-0.2694 2.22209,-1.49916 1.63518,-1.17398 -24.48095,13.56607 -31.42553,20.42203 -23.07349,12.45677 2.76138,-4.1742 2.93856,-9.25736 3.16916,-14.10059 0.15904,-4.99211 0.0914,-9.9871 0.0485,-14.9804 -0.0817,-3.75931 -0.0794,-7.51967 -0.0797,-11.27966 0.11519,-6.81842 0.10907,-13.63799 0.1807,-20.45685 0.12944,-12.58937 0.53995,-25.16559 -0.62226,-37.71571 -0.95897,-5.86602 -1.21683,-12.00507 -3.18692,-17.66764 3.5528,10.08516 0.0226,0.6733 27.01921,-13.39318 0,0 -27.60922,13.59535 -27.60922,13.59535 l 0,0 c 27.37205,-16.03751 21.68005,-24.82512 27.60725,-14.98085 1.61458,6.06858 1.70203,12.46651 2.66286,18.64247 1.12982,12.57832 0.91214,25.18657 1.04447,37.80552 0.0716,6.75491 0.0623,13.51062 0.18686,20.26496 0.01,3.76776 0.031,7.53559 0.003,11.30333 0.0157,5.0405 0.0723,10.0821 -0.0109,15.12202 -0.18544,5.29228 -0.33505,10.70955 -2.37615,15.67659 -6.76536,13.56824 -23.79555,20.3696 -38.10524,18.8155 -5.48644,-0.5562 -10.95723,-1.4124 -15.98287,-3.82176 -2.81209,-1.3862 -5.52767,-2.87894 -7.578099,-5.31623 -1.377179,-1.33273 -2.899306,-2.98877 -4.972533,-2.80839 -2.723153,-0.0251 -5.446213,-0.0862 -8.169681,-0.0517 -3.560171,0.0658 -7.113524,0.31015 -10.636631,0.85098 -8.978725,1.42614 -17.903366,3.43527 -26.136252,7.42564 7.332147,-4.33891 14.723314,-8.57971 21.996457,-13.01688 1.002637,-0.61167 -2.154079,0.94799 -3.172513,1.53287 -0.774031,0.4446 -1.461288,1.02556 -2.186956,1.5454 -0.449061,0.32158 -1.016115,0.52924 -1.337154,0.97886 -0.435112,0.60916 -0.299332,1.76825 -0.276796,2.45436 0.173002,2.4492 1.014377,4.65959 2.159157,6.84175 2.448551,4.4984 4.632187,9.2835 8.746091,12.5388 5.450868,3.9009 11.316508,6.45 18.154178,6.3476 8.408772,0.053 16.817472,0.1587 25.226672,0.1039 3.9073,-0.044 8.23062,0.4598 11.92996,-1.0106 -8.44203,4.8874 -16.91618,9.7194 -25.32609,14.6617 -0.33779,0.1984 0.74098,-0.2587 1.09681,-0.4229 2.28816,-1.0545 3.36118,-3.3859 4.02169,-5.707 1.66264,-6.3784 0.86692,-12.9755 1.0631,-19.508 -0.0233,-6.2622 -0.0378,-12.52414 -0.0683,-18.78615 -0.11127,-5.64577 -0.24546,-11.32227 -1.4228,-16.8691 -1.53791,-6.56694 -4.1008,-12.79112 -5.91442,-19.28032 -2.02396,-6.22526 -4.240741,-12.33034 -7.17918,-18.19794 -2.416941,-4.32942 -4.916394,-9.04443 -9.202595,-11.78276 -4.388083,-1.8668 -9.618355,-0.29629 -14.238428,-0.87487 -8.982923,-0.0683 -17.968185,-0.0906 -26.949729,0.10311 0,0 24.76274,-17.99119 24.76274,-17.99119 z"
       inkscape:connector-curvature="0" />
  </g>
</svg>
