<?xml version="1.0" encoding="UTF-8" standalone="no"?>
<!-- Created with Inkscape (http://www.inkscape.org/) -->

<svg
   xmlns:dc="http://purl.org/dc/elements/1.1/"
   xmlns:cc="http://creativecommons.org/ns#"
   xmlns:rdf="http://www.w3.org/1999/02/22-rdf-syntax-ns#"
   xmlns:svg="http://www.w3.org/2000/svg"
   xmlns="http://www.w3.org/2000/svg"
   xmlns:sodipodi="http://sodipodi.sourceforge.net/DTD/sodipodi-0.dtd"
   xmlns:inkscape="http://www.inkscape.org/namespaces/inkscape"
   width="200"
   height="200"
   viewBox="0 0 199.99999 199.99999"
   id="svg6522"
   version="1.1"
   inkscape:version="0.91 r13725"
   sodipodi:docname="set-3-part-7-icon.svg"
   inkscape:export-filename="/home/appreciate/Dropbox (MIT)/rumor-spreading-modeling/experiments/spaceship/set-3-part-6-icon.png"
   inkscape:export-xdpi="90"
   inkscape:export-ydpi="90">
  <defs
     id="defs6524">
    <inkscape:perspective
       sodipodi:type="inkscape:persp3d"
       inkscape:vp_x="-350.73697 : -63.083392 : 1"
       inkscape:vp_y="0 : 1508.9024 : 0"
       inkscape:vp_z="772.02898 : -63.083392 : 1"
       inkscape:persp3d-origin="210.64601 : -327.73537 : 1"
       id="perspective4787" />
    <inkscape:perspective
       sodipodi:type="inkscape:persp3d"
       inkscape:vp_x="-647.15183 : -109.77237 : 1"
       inkscape:vp_y="0 : 938.84263 : 0"
       inkscape:vp_z="51.435783 : -109.77237 : 1"
       inkscape:persp3d-origin="-297.85804 : -274.43945 : 1"
       id="perspective4787-3" />
  </defs>
  <sodipodi:namedview
     id="base"
     pagecolor="#ffffff"
     bordercolor="#666666"
     borderopacity="1.0"
     inkscape:pageopacity="0.0"
     inkscape:pageshadow="2"
     inkscape:zoom="1.979899"
     inkscape:cx="70.476725"
     inkscape:cy="46.344226"
     inkscape:document-units="px"
     inkscape:current-layer="layer1"
     showgrid="false"
     inkscape:snap-nodes="false"
     units="px"
     inkscape:window-width="1920"
     inkscape:window-height="1058"
     inkscape:window-x="0"
     inkscape:window-y="0"
     inkscape:window-maximized="1" />
  <metadata
     id="metadata6527">
    <rdf:RDF>
      <cc:Work
         rdf:about="">
        <dc:format>image/svg+xml</dc:format>
        <dc:type
           rdf:resource="http://purl.org/dc/dcmitype/StillImage" />
        <dc:title></dc:title>
      </cc:Work>
    </rdf:RDF>
  </metadata>
  <g
     inkscape:label="Layer 1"
     inkscape:groupmode="layer"
     id="layer1"
     transform="translate(0,-852.36223)">
    <path
       style="fill:none;fill-rule:evenodd;stroke:#000000;stroke-width:0.35004979px;stroke-linecap:butt;stroke-linejoin:miter;stroke-opacity:1"
       d="m 98.60292,999.19946 c 2.15992,-1.23619 3.84992,-2.98306 5.95116,-4.27763 2.88057,-1.77482 4.35928,-1.82824 7.43897,-3.42214 1.21941,-0.63107 2.27532,-1.47565 3.47152,-2.13881 1.12109,-0.62165 2.31435,-1.14077 3.47151,-1.71115 1.15717,-0.57039 2.29554,-1.17004 3.47152,-1.71116 6.43138,-2.95859 1.4361,-0.59188 7.9349,-2.99431 1.01927,-0.37689 1.95631,-0.90659 2.97557,-1.28332 1.29821,-0.47992 2.64919,-0.84607 3.96746,-1.28332 1.66177,-0.55137 3.27024,-1.22544 4.95931,-1.71115 1.29321,-0.37177 2.67421,-0.48373 3.96744,-0.8555 0.35068,-0.10088 0.64865,-0.30942 0.99188,-0.42783 0.48536,-0.16736 1.06957,-0.1571 1.48777,-0.42766 0.29573,-0.19134 0.2909,-0.59023 0.49594,-0.85549 0.25936,-0.33572 0.7325,-0.52011 0.99186,-0.85566 0.64379,-0.83301 0.49593,-0.78505 0.49593,-1.71099"
       id="path7867"
       inkscape:connector-curvature="0" />
    <path
       style="fill:none;fill-rule:evenodd;stroke:#000000;stroke-width:0.35004979px;stroke-linecap:butt;stroke-linejoin:miter;stroke-opacity:1"
       d="m 112.48899,999.62729 c 0.99186,-0.42783 2.05288,-0.75279 2.97558,-1.28332 0.58355,-0.33555 0.90423,-0.94777 1.4878,-1.28332 0.92268,-0.53053 1.96871,-0.88245 2.97557,-1.28332 1.1431,-0.45496 2.29272,-0.90197 3.47152,-1.28333 3.63647,-1.17616 4.94645,-1.25173 8.43084,-2.56664 1.3546,-0.51118 2.61282,-1.19981 3.96743,-1.71099 1.29399,-0.48836 2.65607,-0.83085 3.96745,-1.28332 1.16892,-0.40336 2.31435,-0.8555 3.47152,-1.28332 1.15716,-0.42783 2.261,-0.98499 3.47151,-1.28333 1.12396,-0.277 2.33254,-0.2011 3.47152,-0.42783 1.75053,0.68582 3.12639,-1.32665 4.46336,-1.71098 0.47048,-0.13561 1.00149,0.0843 1.48779,0 0.36248,-0.0628 0.64119,-0.32695 0.99187,-0.42783 0.15677,-0.0447 0.37902,0.10088 0.49593,0 0.24797,-0.21384 -0.24798,-1.06933 0,-1.28333 0.11692,-0.10088 0.37904,0.10088 0.49591,0 0.11693,-0.10088 0,-0.28511 0,-0.42766 0,-0.7131 0,-1.42604 0,-2.13898"
       id="path7869"
       inkscape:connector-curvature="0" />
    <path
       style="fill:none;fill-rule:evenodd;stroke:#000000;stroke-width:0.35004979px;stroke-linecap:butt;stroke-linejoin:miter;stroke-opacity:1"
       d="m 137.28553,1000.4828 c 2.16562,-0.053 1.85729,-0.72635 3.47152,-1.28334 0.48536,-0.16736 1.03952,-0.19564 1.48779,-0.42766 0.40094,-0.20755 0.57364,-0.67523 0.99186,-0.85566 0.60963,-0.26278 1.32249,-0.28511 1.98371,-0.42766 1.3225,-0.28528 2.65673,-0.53251 3.96746,-0.8555 2.32608,-0.57336 0.82655,-0.30561 3.4715,-1.28332 0.96097,-0.35523 1.98372,-0.57038 2.97557,-0.85566 0.49594,-0.14222 0.97521,-0.33935 1.48781,-0.42766 0.32419,-0.0562 0.66766,0.0562 0.99184,0 0.51262,-0.0876 0.99187,-0.28528 1.48782,-0.42783 0.49591,-0.14222 1.00241,-0.2603 1.48779,-0.42783 0.34319,-0.11907 0.64116,-0.32695 0.99185,-0.42766 0.15677,-0.0447 0.3391,0.0447 0.49593,0 1.70958,-0.49167 0.36737,-0.42783 1.48779,-0.42783"
       id="path7871"
       inkscape:connector-curvature="0" />
    <path
       style="fill:none;fill-rule:evenodd;stroke:#000000;stroke-width:0.35004979px;stroke-linecap:butt;stroke-linejoin:miter;stroke-opacity:1"
       d="m 102.57037,991.49969 c 5.31574,-2.62006 1.74724,-1.16011 8.43082,-2.99447 5.64897,-1.55041 11.17579,-3.04293 16.36572,-5.56096 2.38683,-1.15813 3.34957,-2.00949 5.45525,-3.42214 0.65243,-0.43775 1.34875,-0.82688 1.98371,-1.28332 0.3592,-0.25815 0.59094,-0.64811 0.99186,-0.85566 0.44826,-0.23185 1.03954,-0.19564 1.4878,-0.42766 0.80187,-0.4151 1.20564,-1.26364 1.98372,-1.71115 0.61512,-0.35374 1.30421,-0.60429 1.98373,-0.8555 0.7779,-0.28759 1.77014,-0.39657 2.47966,-0.85549 0.0488,-0.0314 1.80687,-1.48227 1.98372,-1.71115 0.20504,-0.26527 0.23454,-0.63009 0.49592,-0.8555 1.20452,-1.03906 0.72825,0.12734 1.48779,-0.85565 0.1736,-0.22459 0.50455,-1.14309 0.99186,-1.28316 0.31366,-0.091 0.67821,0.0893 0.99187,0 1.27725,-0.3673 -0.44192,-0.85566 0.99186,-0.85566"
       id="path7873"
       inkscape:connector-curvature="0" />
    <path
       style="fill:none;fill-rule:evenodd;stroke:#000000;stroke-width:0.35004979px;stroke-linecap:butt;stroke-linejoin:miter;stroke-opacity:1"
       d="m 90.172102,993.63851 c 0.826552,-0.42783 1.63703,-0.87947 2.47964,-1.28332 2.479658,-1.18823 2.066382,-0.71294 4.959315,-2.13882 1.354055,-0.66746 2.682323,-1.37676 3.967453,-2.13882 2.24848,-1.33343 6.3417,-4.20966 8.43082,-5.56112 1.79877,-1.16359 3.6256,-2.29493 5.45524,-3.42213 1.642,-1.01161 3.24359,-2.07829 4.95932,-2.99431 1.76116,-0.9405 3.65681,-1.68023 5.45523,-2.56665 3.40324,-1.35013 6.22069,-3.50863 9.42268,-5.13329 1.27444,-0.64662 2.66283,-1.111 3.96745,-1.71115 1.17598,-0.54095 2.29804,-1.16607 3.47152,-1.71099 0.97639,-0.45346 2.04002,-0.76983 2.97559,-1.28332 0.89302,-0.49018 1.53289,-1.30284 2.47966,-1.71115 1.0764,-0.46422 2.32978,-0.52723 3.47149,-0.8555 0.84453,-0.24277 1.64302,-0.5932 2.47965,-0.85549 0.98257,-0.30826 2.02017,-0.48935 2.97559,-0.85566 1.22823,0.23715 1.24442,-0.96448 1.98371,-1.28332 0.14784,-0.0629 0.33063,0 0.49595,0 0.16537,0 0.3306,0 0.49591,0"
       id="path7875"
       inkscape:connector-curvature="0" />
    <path
       style="fill:none;fill-rule:evenodd;stroke:#000000;stroke-width:0.35004979px;stroke-linecap:butt;stroke-linejoin:miter;stroke-opacity:1"
       d="m 100.09071,976.52765 c 1.65309,0 3.30621,0 4.9593,0 0.66126,0 1.34792,0.15711 1.98373,0 0.5731,-0.14057 0.93995,-0.65307 1.48779,-0.85549 0.15761,-0.0579 3.8783,-0.81167 3.96746,-0.8555 0.60895,-0.30016 0.94899,-0.89617 1.48779,-1.28332 0.45788,-0.32926 1.03524,-0.5211 1.48779,-0.85566 0.71,-0.5249 1.2848,-1.17517 1.98371,-1.71099 0.79115,-0.6066 1.68306,-1.10984 2.47966,-1.71115 0.52783,-0.39839 0.94901,-0.89601 1.48781,-1.28332 0.45788,-0.3291 0.97668,-0.59106 1.48778,-0.85549 0.31696,-0.16373 0.73049,-0.20226 0.99186,-0.42783 0.66124,-0.57039 -0.82655,-0.42767 0.49593,-0.42767"
       id="path7877"
       inkscape:connector-curvature="0" />
    <path
       style="fill:none;fill-rule:evenodd;stroke:#000000;stroke-width:0.35004979px;stroke-linecap:butt;stroke-linejoin:miter;stroke-opacity:1"
       d="m 110.00933,967.54456 c 0.66124,-0.42783 1.32248,-0.85566 1.98372,-1.28333 0.16538,0 0.34807,0.0629 0.49594,0 0.2091,-0.0893 0.28682,-0.3377 0.49593,-0.42783 0.68406,-0.29503 0.44359,0.51813 0.99186,-0.42783 0.0739,-0.12734 0,-0.28511 0,-0.42766 0,-0.14222 0,-0.28527 0,-0.42783"
       id="path7879"
       inkscape:connector-curvature="0" />
    <path
       style="fill:none;fill-rule:evenodd;stroke:#000000;stroke-width:0.35004979px;stroke-linecap:butt;stroke-linejoin:miter;stroke-opacity:1"
       d="m 86.204633,977.81097 c 0.495948,-0.85549 0.835566,-1.79301 1.487811,-2.56664 0.68752,-0.81548 1.731328,-1.3642 2.479658,-2.13882 0.910365,-0.94232 1.601077,-2.02983 2.47964,-2.99447 0.941622,-1.03361 1.977426,-2.0009 2.975589,-2.99431 2.100681,-2.0907 4.509109,-4.57961 6.943039,-6.41662 2.61639,-1.97459 6.93089,-4.59284 9.91862,-5.98878 5.97502,-2.79161 6.04483,-2.25668 11.90233,-4.27767 1.51168,-0.52156 2.95171,-1.18952 4.46337,-1.71108 0.97075,-0.33492 1.98374,-0.57035 2.97561,-0.85553 0.49591,-0.14255 1.02022,-0.22612 1.48777,-0.42778 0.20911,-0.0901 0.28685,-0.33758 0.49594,-0.42776 0.14784,-0.0637 0.33062,0 0.49594,0 0.33061,-0.14256 0.68428,-0.25091 0.99185,-0.42778 0.72976,-0.41963 1.25397,-1.29145 1.98373,-1.71107 0.30756,-0.17687 0.73048,-0.20232 0.99186,-0.42778 0.26138,-0.22546 0.2909,-0.59025 0.49593,-0.85554 0.12966,-0.1678 0.33062,-0.28518 0.49593,-0.42778 0.72,-0.62103 0.53686,-0.42777 1.4878,-0.42777"
       id="path7881"
       inkscape:connector-curvature="0" />
    <path
       style="fill:none;fill-rule:evenodd;stroke:#000000;stroke-width:0.35004979px;stroke-linecap:butt;stroke-linejoin:miter;stroke-opacity:1"
       d="m 78.269746,970.96669 c 2.755688,-1.29655 7.766831,-3.57064 10.414561,-5.13329 1.555566,-0.918 2.847141,-2.158 4.463367,-2.99447 1.712806,-0.88642 3.668666,-1.36833 5.455246,-2.13882 5.60283,-2.41632 6.25587,-3.29033 12.39827,-5.56095 2.25881,-0.83499 4.67975,-1.31293 6.94304,-2.13887 2.04257,-0.74538 3.96744,-1.71108 5.95116,-2.56663 1.65311,-0.71294 3.39203,-1.29392 4.9593,-2.13885 2.3933,-1.29022 3.40284,-2.70407 5.45526,-4.27771 0.61777,-0.47366 1.33828,-0.83793 1.98371,-1.28331 0.18256,-0.12601 0.30891,-0.30677 0.49593,-0.42776 3.70041,-2.39388 -0.18298,-0.09 2.47966,-0.85554 0.22179,-0.0637 0.28683,-0.3376 0.49593,-0.42778 5.51363,-2.37792 -2.53803,1.52237 2.97559,-0.85553 0.53311,-0.22992 0.93994,-0.65304 1.48778,-0.85556 0.6265,-0.23159 1.3741,-0.16488 1.98373,-0.42776 0.4182,-0.18036 0.60283,-0.63182 0.99188,-0.85555 0.13759,-0.0791 0.3306,0 0.49591,0 0.16538,0 0.33062,0 0.49595,0"
       id="path7883"
       inkscape:connector-curvature="0" />
    <path
       style="fill:none;fill-rule:evenodd;stroke:#000000;stroke-width:0.35004979px;stroke-linecap:butt;stroke-linejoin:miter;stroke-opacity:1"
       d="m 75.294157,968.82788 c 0,-1.47648 -0.306972,-3.01746 0.99188,-4.2778 0.791955,-0.7685 1.995467,-1.12572 2.975572,-1.71115 1.169196,-0.69806 2.2776,-1.47235 3.47152,-2.13882 4.829213,-2.69531 5.315024,-2.61973 10.414545,-5.13329 6.059615,-2.98663 3.516222,-1.9053 8.926746,-4.70538 0.0394,-0.0203 5.44663,-2.6559 5.95118,-2.99439 0.73816,-0.49522 1.27372,-1.18616 1.98373,-1.71109 0.45255,-0.33459 0.99186,-0.57036 1.48779,-0.85554 0.49593,-0.28517 0.9767,-0.59104 1.4878,-0.85554 0.31696,-0.16406 0.67488,-0.26373 0.99186,-0.42778 0.5111,-0.26451 0.93993,-0.65301 1.48779,-0.85554 0.62648,-0.23158 1.35725,-0.19617 1.98371,-0.42777 0.54785,-0.20252 0.92972,-0.67502 1.4878,-0.85554 4.18004,-0.72111 0.87021,0.045 4.46338,-1.28331 0.96099,-0.35524 2.00486,-0.52062 2.97559,-0.85554 0.68641,-0.23684 1.32248,-0.57037 1.98373,-0.85554 0.3306,-0.14256 0.68429,-0.25091 0.99186,-0.42778 0.1945,-0.1118 0.3306,-0.28518 0.49593,-0.42777 0.49593,-0.42776 0.99186,-0.85554 1.48778,-1.28332 3.03686,-2.61947 -0.83641,0.5411 1.98372,-1.28331 0.37407,-0.24197 0.61782,-0.61356 0.99188,-0.85554 0.29571,-0.19131 0.67489,-0.26372 0.99185,-0.42778 0.5111,-0.2645 0.9767,-0.591 1.48779,-0.85552 1.25366,-0.64883 2.65929,-1.14691 3.96746,-1.71109 0.33062,-0.14256 0.64118,-0.32695 0.99186,-0.42776 0.15678,-0.045 0.37903,0.10088 0.49593,0 0.23378,-0.20166 -0.10452,-0.58501 0,-0.85555 0.11692,-0.30249 0.33062,-0.57036 0.49593,-0.85556"
       id="path7885"
       inkscape:connector-curvature="0" />
    <path
       style="fill:none;fill-rule:evenodd;stroke:#000000;stroke-width:0.35004979px;stroke-linecap:butt;stroke-linejoin:miter;stroke-opacity:1"
       d="m 61.408092,972.67768 c 1.15719,-0.71294 2.258119,-1.49914 3.47152,-2.13881 1.76743,-0.93157 3.636831,-1.71099 5.455247,-2.56665 1.983726,-1.28332 3.887972,-2.66356 5.951178,-3.84997 1.910844,-1.09876 4.040316,-1.89555 5.951161,-2.99431 23.193772,-13.33736 -8.465647,4.36032 10.414544,-7.27211 1.86879,-1.15138 3.998494,-1.95172 5.951178,-2.99439 1.52036,-0.81182 2.9159,-1.79384 4.46338,-2.56663 1.59949,-0.79875 3.29062,-1.45344 4.9593,-2.13885 1.80343,-0.74075 3.74244,-1.25241 5.45525,-2.13886 1.61622,-0.83644 2.93538,-2.04252 4.46338,-2.99439 1.44958,-0.90303 2.97557,-1.71109 4.46337,-2.56663 0.99186,-0.57035 2.03463,-1.0798 2.97559,-1.71109 0.55361,-0.3714 0.94013,-0.90539 1.48779,-1.28331 0.86037,-0.5937 0.94589,-0.15446 1.4878,-0.85554 0.20503,-0.26528 0.23455,-0.63008 0.49591,-0.85554 0.2614,-0.22546 0.69615,-0.23646 0.99188,-0.42776 0.7481,-0.48398 1.26533,-1.1947 1.98373,-1.71109 0.63496,-0.45642 1.34873,-0.8269 1.98371,-1.28331 0.89799,-0.64548 1.6531,-1.42591 2.47965,-2.13886 0.33062,-0.28518 0.62675,-0.60359 0.99187,-0.85555 3.92488,-2.70835 -1.41495,1.47391 3.47152,-2.13884 0.53249,-0.3937 0.94013,-0.90541 1.48779,-1.28331 0.28863,-0.19918 0.67489,-0.26374 0.99186,-0.42778 1.40194,-0.72554 1.17631,-0.58686 1.98371,-1.28332"
       id="path7887"
       inkscape:connector-curvature="0" />
    <path
       style="fill:none;fill-rule:evenodd;stroke:#000000;stroke-width:0.35004979px;stroke-linecap:butt;stroke-linejoin:miter;stroke-opacity:1"
       d="m 107.52967,1008.1827 c 1.60607,-0.016 2.91645,-1.0609 4.46338,-1.2833 0.48919,-0.071 0.99861,0.071 1.4878,0 1.03129,-0.1488 1.9703,-0.6078 2.97557,-0.8555 0.65537,-0.1621 1.34554,-0.2214 1.98373,-0.4278 0.69223,-0.2239 1.32248,-0.5704 1.98374,-0.8555 0.66122,-0.2853 1.33745,-0.5459 1.98371,-0.8555 0.84263,-0.4039 1.6175,-0.9116 2.47966,-1.2833 2.53284,-1.0925 3.85471,-1.3937 6.44709,-2.139 0.99186,-0.2851 1.99302,-0.54724 2.9756,-0.85551 6.52305,-2.04604 -0.45424,-0.0165 3.96744,-1.28332 0.49593,-0.14222 0.97519,-0.33935 1.48779,-0.42783 0.0192,0 1.48537,0.002 1.4878,0 0.23379,-0.20159 -0.23378,-0.65373 0,-0.85549 0.11692,-0.10088 0.33062,0 0.49593,0 0.16538,-0.28511 0.29088,-0.59023 0.49593,-0.85549 0.30097,-0.38947 1.26801,-0.90412 1.4878,-1.28333 0.0739,-0.12734 0,-0.28511 0,-0.42783"
       id="path7889"
       inkscape:connector-curvature="0" />
    <path
       style="fill:none;fill-rule:evenodd;stroke:#000000;stroke-width:0.35004979px;stroke-linecap:butt;stroke-linejoin:miter;stroke-opacity:1"
       d="m 78.765677,997.48848 c 3.771828,-1.62681 1.945971,-0.9281 5.455247,-2.13882 0.826552,-0.28527 1.62079,-0.65357 2.479657,-0.85566 0.970116,-0.22822 2.02163,-0.1538 2.975573,-0.42766 1.052027,-0.30247 1.940579,-0.94 2.975588,-1.28332 2.593371,-0.86046 3.96603,-0.73841 6.44711,-1.71116 0.877508,-0.34398 1.589878,-0.96348 2.479658,-1.28332 1.1109,-0.39922 2.33814,-0.50638 3.4715,-0.85549 2.37126,-0.73047 4.6052,-1.76011 6.94304,-2.56665 1.31139,-0.45247 2.65605,-0.83085 3.96746,-1.28332 2.33783,-0.80654 4.59292,-1.78689 6.94302,-2.56665 0.97582,-0.32364 2.07907,-0.39161 2.97559,-0.85549 0.80186,-0.41509 1.23561,-1.22709 1.98372,-1.71115 0.59142,-0.38252 1.38214,-0.48489 1.98373,-0.85549 0.57072,-0.3516 0.95528,-0.88957 1.48778,-1.28333 1.25514,-0.92793 2.64497,-1.71098 3.96745,-2.56664 0.66124,-0.42767 1.3313,-0.84557 1.98373,-1.28333 0.83553,-0.56046 1.61248,-1.1874 2.47965,-1.71098 0.78968,-0.47678 1.7188,-0.77297 2.47966,-1.28333 0.73814,-0.4953 1.23561,-1.22709 1.98371,-1.71115 6.77341,-4.38182 -3.1362,3.11322 3.96747,-2.13881 0.5325,-0.39377 0.99185,-0.8555 1.48778,-1.28333 0.33062,-0.28511 0.69979,-0.54061 0.99186,-0.85549 0.37233,-0.40153 0.72529,-0.82358 0.99185,-1.28332 0.7297,-1.25885 -1.14886,0.5631 0.49593,-0.85566"
       id="path7891"
       inkscape:connector-curvature="0" />
    <path
       style="fill:none;fill-rule:evenodd;stroke:#000000;stroke-width:0.35004979px;stroke-linecap:butt;stroke-linejoin:miter;stroke-opacity:1"
       d="m 128.85469,1001.7661 c 1.15719,0 2.31435,0 3.47152,0 0.49595,0 1.00151,0.084 1.4878,0 0.36247,-0.063 0.63326,-0.3504 0.99186,-0.4277 0.32075,-0.069 0.66766,0.056 0.99186,0 0.51262,-0.088 0.98065,-0.3185 1.4878,-0.4278 0.32074,-0.07 0.67821,0.089 0.99186,0 1.03737,-0.2983 1.95955,-0.93271 2.97559,-1.28331 3.38653,-1.16838 -0.1834,0.43941 2.47966,-1.28332 0.29571,-0.19134 0.73046,-0.20225 0.99186,-0.42783 0.11692,-0.10088 -0.0739,-0.30016 0,-0.42766 0.84661,-1.46061 0.49591,1.32301 0.49591,-1.71115"
       id="path7893"
       inkscape:connector-curvature="0" />
    <rect
       style="opacity:1;fill:none;fill-opacity:1;stroke:#000000;stroke-width:1.08531344;stroke-miterlimit:4;stroke-dasharray:none;stroke-opacity:1"
       id="rect7895"
       width="71.554703"
       height="57.474483"
       x="79.442497"
       y="933.17102" />
    <path
       style="fill:none;fill-rule:evenodd;stroke:#000000;stroke-width:0.35004979px;stroke-linecap:butt;stroke-linejoin:miter;stroke-opacity:1"
       d="m 110.80363,976.23245 c 2.15992,-1.23635 3.84992,-2.98323 5.95116,-4.2778 2.88057,-1.77465 4.35928,-1.82823 7.43898,-3.42213 1.2194,-0.63108 2.27531,-1.47549 3.47152,-2.13882 1.12108,-0.62165 2.31434,-1.14077 3.4715,-1.71115 1.15717,-0.57039 2.29554,-1.17004 3.47152,-1.71099 6.43138,-2.95875 1.4361,-0.59205 7.9349,-2.99447 1.01927,-0.37673 1.95631,-0.90643 2.97558,-1.28333 1.2982,-0.47992 2.64918,-0.8459 3.96745,-1.28332 1.66175,-0.5512 3.27022,-1.22544 4.95929,-1.71099 1.29321,-0.37193 2.67421,-0.48372 3.96744,-0.85566 0.35068,-0.10088 0.64865,-0.30925 0.99188,-0.42766 0.48536,-0.16753 1.06957,-0.15711 1.48777,-0.42783 0.29573,-0.19134 0.2909,-0.59023 0.49594,-0.85551 0.25936,-0.33558 0.7325,-0.51998 0.99186,-0.85556 0.64379,-0.83295 0.49593,-0.78504 0.49593,-1.71107"
       id="path7867-3"
       inkscape:connector-curvature="0" />
    <path
       style="fill:none;fill-rule:evenodd;stroke:#000000;stroke-width:0.35004979px;stroke-linecap:butt;stroke-linejoin:miter;stroke-opacity:1"
       d="m 124.6897,976.66012 c 0.99186,-0.42767 2.05288,-0.75263 2.97559,-1.28333 0.58354,-0.33555 0.90423,-0.9476 1.48779,-1.28332 0.92269,-0.53053 1.96871,-0.88245 2.97557,-1.28332 1.1431,-0.45495 2.29272,-0.90197 3.47152,-1.28316 3.63647,-1.17632 4.94645,-1.25174 8.43084,-2.56664 1.3546,-0.51118 2.61282,-1.19998 3.96743,-1.71116 1.29399,-0.48835 2.65607,-0.83085 3.96744,-1.28332 1.16891,-0.40335 2.31434,-0.85549 3.47151,-1.28332 1.15716,-0.42767 2.261,-0.98499 3.47151,-1.28333 1.12396,-0.277 2.33254,-0.20093 3.47152,-0.42766 1.75054,0.68565 3.12641,-1.32682 4.46338,-1.71115 0.47048,-0.13561 1.00149,0.0843 1.4878,0 0.36247,-0.0628 0.64118,-0.32695 0.99186,-0.42783 0.15678,-0.0447 0.37903,0.10088 0.49593,0 0.24797,-0.21383 -0.24798,-1.06933 0,-1.28332 0.11692,-0.10088 0.37904,0.10088 0.49592,0 0.11692,-0.10088 0,-0.28511 0,-0.42767 0,-0.71294 0,-1.42588 0,-2.13881"
       id="path7869-6"
       inkscape:connector-curvature="0" />
    <path
       style="fill:none;fill-rule:evenodd;stroke:#000000;stroke-width:0.35004979px;stroke-linecap:butt;stroke-linejoin:miter;stroke-opacity:1"
       d="m 149.48624,977.51578 c 2.16561,-0.0529 1.85728,-0.7265 3.4715,-1.28333 0.48536,-0.16752 1.03952,-0.1958 1.48779,-0.42783 0.40094,-0.20754 0.57364,-0.67523 0.99186,-0.85549 0.60963,-0.26295 1.32249,-0.28528 1.98371,-0.42783 1.3225,-0.28511 2.65673,-0.53251 3.96746,-0.85549 2.3261,-0.57336 0.82655,-0.30562 3.47152,-1.28333 0.96097,-0.35522 1.98372,-0.57038 2.97557,-0.85549 0.49595,-0.14222 0.97521,-0.33935 1.48781,-0.42783 0.32419,-0.0562 0.66766,0.0562 0.99185,0 0.51261,-0.0876 0.99186,-0.28527 1.48781,-0.42783 0.49591,-0.14222 1.00241,-0.2603 1.48779,-0.42766 0.34319,-0.11907 0.64117,-0.32695 0.99185,-0.42783 0.15677,-0.0446 0.3391,0.0447 0.49593,0 1.70958,-0.4915 0.36737,-0.42783 1.48779,-0.42783"
       id="path7871-7"
       inkscape:connector-curvature="0" />
    <path
       style="fill:none;fill-rule:evenodd;stroke:#000000;stroke-width:0.35004979px;stroke-linecap:butt;stroke-linejoin:miter;stroke-opacity:1"
       d="m 114.77108,968.53252 c 5.31574,-2.62007 1.74724,-1.16012 8.43082,-2.99448 5.64897,-1.55024 11.17579,-3.04276 16.36572,-5.56095 2.38684,-1.15814 3.34958,-2.0095 5.45525,-3.42214 0.65243,-0.43776 1.34875,-0.82689 1.98371,-1.28333 0.3592,-0.25815 0.59094,-0.64811 0.99186,-0.85549 0.44826,-0.23202 1.03954,-0.19581 1.4878,-0.42783 0.80188,-0.41493 1.20564,-1.26363 1.98371,-1.71107 0.61512,-0.35372 1.30421,-0.60433 1.98372,-0.85552 0.7779,-0.28758 1.77014,-0.39656 2.47966,-0.85555 0.0488,-0.0316 1.80687,-1.48227 1.98372,-1.71108 0.20504,-0.2653 0.23454,-0.63009 0.49592,-0.85555 1.20452,-1.03896 0.72825,0.12718 1.48779,-0.85554 0.1736,-0.22461 0.50455,-1.1432 0.99186,-1.28331 0.31366,-0.0901 0.67821,0.0901 0.99187,0 1.27727,-0.36725 -0.44192,-0.85556 0.99186,-0.85556"
       id="path7873-5"
       inkscape:connector-curvature="0" />
    <path
       style="fill:none;fill-rule:evenodd;stroke:#000000;stroke-width:0.35004979px;stroke-linecap:butt;stroke-linejoin:miter;stroke-opacity:1"
       d="m 102.37281,970.67133 c 0.82656,-0.42766 1.63703,-0.87947 2.47964,-1.28332 2.47966,-1.18823 2.06639,-0.71294 4.95932,-2.13882 1.35405,-0.66746 2.68233,-1.37676 3.96745,-2.13881 2.24848,-1.33344 6.3417,-4.2095 8.43082,-5.56112 1.79877,-1.16359 3.6256,-2.29477 5.45525,-3.42214 1.64199,-1.01161 3.24358,-2.07813 4.95931,-2.99433 1.76116,-0.94043 3.65681,-1.68021 5.45523,-2.56663 3.40324,-1.3501 6.22069,-3.50861 9.42268,-5.13326 1.27444,-0.64663 2.66283,-1.1109 3.96744,-1.71108 1.17597,-0.54098 2.29803,-1.16606 3.47151,-1.71109 0.97639,-0.45348 2.04002,-0.76978 2.97559,-1.2833 0.89302,-0.49018 1.53289,-1.30277 2.47966,-1.71109 1.0764,-0.46425 2.32978,-0.52727 3.4715,-0.85554 0.84453,-0.24283 1.64304,-0.59313 2.47966,-0.85555 0.98257,-0.30819 2.02018,-0.48928 2.97559,-0.85554 1.22824,0.23717 1.24443,-0.96446 1.98371,-1.28331 0.14785,-0.0637 0.33064,0 0.49595,0 0.16537,0 0.3306,0 0.49591,0"
       id="path7875-3"
       inkscape:connector-curvature="0" />
    <path
       style="fill:none;fill-rule:evenodd;stroke:#000000;stroke-width:0.35004979px;stroke-linecap:butt;stroke-linejoin:miter;stroke-opacity:1"
       d="m 112.29143,953.56047 c 1.65308,0 3.30621,0 4.95929,0 0.66126,0 1.34792,0.15711 1.98373,0 0.5731,-0.14057 0.93995,-0.65294 1.4878,-0.85546 0.1576,-0.0584 3.87829,-0.81158 3.96745,-0.85554 0.60895,-0.30014 0.94899,-0.89603 1.48779,-1.28331 0.45788,-0.32913 1.03524,-0.52097 1.4878,-0.85554 0.70999,-0.52494 1.28479,-1.1752 1.98371,-1.71109 0.79114,-0.60658 1.68305,-1.10986 2.47965,-1.71108 0.52784,-0.39838 0.94902,-0.89603 1.48781,-1.28333 0.45788,-0.32911 0.97669,-0.59102 1.48778,-0.85554 0.31696,-0.16405 0.73049,-0.2023 0.99186,-0.42776 0.66125,-0.57035 -0.82655,-0.42776 0.49594,-0.42776"
       id="path7877-5"
       inkscape:connector-curvature="0" />
    <path
       style="fill:none;fill-rule:evenodd;stroke:#000000;stroke-width:0.35004979px;stroke-linecap:butt;stroke-linejoin:miter;stroke-opacity:1"
       d="m 122.21004,944.57736 c 0.66124,-0.42778 1.32248,-0.85554 1.98373,-1.2833 0.16537,0 0.34806,0.0637 0.49593,0 0.2091,-0.0901 0.28683,-0.33759 0.49593,-0.42778 0.68406,-0.29502 0.44359,0.51805 0.99186,-0.42777 0.0739,-0.1275 0,-0.28519 0,-0.42778 0,-0.14255 0,-0.28517 0,-0.42776"
       id="path7879-6"
       inkscape:connector-curvature="0" />
    <path
       style="fill:none;fill-rule:evenodd;stroke:#000000;stroke-width:0.35004979px;stroke-linecap:butt;stroke-linejoin:miter;stroke-opacity:1"
       d="m 98.405345,954.84379 c 0.495948,-0.85549 0.835565,-1.79298 1.487811,-2.56656 0.687524,-0.81542 1.731324,-1.36427 2.479654,-2.13885 0.91037,-0.9423 1.60108,-2.0299 2.47964,-2.99439 0.94163,-1.0337 1.97743,-2.00096 2.97559,-2.99441 2.10068,-2.09072 4.50911,-4.57956 6.94304,-6.41656 2.61639,-1.9747 6.93089,-4.59286 9.91862,-5.98879 5.97502,-2.79165 6.04483,-2.25673 11.90234,-4.27771 1.51167,-0.52157 2.9517,-1.18952 4.46336,-1.71109 0.97075,-0.33492 1.98375,-0.57035 2.97561,-0.85552 0.49591,-0.14256 1.02022,-0.22612 1.48778,-0.42778 0.2091,-0.0901 0.28684,-0.33759 0.49593,-0.42777 0.14784,-0.0637 0.33062,0 0.49595,0 0.3306,-0.14255 0.68427,-0.25091 0.99184,-0.42778 0.72976,-0.41962 1.25397,-1.29144 1.98373,-1.71107 0.30757,-0.17687 0.73048,-0.20232 0.99186,-0.42778 0.26138,-0.22545 0.2909,-0.59024 0.49592,-0.85554 0.12965,-0.16779 0.33062,-0.28518 0.49593,-0.42778 0.72,-0.62102 0.53686,-0.42776 1.48779,-0.42776"
       id="path7881-2"
       inkscape:connector-curvature="0" />
    <path
       style="fill:none;fill-rule:evenodd;stroke:#000000;stroke-width:0.35004979px;stroke-linecap:butt;stroke-linejoin:miter;stroke-opacity:1"
       d="m 90.470458,947.99953 c 2.755687,-1.29652 7.766831,-3.57063 10.414562,-5.13325 1.55556,-0.91804 2.84714,-2.15794 4.46337,-2.9944 1.7128,-0.88643 3.66866,-1.36834 5.45524,-2.13886 5.60283,-2.41639 6.25587,-3.29035 12.39827,-5.56101 2.25882,-0.83502 4.67975,-1.31292 6.94304,-2.13886 2.04257,-0.74539 3.96744,-1.71109 5.95116,-2.56663 1.65311,-0.71294 3.39203,-1.29393 4.9593,-2.13885 2.3933,-1.29022 3.40284,-2.70407 5.45527,-4.27772 0.61776,-0.47365 1.33827,-0.83793 1.98371,-1.2833 0.18255,-0.12602 0.3089,-0.30678 0.49593,-0.42777 3.70038,-2.39387 -0.18299,-0.09 2.47964,-0.85554 0.22178,-0.0637 0.28683,-0.3376 0.49593,-0.42778 5.51362,-2.37792 -2.53802,1.52238 2.97558,-0.85553 0.53311,-0.22992 0.93994,-0.65303 1.48778,-0.85555 0.6265,-0.2316 1.3741,-0.16489 1.98373,-0.42777 0.4182,-0.18036 0.60283,-0.63182 0.99188,-0.85554 0.13759,-0.079 0.3306,0 0.49591,0 0.16538,0 0.33062,0 0.49595,0"
       id="path7883-9"
       inkscape:connector-curvature="0" />
    <path
       style="fill:none;fill-rule:evenodd;stroke:#000000;stroke-width:0.35004979px;stroke-linecap:butt;stroke-linejoin:miter;stroke-opacity:1"
       d="m 87.494869,945.86068 c 0,-1.47646 -0.306972,-3.01734 0.991879,-4.27771 0.791956,-0.76851 1.995468,-1.1258 2.975573,-1.71109 1.169196,-0.6982 2.2776,-1.47249 3.47152,-2.13886 4.829213,-2.69531 5.315019,-2.61973 10.414549,-5.13324 6.05961,-2.98674 3.51622,-1.90532 8.92675,-4.70548 0.0394,-0.0203 5.44663,-2.6559 5.95117,-2.99439 0.73816,-0.49522 1.27372,-1.18617 1.98373,-1.71109 0.45255,-0.33459 0.99186,-0.57037 1.48779,-0.85554 0.49594,-0.28518 0.9767,-0.59104 1.4878,-0.85555 0.31696,-0.16405 0.67488,-0.26372 0.99186,-0.42778 0.5111,-0.2645 0.93994,-0.653 1.4878,-0.85554 0.62648,-0.23158 1.35724,-0.19617 1.98371,-0.42776 0.54784,-0.20252 0.92971,-0.67502 1.48779,-0.85555 4.18004,-0.7211 0.87021,0.045 4.46338,-1.2833 0.96099,-0.35525 2.00486,-0.52062 2.97559,-0.85554 0.68641,-0.23684 1.32249,-0.57037 1.98373,-0.85555 0.3306,-0.14255 0.68429,-0.25091 0.99186,-0.42778 0.1945,-0.11179 0.33061,-0.28517 0.49593,-0.42776 0.49593,-0.42776 0.99187,-0.85554 1.48778,-1.28332 3.03686,-2.61947 -0.83641,0.54109 1.98373,-1.28331 0.37406,-0.24198 0.61781,-0.61356 0.99188,-0.85554 0.29571,-0.19131 0.67488,-0.26373 0.99184,-0.42778 0.5111,-0.26451 0.9767,-0.59101 1.4878,-0.85553 1.25365,-0.64882 2.65927,-1.1469 3.96743,-1.71109 0.33062,-0.14255 0.64118,-0.32694 0.99186,-0.42776 0.15678,-0.045 0.37903,0.10088 0.49593,0 0.23378,-0.20166 -0.10452,-0.585 0,-0.85554 0.11692,-0.30249 0.33062,-0.57037 0.49593,-0.85556"
       id="path7885-1"
       inkscape:connector-curvature="0" />
    <path
       style="fill:none;fill-rule:evenodd;stroke:#000000;stroke-width:0.35004979px;stroke-linecap:butt;stroke-linejoin:miter;stroke-opacity:1"
       d="m 73.608804,949.71062 c 1.15719,-0.71296 2.258118,-1.49926 3.47152,-2.13887 1.76743,-0.93165 3.636831,-1.71107 5.455246,-2.56663 1.983726,-1.2833 3.887972,-2.6635 5.951178,-3.84991 1.910845,-1.09883 4.040317,-1.89558 5.951161,-2.99441 23.193781,-13.33736 -8.465647,4.36027 10.414541,-7.27211 1.86879,-1.15139 3.9985,-1.95173 5.95118,-2.99439 1.52036,-0.81182 2.91591,-1.79384 4.46339,-2.56663 1.59949,-0.79875 3.29061,-1.45345 4.95929,-2.13885 1.80344,-0.74076 3.74244,-1.25241 5.45525,-2.13887 1.61623,-0.83644 2.93539,-2.04251 4.46338,-2.99439 1.44958,-0.90302 2.97558,-1.71108 4.46337,-2.56663 0.99186,-0.57035 2.03463,-1.07979 2.97559,-1.71108 0.55361,-0.37141 0.94013,-0.90539 1.48779,-1.28331 0.86038,-0.5937 0.94589,-0.15446 1.4878,-0.85554 0.20503,-0.26528 0.23455,-0.63009 0.49591,-0.85555 0.2614,-0.22545 0.69616,-0.23645 0.99188,-0.42776 0.7481,-0.48397 1.26533,-1.1947 1.98373,-1.71109 0.63496,-0.45642 1.34873,-0.82689 1.98371,-1.2833 0.89799,-0.64548 1.6531,-1.42591 2.47966,-2.13887 0.33062,-0.28517 0.62674,-0.60359 0.99186,-0.85554 3.92486,-2.70836 -1.41495,1.4739 3.4715,-2.13885 0.53249,-0.39369 0.94013,-0.9054 1.48779,-1.28331 0.28863,-0.19918 0.67489,-0.26374 0.99186,-0.42778 1.40194,-0.72554 1.17631,-0.58685 1.98371,-1.28332"
       id="path7887-2"
       inkscape:connector-curvature="0" />
    <path
       style="fill:none;fill-rule:evenodd;stroke:#000000;stroke-width:0.35004979px;stroke-linecap:butt;stroke-linejoin:miter;stroke-opacity:1"
       d="m 119.73038,985.21555 c 1.60607,-0.0165 2.91645,-1.06089 4.46339,-1.28333 0.48918,-0.0711 0.99861,0.0711 1.48779,0 1.03129,-0.14884 1.9703,-0.60776 2.97557,-0.85549 0.65537,-0.16207 1.34554,-0.22127 1.98373,-0.42783 0.69223,-0.22392 1.32248,-0.57038 1.98374,-0.85549 0.66123,-0.28511 1.33745,-0.54591 1.98371,-0.8555 0.84263,-0.40385 1.6175,-0.91155 2.47966,-1.28332 2.53284,-1.09248 3.85471,-1.39346 6.44709,-2.13881 0.99186,-0.28528 1.99302,-0.5474 2.97561,-0.85566 6.52302,-2.04604 -0.45424,-0.0165 3.96743,-1.28333 0.49592,-0.14222 0.97518,-0.33935 1.48778,-0.42766 0.0192,0 1.48536,0 1.48779,0 0.23379,-0.20176 -0.23378,-0.6539 0,-0.85566 0.11692,-0.10088 0.33062,0 0.49593,0 0.16538,-0.28511 0.29088,-0.59023 0.49593,-0.85549 0.30097,-0.38946 1.26801,-0.90412 1.4878,-1.28333 0.0739,-0.12734 0,-0.2851 0,-0.42766"
       id="path7889-7"
       inkscape:connector-curvature="0" />
    <path
       style="fill:none;fill-rule:evenodd;stroke:#000000;stroke-width:0.35004979px;stroke-linecap:butt;stroke-linejoin:miter;stroke-opacity:1"
       d="m 90.966389,974.5213 c 3.771828,-1.62664 1.945971,-0.92809 5.455246,-2.13882 0.826553,-0.28527 1.620791,-0.65356 2.479658,-0.85549 0.970116,-0.22822 2.021627,-0.1538 2.975577,-0.42783 1.05202,-0.30247 1.94057,-0.94 2.97558,-1.28332 2.59337,-0.86046 3.96603,-0.73841 6.44711,-1.71115 0.87751,-0.34399 1.58988,-0.96349 2.47966,-1.28333 1.1109,-0.39922 2.33815,-0.50638 3.4715,-0.85549 2.37126,-0.73047 4.6052,-1.75994 6.94305,-2.56665 1.31138,-0.45247 2.65604,-0.83085 3.96745,-1.28332 2.33783,-0.80654 4.59292,-1.78689 6.94302,-2.56664 0.97582,-0.32365 2.07907,-0.39145 2.97559,-0.8555 0.80186,-0.41493 1.23561,-1.22709 1.98373,-1.71098 0.59142,-0.38269 1.38213,-0.48505 1.98372,-0.85566 0.57072,-0.35159 0.95528,-0.88956 1.48778,-1.28333 1.25514,-0.92792 2.64497,-1.711 3.96745,-2.56656 0.66124,-0.42776 1.3313,-0.84559 1.98373,-1.2833 0.83553,-0.56055 1.61247,-1.18749 2.47964,-1.71109 0.78967,-0.4768 1.71879,-0.77286 2.47965,-1.28331 0.73814,-0.49522 1.23561,-1.22711 1.98371,-1.71108 6.77343,-4.38187 -3.1362,3.11315 3.96747,-2.13887 0.5325,-0.39369 0.99185,-0.85552 1.48778,-1.2833 0.33062,-0.28518 0.69979,-0.5406 0.99186,-0.85555 0.37235,-0.40145 0.72531,-0.82346 0.99186,-1.2833 0.72971,-1.25885 -1.14887,0.56319 0.49593,-0.85555"
       id="path7891-0"
       inkscape:connector-curvature="0" />
    <path
       style="fill:none;fill-rule:evenodd;stroke:#000000;stroke-width:0.35004979px;stroke-linecap:butt;stroke-linejoin:miter;stroke-opacity:1"
       d="m 141.0554,978.7991 c 1.15719,0 2.31435,0 3.47152,0 0.49595,0 1.00151,0.0843 1.4878,0 0.36247,-0.0628 0.63326,-0.3506 0.99186,-0.42783 0.32075,-0.0695 0.66766,0.0562 0.99186,0 0.51262,-0.0876 0.98065,-0.31852 1.4878,-0.42783 0.32075,-0.0695 0.67821,0.091 0.99186,0 1.03736,-0.29817 1.95953,-0.93273 2.97557,-1.28332 3.38653,-1.16839 -0.1834,0.43957 2.47966,-1.28333 0.29571,-0.19117 0.73046,-0.20225 0.99186,-0.42766 0.11692,-0.10088 -0.0739,-0.30032 0,-0.42783 0.84661,-1.46044 0.49591,1.32301 0.49591,-1.71115"
       id="path7893-9"
       inkscape:connector-curvature="0" />
    <rect
       style="opacity:1;fill:none;fill-opacity:1;stroke:#000000;stroke-width:1.08531344;stroke-miterlimit:4;stroke-dasharray:none;stroke-opacity:1"
       id="rect7895-3"
       width="71.554703"
       height="57.474483"
       x="91.643211"
       y="910.2038" />
    <path
       style="fill:none;fill-rule:evenodd;stroke:#000000;stroke-width:0.35004979px;stroke-linecap:butt;stroke-linejoin:miter;stroke-opacity:1"
       d="m 97.747576,993.64049 c 2.159918,-1.23619 3.849914,-2.98306 5.951164,-4.27779 2.88056,-1.77466 4.35928,-1.82824 7.43897,-3.42214 1.2194,-0.63108 2.27532,-1.47549 3.47152,-2.13882 1.12109,-0.62165 2.31435,-1.14077 3.4715,-1.71115 1.15718,-0.57038 2.29555,-1.17004 3.47152,-1.71099 6.43139,-2.95875 1.4361,-0.59205 7.93491,-2.99447 1.01926,-0.37673 1.9563,-0.90643 2.97557,-1.28333 1.29821,-0.47992 2.64919,-0.8459 3.96745,-1.28332 1.66177,-0.5512 3.27024,-1.22544 4.95932,-1.71098 1.29321,-0.37194 2.6742,-0.48373 3.96743,-0.85566 0.35068,-0.10088 0.64866,-0.30926 0.99188,-0.42767 0.48537,-0.16752 1.06958,-0.15711 1.48778,-0.42783 0.29573,-0.19134 0.2909,-0.59023 0.49593,-0.85549 0.25936,-0.33555 0.7325,-0.51994 0.99186,-0.85549 0.6438,-0.83301 0.49594,-0.78505 0.49594,-1.71116"
       id="path7867-6"
       inkscape:connector-curvature="0" />
    <path
       style="fill:none;fill-rule:evenodd;stroke:#000000;stroke-width:0.35004979px;stroke-linecap:butt;stroke-linejoin:miter;stroke-opacity:1"
       d="m 111.63364,994.06816 c 0.99186,-0.42767 2.05289,-0.75263 2.97559,-1.28316 0.58355,-0.33571 0.90423,-0.94777 1.48779,-1.28332 0.92269,-0.5307 1.96871,-0.88262 2.97558,-1.28332 1.1431,-0.45512 2.29271,-0.90213 3.47152,-1.28333 3.63646,-1.17632 4.94645,-1.25173 8.43083,-2.56664 1.3546,-0.51118 2.61282,-1.19998 3.96744,-1.71116 1.29399,-0.48835 2.65606,-0.83085 3.96745,-1.28332 1.16891,-0.40319 2.31435,-0.85549 3.47152,-1.28332 1.15716,-0.42766 2.261,-0.98498 3.4715,-1.28332 1.12397,-0.27684 2.33254,-0.20094 3.47152,-0.42767 1.75053,0.68582 3.1264,-1.32665 4.46337,-1.71115 0.47048,-0.13561 1.00148,0.0843 1.48779,0 0.36247,-0.0628 0.64118,-0.32695 0.99186,-0.42766 0.15678,-0.0447 0.37903,0.10088 0.49593,0 0.24797,-0.214 -0.24798,-1.06949 0,-1.28333 0.11693,-0.10088 0.37905,0.10088 0.49592,0 0.11692,-0.10088 0,-0.28527 0,-0.42783 0,-0.71293 0,-1.42587 0,-2.13881"
       id="path7869-0"
       inkscape:connector-curvature="0" />
    <path
       style="fill:none;fill-rule:evenodd;stroke:#000000;stroke-width:0.35004979px;stroke-linecap:butt;stroke-linejoin:miter;stroke-opacity:1"
       d="m 136.43018,994.92382 c 2.16563,-0.0529 1.8573,-0.72634 3.47152,-1.28333 0.48537,-0.16752 1.03953,-0.1958 1.4878,-0.42783 0.40094,-0.20754 0.57364,-0.67506 0.99186,-0.85549 0.60963,-0.26295 1.32248,-0.28527 1.98371,-0.42783 1.3225,-0.28511 2.65673,-0.53251 3.96745,-0.85549 2.32611,-0.5732 0.82655,-0.30562 3.4715,-1.28332 0.96098,-0.35523 1.98373,-0.57039 2.97557,-0.8555 0.49595,-0.14222 0.97521,-0.33935 1.48781,-0.42783 0.32419,-0.0562 0.66766,0.0562 0.99185,0 0.51262,-0.0877 0.99186,-0.28511 1.48781,-0.42783 0.49592,-0.14222 1.00241,-0.2603 1.4878,-0.42766 0.34318,-0.11907 0.64116,-0.32695 0.99184,-0.42783 0.15678,-0.0447 0.33911,0.0447 0.49593,0 1.70958,-0.4915 0.36737,-0.42783 1.4878,-0.42783"
       id="path7871-6"
       inkscape:connector-curvature="0" />
    <path
       style="fill:none;fill-rule:evenodd;stroke:#000000;stroke-width:0.35004979px;stroke-linecap:butt;stroke-linejoin:miter;stroke-opacity:1"
       d="m 101.71503,985.94056 c 5.31573,-2.62006 1.74723,-1.16012 8.43082,-2.99431 5.64896,-1.55041 11.17579,-3.04293 16.36572,-5.56112 2.38683,-1.15797 3.34957,-2.00949 5.45525,-3.42214 0.65242,-0.43775 1.34874,-0.82688 1.9837,-1.28332 0.3592,-0.25816 0.59094,-0.64795 0.99187,-0.8555 0.44825,-0.23202 1.03954,-0.1958 1.48779,-0.42783 0.80188,-0.41493 1.20565,-1.26364 1.98373,-1.71098 0.61512,-0.35374 1.30421,-0.60446 1.98372,-0.85566 0.7779,-0.28759 1.77015,-0.39658 2.47966,-0.8555 0.0488,-0.0314 1.80687,-1.48227 1.98373,-1.71115 0.20503,-0.26526 0.23453,-0.63008 0.49591,-0.85549 1.20452,-1.0389 0.72825,0.12734 1.4878,-0.85549 0.17359,-0.22459 0.50454,-1.14325 0.99186,-1.28333 0.31365,-0.091 0.67821,0.0893 0.99186,0 1.27727,-0.3673 -0.44192,-0.85549 0.99187,-0.85549"
       id="path7873-2"
       inkscape:connector-curvature="0" />
    <path
       style="fill:none;fill-rule:evenodd;stroke:#000000;stroke-width:0.35004979px;stroke-linecap:butt;stroke-linejoin:miter;stroke-opacity:1"
       d="m 89.316757,988.07937 c 0.826552,-0.42766 1.63703,-0.87947 2.479641,-1.28332 2.479657,-1.18823 2.066381,-0.71294 4.959315,-2.13882 1.354054,-0.66729 2.682326,-1.37676 3.967447,-2.13881 2.24848,-1.33343 6.3417,-4.2095 8.43082,-5.56096 1.79877,-1.16375 3.62561,-2.29493 5.45525,-3.4223 1.64199,-1.01161 3.24358,-2.07812 4.95931,-2.99431 1.76117,-0.9405 3.65681,-1.68023 5.45523,-2.56665 3.40324,-1.35013 6.2207,-3.50863 9.42269,-5.13329 1.27444,-0.64662 2.66282,-1.11083 3.96745,-1.71098 1.17597,-0.54112 2.29804,-1.16607 3.47152,-1.71116 0.97638,-0.45346 2.04002,-0.76982 2.97559,-1.28332 0.89301,-0.49017 1.53289,-1.30267 2.47965,-1.71099 1.07641,-0.46437 2.32978,-0.52738 3.47151,-0.85565 0.84451,-0.24278 1.64302,-0.59304 2.47963,-0.8555 0.98257,-0.30826 2.02018,-0.48935 2.97559,-0.85549 1.22824,0.23715 1.24443,-0.96449 1.98371,-1.28334 0.14785,-0.0637 0.33064,0 0.49595,0 0.16538,0 0.33061,0 0.49592,0"
       id="path7875-6"
       inkscape:connector-curvature="0" />
    <path
       style="fill:none;fill-rule:evenodd;stroke:#000000;stroke-width:0.35004979px;stroke-linecap:butt;stroke-linejoin:miter;stroke-opacity:1"
       d="m 99.23537,970.96868 c 1.65309,0 3.30621,0 4.9593,0 0.66126,0 1.34792,0.15711 1.98372,0 0.5731,-0.14057 0.93996,-0.65307 1.4878,-0.85566 0.1576,-0.0579 3.8783,-0.8115 3.96745,-0.85549 0.60895,-0.30016 0.949,-0.89601 1.4878,-1.28333 0.45787,-0.3291 1.03524,-0.52093 1.48779,-0.85549 0.70999,-0.5249 1.28479,-1.17517 1.98371,-1.71115 0.79114,-0.6066 1.68305,-1.10984 2.47966,-1.71099 0.52783,-0.39839 0.94901,-0.89617 1.48781,-1.28332 0.45788,-0.32927 0.97668,-0.59106 1.48778,-0.85566 0.31696,-0.16372 0.73048,-0.20226 0.99186,-0.42766 0.66124,-0.57039 -0.82655,-0.42783 0.49593,-0.42783"
       id="path7877-1"
       inkscape:connector-curvature="0" />
    <path
       style="fill:none;fill-rule:evenodd;stroke:#000000;stroke-width:0.35004979px;stroke-linecap:butt;stroke-linejoin:miter;stroke-opacity:1"
       d="m 109.15398,961.98542 c 0.66125,-0.42783 1.32249,-0.85549 1.98373,-1.28332 0.16538,0 0.34807,0.0628 0.49593,0 0.2091,-0.091 0.28683,-0.33754 0.49593,-0.42783 0.68407,-0.29503 0.44359,0.51812 0.99187,-0.42767 0.0739,-0.12734 0,-0.28527 0,-0.42783 0,-0.14222 0,-0.28511 0,-0.42783"
       id="path7879-8"
       inkscape:connector-curvature="0" />
    <path
       style="fill:none;fill-rule:evenodd;stroke:#000000;stroke-width:0.35004979px;stroke-linecap:butt;stroke-linejoin:miter;stroke-opacity:1"
       d="m 85.349289,972.25184 c 0.495948,-0.8555 0.835565,-1.79302 1.487811,-2.56648 0.68752,-0.81548 1.731328,-1.36436 2.479657,-2.13899 0.910365,-0.94231 1.601077,-2.02983 2.479641,-2.9943 0.941621,-1.03377 1.977425,-2.00106 2.975589,-2.99448 2.10068,-2.09069 4.50911,-4.57944 6.943043,-6.41645 2.61639,-1.97474 6.93088,-4.5929 9.91861,-5.98883 5.97503,-2.79166 6.04483,-2.25673 11.90234,-4.27772 1.51167,-0.52156 2.95171,-1.18952 4.46337,-1.71108 0.97074,-0.33492 1.98374,-0.57035 2.9756,-0.85553 0.49592,-0.14255 1.02023,-0.22612 1.48778,-0.42778 0.2091,-0.0901 0.28685,-0.33758 0.49593,-0.42776 0.14785,-0.0637 0.33062,0 0.49595,0 0.3306,-0.14256 0.68428,-0.25091 0.99185,-0.42778 0.72975,-0.41963 1.25396,-1.29145 1.98372,-1.71107 0.30757,-0.17687 0.73049,-0.20232 0.99186,-0.42778 0.26138,-0.22546 0.2909,-0.59025 0.49594,-0.85554 0.12965,-0.1678 0.33062,-0.28518 0.49593,-0.42778 0.72,-0.62103 0.53686,-0.42777 1.48779,-0.42777"
       id="path7881-7"
       inkscape:connector-curvature="0" />
    <path
       style="fill:none;fill-rule:evenodd;stroke:#000000;stroke-width:0.35004979px;stroke-linecap:butt;stroke-linejoin:miter;stroke-opacity:1"
       d="m 77.414401,965.40756 c 2.755688,-1.29655 7.766832,-3.57065 10.414562,-5.13329 1.555565,-0.91801 2.84714,-2.15784 4.463366,-2.99431 1.712806,-0.88642 3.668666,-1.36833 5.455247,-2.13882 5.602824,-2.41643 6.255864,-3.2904 12.398274,-5.56105 2.25881,-0.83502 4.67974,-1.31293 6.94304,-2.13887 2.04256,-0.74538 3.96743,-1.71108 5.95116,-2.56663 1.6531,-0.71294 3.39202,-1.29392 4.9593,-2.13885 2.39329,-1.29022 3.40284,-2.70407 5.45526,-4.27771 0.61776,-0.47366 1.33828,-0.83793 1.98371,-1.28331 0.18256,-0.12601 0.30891,-0.30677 0.49593,-0.42776 3.7004,-2.39388 -0.18299,-0.09 2.47966,-0.85554 0.22178,-0.0637 0.28683,-0.3376 0.49593,-0.42778 5.51362,-2.37792 -2.53804,1.52237 2.97559,-0.85553 0.53311,-0.22992 0.93993,-0.65304 1.48778,-0.85556 0.62649,-0.23159 1.37409,-0.16488 1.98372,-0.42776 0.41821,-0.18036 0.60283,-0.63182 0.99188,-0.85555 0.13759,-0.0791 0.33061,0 0.49592,0 0.16537,0 0.33062,0 0.49594,0"
       id="path7883-92"
       inkscape:connector-curvature="0" />
    <path
       style="fill:none;fill-rule:evenodd;stroke:#000000;stroke-width:0.35004979px;stroke-linecap:butt;stroke-linejoin:miter;stroke-opacity:1"
       d="m 74.438812,963.26874 c 0,-1.47648 -0.306972,-3.01729 0.99188,-4.2778 0.791956,-0.7685 1.995468,-1.12571 2.975572,-1.71098 1.169197,-0.69822 2.277601,-1.47252 3.471521,-2.13882 4.829213,-2.69536 5.315023,-2.61978 10.414544,-5.13329 6.059616,-2.98673 3.516222,-1.90532 8.926751,-4.70548 0.0394,-0.0203 5.44663,-2.6559 5.95118,-2.99439 0.73816,-0.49522 1.27371,-1.18616 1.98372,-1.71109 0.45256,-0.33459 0.99187,-0.57036 1.4878,-0.85554 0.49593,-0.28517 0.9767,-0.59104 1.48779,-0.85554 0.31696,-0.16406 0.67489,-0.26373 0.99187,-0.42778 0.51109,-0.2645 0.93993,-0.65301 1.48779,-0.85554 0.62648,-0.23158 1.35725,-0.19617 1.98371,-0.42777 0.54784,-0.20252 0.92971,-0.67502 1.48779,-0.85554 4.18005,-0.72111 0.87022,0.045 4.46339,-1.28331 0.96098,-0.35524 2.00486,-0.52062 2.97559,-0.85554 0.68641,-0.23684 1.32248,-0.57037 1.98372,-0.85554 0.33061,-0.14256 0.6843,-0.25091 0.99186,-0.42778 0.1945,-0.1118 0.33061,-0.28518 0.49594,-0.42777 0.49593,-0.42776 0.99186,-0.85554 1.48777,-1.28332 3.03687,-2.61947 -0.8364,0.5411 1.98373,-1.2833 0.37407,-0.24198 0.61781,-0.61357 0.99188,-0.85555 0.29571,-0.19131 0.67489,-0.26372 0.99185,-0.42778 0.51109,-0.2645 0.97669,-0.591 1.48779,-0.85552 1.25365,-0.64883 2.65929,-1.14691 3.96745,-1.71109 0.33062,-0.14255 0.64118,-0.32695 0.99187,-0.42776 0.15677,-0.045 0.37902,0.10088 0.49593,0 0.23377,-0.20166 -0.10452,-0.58501 0,-0.85555 0.11692,-0.30249 0.33062,-0.57036 0.49593,-0.85556"
       id="path7885-0"
       inkscape:connector-curvature="0" />
    <path
       style="fill:none;fill-rule:evenodd;stroke:#000000;stroke-width:0.35004979px;stroke-linecap:butt;stroke-linejoin:miter;stroke-opacity:1"
       d="m 60.552747,967.11871 c 1.15719,-0.71294 2.258119,-1.4993 3.471521,-2.13898 1.76743,-0.93157 3.636831,-1.71099 5.455246,-2.56648 1.983726,-1.28332 3.887972,-2.66356 5.951178,-3.84997 1.910844,-1.09893 4.040317,-1.89555 5.951161,-2.99447 23.193777,-13.3373 -8.465647,4.36032 10.414545,-7.27205 1.868789,-1.15138 3.998493,-1.95172 5.951178,-2.99439 1.520357,-0.81181 2.915904,-1.79384 4.463384,-2.56663 1.59949,-0.79875 3.29061,-1.45344 4.9593,-2.13885 1.80343,-0.74075 3.74244,-1.25241 5.45524,-2.13886 1.61623,-0.83644 2.93539,-2.04252 4.46339,-2.99439 1.44957,-0.90303 2.97557,-1.71109 4.46336,-2.56663 0.99187,-0.57035 2.03463,-1.0798 2.97559,-1.71109 0.55362,-0.3714 0.94014,-0.90539 1.4878,-1.2833 0.86037,-0.59371 0.94589,-0.15447 1.48779,-0.85555 0.20504,-0.26528 0.23456,-0.63008 0.49592,-0.85554 0.26139,-0.22546 0.69615,-0.23646 0.99188,-0.42776 0.74809,-0.48398 1.26533,-1.1947 1.98372,-1.71109 0.63497,-0.45642 1.34873,-0.8269 1.98371,-1.28331 0.898,-0.64548 1.65311,-1.42591 2.47966,-2.13886 0.33062,-0.28518 0.62674,-0.60359 0.99186,-0.85555 3.92489,-2.70835 -1.41494,1.47391 3.47152,-2.13884 0.5325,-0.3937 0.94014,-0.90541 1.4878,-1.28331 0.28863,-0.19918 0.67488,-0.26374 0.99186,-0.42778 1.40193,-0.72554 1.17631,-0.58686 1.98371,-1.28332"
       id="path7887-23"
       inkscape:connector-curvature="0" />
    <path
       style="fill:none;fill-rule:evenodd;stroke:#000000;stroke-width:0.35004979px;stroke-linecap:butt;stroke-linejoin:miter;stroke-opacity:1"
       d="m 106.67433,1002.6236 c 1.60607,-0.017 2.91645,-1.0609 4.46338,-1.2833 0.48918,-0.071 0.99861,0.071 1.48779,0 1.03129,-0.1489 1.9703,-0.6078 2.97558,-0.8555 0.65537,-0.1621 1.34553,-0.2213 1.98372,-0.4277 0.69224,-0.22391 1.32249,-0.57038 1.98374,-0.85565 0.66123,-0.28511 1.33746,-0.54574 1.98371,-0.85549 0.84263,-0.40385 1.6175,-0.91156 2.47966,-1.28333 2.53284,-1.09231 3.85472,-1.39346 6.44709,-2.13881 0.99187,-0.28528 1.99302,-0.5474 2.97561,-0.85566 6.52305,-2.04588 -0.45424,-0.0165 3.96743,-1.28316 0.49594,-0.14222 0.9752,-0.33935 1.4878,-0.42783 0.0192,0 1.48536,0.002 1.48779,0 0.2338,-0.20176 -0.23377,-0.6539 0,-0.85549 0.11693,-0.10088 0.33062,0 0.49594,0 0.16537,-0.28528 0.29088,-0.5904 0.49593,-0.85566 0.30097,-0.3893 1.26801,-0.90411 1.48779,-1.28332 0.0739,-0.12734 0,-0.28511 0,-0.42767"
       id="path7889-75"
       inkscape:connector-curvature="0" />
    <path
       style="fill:none;fill-rule:evenodd;stroke:#000000;stroke-width:0.35004979px;stroke-linecap:butt;stroke-linejoin:miter;stroke-opacity:1"
       d="m 77.910333,991.92934 c 3.771828,-1.62664 1.94597,-0.92809 5.455246,-2.13881 0.826553,-0.28511 1.620791,-0.65357 2.479658,-0.8555 0.970116,-0.22822 2.02163,-0.1538 2.975572,-0.42783 1.052027,-0.30247 1.940579,-0.94 2.975589,-1.28332 2.59337,-0.86029 3.96603,-0.73824 6.447109,-1.71099 0.877505,-0.34415 1.589882,-0.96365 2.479653,-1.28332 1.11091,-0.39938 2.33815,-0.50655 3.47151,-0.85566 2.37125,-0.73047 4.60519,-1.75994 6.94304,-2.56664 1.31139,-0.45247 2.65605,-0.83086 3.96745,-1.28333 2.33783,-0.80654 4.59292,-1.78689 6.94303,-2.56648 0.97582,-0.3238 2.07906,-0.39161 2.97558,-0.85566 0.80187,-0.41493 1.23562,-1.22709 1.98373,-1.71098 0.59142,-0.38268 1.38214,-0.48489 1.98373,-0.85566 0.57071,-0.35159 0.95528,-0.88956 1.48777,-1.28332 1.25515,-0.92793 2.64497,-1.71099 3.96746,-2.56648 0.66124,-0.42783 1.33129,-0.84574 1.98372,-1.28333 0.83553,-0.56062 1.61249,-1.18757 2.47966,-1.71115 0.78967,-0.47678 1.71879,-0.7728 2.47966,-1.28332 0.73814,-0.49514 1.23561,-1.2271 1.98371,-1.71099 6.77343,-4.38198 -3.13621,3.11305 3.96746,-2.13898 0.5325,-0.3936 0.99185,-0.85549 1.48778,-1.28332 0.33062,-0.28511 0.69979,-0.54062 0.99187,-0.8555 0.37234,-0.40136 0.7253,-0.82341 0.99186,-1.28332 0.72969,-1.25885 -1.14887,0.56327 0.49591,-0.85549"
       id="path7891-9"
       inkscape:connector-curvature="0" />
    <path
       style="fill:none;fill-rule:evenodd;stroke:#000000;stroke-width:0.35004979px;stroke-linecap:butt;stroke-linejoin:miter;stroke-opacity:1"
       d="m 127.99935,996.20714 c 1.15719,0 2.31434,0 3.47152,0 0.49595,0 1.0015,0.0843 1.48779,0 0.36247,-0.0628 0.63326,-0.35043 0.99186,-0.42783 0.32075,-0.0695 0.66766,0.0562 0.99187,0 0.51262,-0.0877 0.98065,-0.31835 1.48779,-0.42783 0.32075,-0.0695 0.67821,0.0893 0.99186,0 1.03738,-0.29817 1.95955,-0.93272 2.97559,-1.28332 3.38654,-1.16839 -0.1834,0.43957 2.47966,-1.28316 0.29571,-0.19134 0.73047,-0.20242 0.99186,-0.42783 0.11693,-0.10088 -0.0739,-0.30032 0,-0.42783 0.84662,-1.46044 0.49592,1.32302 0.49592,-1.71098"
       id="path7893-2"
       inkscape:connector-curvature="0" />
    <rect
       style="opacity:1;fill:none;fill-opacity:1;stroke:#000000;stroke-width:1.08531344;stroke-miterlimit:4;stroke-dasharray:none;stroke-opacity:1"
       id="rect7895-2"
       width="71.554703"
       height="57.474483"
       x="78.587151"
       y="927.612" />
    <path
       style="fill:none;fill-rule:evenodd;stroke:#000000;stroke-width:0.35004979px;stroke-linecap:butt;stroke-linejoin:miter;stroke-opacity:1"
       d="m 56.403414,982.76036 c 2.159919,-1.23619 3.849919,-2.98306 5.951162,-4.27763 2.880563,-1.77482 4.359278,-1.8284 7.438972,-3.42214 1.219405,-0.63107 2.275318,-1.47565 3.47152,-2.13898 1.121089,-0.62165 2.314347,-1.1406 3.471504,-1.71098 1.157174,-0.57039 2.295544,-1.17004 3.471521,-1.71116 6.431381,-2.95859 1.436097,-0.59188 7.934903,-2.99431 1.019266,-0.37689 1.956307,-0.90659 2.975573,-1.28332 1.298206,-0.47992 2.649185,-0.84607 3.967452,-1.28332 1.66177,-0.55137 3.27024,-1.22544 4.959319,-1.71115 1.29321,-0.37177 2.6742,-0.48373 3.96743,-0.8555 0.35068,-0.10088 0.64866,-0.30942 0.99188,-0.42783 0.48536,-0.16736 1.06957,-0.1571 1.48778,-0.42766 0.29572,-0.19134 0.2909,-0.59023 0.49593,-0.85566 0.25936,-0.33555 0.7325,-0.51994 0.99186,-0.85549 0.6438,-0.83301 0.49593,-0.78505 0.49593,-1.71099"
       id="path7867-8"
       inkscape:connector-curvature="0" />
    <path
       style="fill:none;fill-rule:evenodd;stroke:#000000;stroke-width:0.35004979px;stroke-linecap:butt;stroke-linejoin:miter;stroke-opacity:1"
       d="m 70.289479,983.18819 c 0.991863,-0.42783 2.052887,-0.75279 2.975589,-1.28332 0.583548,-0.33555 0.90423,-0.94777 1.487795,-1.28332 0.922686,-0.53053 1.968709,-0.88245 2.975572,-1.28332 1.1431,-0.45512 2.292716,-0.90197 3.47152,-1.28333 3.636468,-1.17616 4.946449,-1.25173 8.430836,-2.56664 1.3546,-0.51118 2.612818,-1.19981 3.967435,-1.71099 1.29399,-0.48836 2.656065,-0.83085 3.967452,-1.28332 1.168915,-0.40336 2.314347,-0.8555 3.471522,-1.28332 1.15716,-0.42783 2.26099,-0.98499 3.4715,-1.28333 1.12397,-0.277 2.33254,-0.2011 3.47152,-0.42783 1.75055,0.68582 3.12641,-1.32665 4.46339,-1.71098 0.47048,-0.13561 1.00148,0.0843 1.48779,0 0.36247,-0.0629 0.64118,-0.32695 0.99186,-0.42783 0.15678,-0.0447 0.37903,0.10088 0.49593,0 0.24797,-0.21384 -0.24798,-1.06949 0,-1.28333 0.11693,-0.10088 0.37905,0.10088 0.49592,0 0.11692,-0.10088 0,-0.28511 0,-0.42783 0,-0.71293 0,-1.42587 0,-2.13881"
       id="path7869-9"
       inkscape:connector-curvature="0" />
    <path
       style="fill:none;fill-rule:evenodd;stroke:#000000;stroke-width:0.35004979px;stroke-linecap:butt;stroke-linejoin:miter;stroke-opacity:1"
       d="m 95.086021,984.04369 c 2.165623,-0.0529 1.857295,-0.72634 3.47152,-1.28333 0.485364,-0.16736 1.039524,-0.1958 1.487799,-0.42766 0.40093,-0.20755 0.57364,-0.67523 0.99186,-0.85566 0.60963,-0.26278 1.32248,-0.28511 1.98371,-0.42766 1.3225,-0.28528 2.65672,-0.53251 3.96745,-0.85566 2.3261,-0.5732 0.82655,-0.30545 3.47152,-1.28316 0.96097,-0.35539 1.98373,-0.57038 2.97557,-0.85566 0.49595,-0.14222 0.97521,-0.33935 1.48781,-0.42766 0.32419,-0.0562 0.66766,0.0562 0.99185,0 0.51262,-0.0877 0.99186,-0.28528 1.48781,-0.42783 0.49592,-0.14222 1.00241,-0.2603 1.4878,-0.42783 0.34318,-0.11907 0.64116,-0.32695 0.99184,-0.42766 0.15678,-0.0447 0.33911,0.0446 0.49593,0 1.70958,-0.49167 0.36737,-0.42783 1.4878,-0.42783"
       id="path7871-73"
       inkscape:connector-curvature="0" />
    <path
       style="fill:none;fill-rule:evenodd;stroke:#000000;stroke-width:0.35004979px;stroke-linecap:butt;stroke-linejoin:miter;stroke-opacity:1"
       d="m 60.370866,975.06059 c 5.315735,-2.62006 1.747238,-1.16011 8.430819,-2.99447 5.648968,-1.55041 11.17579,-3.04293 16.365722,-5.56096 2.386832,-1.15813 3.349572,-2.00949 5.455247,-3.42214 0.652427,-0.43775 1.348745,-0.82688 1.983709,-1.28332 0.359198,-0.25832 0.59094,-0.64811 0.991863,-0.85566 0.448253,-0.23186 1.039541,-0.19564 1.487795,-0.42766 0.801878,-0.4151 1.205645,-1.26364 1.983725,-1.71115 0.615119,-0.35374 1.30421,-0.60429 1.983726,-0.8555 0.777899,-0.28759 1.770138,-0.39657 2.479658,-0.85549 0.0488,-0.0314 1.80687,-1.48227 1.98373,-1.71115 0.20503,-0.26527 0.23453,-0.63009 0.49591,-0.8555 1.20452,-1.03906 0.72825,0.12734 1.4878,-0.85565 0.17359,-0.22459 0.50454,-1.14312 0.99186,-1.28323 0.31365,-0.0901 0.67821,0.0901 0.99186,0 1.27727,-0.36725 -0.44192,-0.85556 0.99186,-0.85556"
       id="path7873-6"
       inkscape:connector-curvature="0" />
    <path
       style="fill:none;fill-rule:evenodd;stroke:#000000;stroke-width:0.35004979px;stroke-linecap:butt;stroke-linejoin:miter;stroke-opacity:1"
       d="m 47.972596,977.19941 c 0.826552,-0.42783 1.63703,-0.87947 2.479641,-1.28332 2.479657,-1.18823 2.066381,-0.71294 4.959314,-2.13882 1.354055,-0.66746 2.682327,-1.37676 3.967452,-2.13882 2.248478,-1.33343 6.341698,-4.20966 8.430819,-5.56112 1.798769,-1.16359 3.625602,-2.29493 5.455246,-3.42213 1.641992,-1.01161 3.243582,-2.07829 4.959315,-2.99448 1.761162,-0.94033 3.656809,-1.68006 5.45523,-2.56648 3.403236,-1.35013 6.220692,-3.50863 9.422682,-5.13331 1.274442,-0.64664 2.662828,-1.1109 3.967451,-1.71108 1.175977,-0.54098 2.298041,-1.16606 3.471524,-1.71109 0.97638,-0.45348 2.04002,-0.76978 2.97559,-1.28331 0.89301,-0.49017 1.53289,-1.30277 2.47965,-1.71108 1.07641,-0.46425 2.32978,-0.52727 3.47151,-0.85554 0.84453,-0.24283 1.64303,-0.59313 2.47965,-0.85555 0.98257,-0.30819 2.02018,-0.48928 2.97559,-0.85554 1.22824,0.23717 1.24443,-0.96446 1.98371,-1.28331 0.14785,-0.0637 0.33064,0 0.49595,0 0.16538,0 0.33061,0 0.49592,0"
       id="path7875-1"
       inkscape:connector-curvature="0" />
    <path
       style="fill:none;fill-rule:evenodd;stroke:#000000;stroke-width:0.35004979px;stroke-linecap:butt;stroke-linejoin:miter;stroke-opacity:1"
       d="m 57.891209,960.08855 c 1.653088,0 3.30621,0 4.959298,0 0.661259,0 1.347919,0.15711 1.983726,0 0.573096,-0.14057 0.939951,-0.65307 1.487794,-0.85549 0.157604,-0.0579 3.878298,-0.81167 3.967452,-0.85566 0.60895,-0.3 0.948998,-0.89601 1.487795,-1.28316 0.457878,-0.32926 1.035241,-0.5211 1.487794,-0.85566 0.709995,-0.5249 1.284795,-1.17517 1.98371,-1.71099 0.791145,-0.6066 1.683054,-1.10984 2.479657,-1.71111 0.527833,-0.39838 0.949014,-0.89603 1.487811,-1.28333 0.457878,-0.32911 0.976681,-0.59102 1.487778,-0.85554 0.316961,-0.16405 0.730485,-0.20231 0.991863,-0.42776 0.661242,-0.57035 -0.826553,-0.42777 0.495931,-0.42777"
       id="path7877-2"
       inkscape:connector-curvature="0" />
    <path
       style="fill:none;fill-rule:evenodd;stroke:#000000;stroke-width:0.35004979px;stroke-linecap:butt;stroke-linejoin:miter;stroke-opacity:1"
       d="m 67.809822,951.10539 c 0.661242,-0.42778 1.322484,-0.85554 1.983726,-1.28331 0.165377,0 0.348068,0.0637 0.495931,0 0.209103,-0.0901 0.28683,-0.33758 0.495932,-0.42778 0.684064,-0.29501 0.44359,0.51806 0.991863,-0.42776 0.07392,-0.12751 0,-0.28519 0,-0.42778 0,-0.14255 0,-0.28518 0,-0.42776"
       id="path7879-9"
       inkscape:connector-curvature="0" />
    <path
       style="fill:none;fill-rule:evenodd;stroke:#000000;stroke-width:0.35004979px;stroke-linecap:butt;stroke-linejoin:miter;stroke-opacity:1"
       d="m 44.005127,961.37187 c 0.495948,-0.85549 0.835566,-1.79301 1.487811,-2.56664 0.687521,-0.81548 1.731328,-1.3642 2.479658,-2.13882 0.910365,-0.94232 1.601077,-2.03 2.479641,-2.99447 0.941621,-1.03362 1.977425,-2.00088 2.975588,-2.99433 2.100681,-2.09072 4.50911,-4.57956 6.943041,-6.41656 2.616391,-1.9747 6.930886,-4.59286 9.918613,-5.98879 5.975025,-2.79166 6.044831,-2.25673 11.902339,-4.27771 1.511675,-0.52157 2.951709,-1.18953 4.463367,-1.71109 0.970745,-0.33492 1.983743,-0.57035 2.975606,-0.85553 0.495915,-0.14255 1.020225,-0.22612 1.487778,-0.42778 0.209102,-0.0901 0.286845,-0.33758 0.495931,-0.42776 0.147847,-0.0637 0.330621,0 0.495948,0 0.330605,-0.14255 0.684279,-0.25091 0.991847,-0.42778 0.729757,-0.41963 1.253968,-1.29144 1.983726,-1.71107 0.307567,-0.17687 0.730485,-0.20232 0.991862,-0.42778 0.261378,-0.22546 0.290898,-0.59024 0.495932,-0.85554 0.129655,-0.16779 0.330621,-0.28518 0.495931,-0.42778 0.720001,-0.62102 0.536863,-0.42776 1.487795,-0.42776"
       id="path7881-3"
       inkscape:connector-curvature="0" />
    <path
       style="fill:none;fill-rule:evenodd;stroke:#000000;stroke-width:0.35004979px;stroke-linecap:butt;stroke-linejoin:miter;stroke-opacity:1"
       d="m 36.07024,954.52759 c 2.755688,-1.29655 7.766831,-3.57066 10.414561,-5.13329 1.555566,-0.91804 2.847141,-2.15793 4.463367,-2.99439 1.712806,-0.88643 3.668666,-1.36834 5.455246,-2.13886 5.602829,-2.41639 6.255868,-3.29035 12.398271,-5.56101 2.258813,-0.83502 4.679746,-1.31292 6.943041,-2.13887 2.042567,-0.74538 3.967435,-1.71108 5.951161,-2.56662 1.653105,-0.71294 3.392024,-1.29393 4.959298,-2.13885 2.393298,-1.29022 3.40284,-2.70408 5.455263,-4.27772 0.617765,-0.47365 1.338278,-0.83793 1.98371,-1.2833 0.182559,-0.12602 0.308907,-0.30678 0.495931,-0.42777 3.700402,-2.39387 -0.182989,-0.09 2.479657,-0.85554 0.221787,-0.0637 0.28683,-0.3376 0.495932,-0.42778 5.513622,-2.37792 -2.538035,1.52237 2.975592,-0.85553 0.53311,-0.22992 0.93993,-0.65304 1.48777,-0.85556 0.6265,-0.23159 1.3741,-0.16488 1.98373,-0.42776 0.41821,-0.18036 0.60283,-0.63182 0.99188,-0.85554 0.13759,-0.0791 0.3306,0 0.49592,0 0.16537,0 0.33062,0 0.49594,0"
       id="path7883-1"
       inkscape:connector-curvature="0" />
    <path
       style="fill:none;fill-rule:evenodd;stroke:#000000;stroke-width:0.35004979px;stroke-linecap:butt;stroke-linejoin:miter;stroke-opacity:1"
       d="m 33.094651,952.38871 c 0,-1.47646 -0.306972,-3.01734 0.99188,-4.27771 0.791955,-0.76851 1.995467,-1.1258 2.975572,-1.71109 1.169196,-0.6982 2.2776,-1.4725 3.47152,-2.13886 4.829213,-2.69531 5.315024,-2.61974 10.414545,-5.13325 6.059615,-2.98673 3.516222,-1.90532 8.92675,-4.70547 0.03936,-0.0204 5.44663,-2.6559 5.951178,-2.9944 0.738159,-0.49522 1.273714,-1.18616 1.983726,-1.71108 0.452553,-0.33459 0.991863,-0.57037 1.487794,-0.85555 0.495932,-0.28517 0.976698,-0.59104 1.487795,-0.85554 0.316961,-0.16405 0.674885,-0.26372 0.991863,-0.42778 0.511096,-0.2645 0.939935,-0.653 1.487794,-0.85554 0.62648,-0.23158 1.357246,-0.19617 1.98371,-0.42776 0.547843,-0.20252 0.929714,-0.67502 1.487794,-0.85555 4.180044,-0.72111 0.870212,0.045 4.463383,-1.2833 0.960988,-0.35525 2.004862,-0.52063 2.975589,-0.85555 0.686413,-0.23683 1.322484,-0.57036 1.983726,-0.85554 0.330605,-0.14255 0.684296,-0.25091 0.991863,-0.42778 0.1945,-0.11179 0.330605,-0.28517 0.495932,-0.42776 0.495931,-0.42777 0.991863,-0.85555 1.487778,-1.28333 3.036861,-2.61946 -0.836409,0.5411 1.983726,-1.2833 0.374065,-0.24198 0.617814,-0.61357 0.991879,-0.85554 0.29571,-0.19131 0.674886,-0.26373 0.991847,-0.42778 0.511096,-0.26451 0.976698,-0.59101 1.487794,-0.85553 1.253654,-0.64882 2.65929,-1.1469 3.967452,-1.71109 0.330621,-0.14255 0.641182,-0.32695 0.991863,-0.42776 0.156777,-0.045 0.379027,0.10088 0.495936,0 0.23377,-0.20166 -0.104523,-0.585 0,-0.85554 0.11692,-0.30249 0.33062,-0.57037 0.49593,-0.85556"
       id="path7885-9"
       inkscape:connector-curvature="0" />
    <path
       style="fill:none;fill-rule:evenodd;stroke:#000000;stroke-width:0.35004979px;stroke-linecap:butt;stroke-linejoin:miter;stroke-opacity:1"
       d="m 19.208586,956.23858 c 1.15719,-0.71294 2.258119,-1.49914 3.47152,-2.13881 1.76743,-0.93164 3.636831,-1.71106 5.455247,-2.56662 1.983726,-1.2833 3.887972,-2.6635 5.951178,-3.84992 1.910844,-1.09882 4.040316,-1.89558 5.951161,-2.9944 23.193777,-13.33737 -8.465647,4.36027 10.414545,-7.27211 1.868789,-1.15139 3.998493,-1.95173 5.951177,-2.99439 1.520357,-0.81182 2.915905,-1.79384 4.463384,-2.56663 1.59949,-0.79876 3.290615,-1.45345 4.959298,-2.13885 1.803432,-0.74076 3.74244,-1.25242 5.455246,-2.13887 1.616226,-0.83644 2.935386,-2.04252 4.463384,-2.99439 1.449576,-0.90302 2.975572,-1.71109 4.463367,-2.56663 0.991862,-0.57035 2.034628,-1.07979 2.975588,-1.71109 0.553615,-0.3714 0.940134,-0.90538 1.487795,-1.2833 0.860372,-0.5937 0.945888,-0.15446 1.487794,-0.85554 0.205034,-0.26529 0.234554,-0.63009 0.495915,-0.85555 0.261395,-0.22546 0.696153,-0.23645 0.99188,-0.42776 0.748098,-0.48398 1.26533,-1.1947 1.983726,-1.71109 0.634963,-0.45642 1.348729,-0.8269 1.983709,-1.2833 0.897995,-0.64548 1.653105,-1.42591 2.479658,-2.13887 0.330621,-0.28517 0.626744,-0.60359 0.991863,-0.85554 3.924883,-2.70836 -1.414947,1.4739 3.47152,-2.13885 0.532496,-0.3937 0.940133,-0.90541 1.487799,-1.28331 0.28863,-0.19918 0.67488,-0.26374 0.99186,-0.42778 1.40193,-0.72554 1.17631,-0.58685 1.98371,-1.28332"
       id="path7887-4"
       inkscape:connector-curvature="0" />
    <path
       style="fill:none;fill-rule:evenodd;stroke:#000000;stroke-width:0.35004979px;stroke-linecap:butt;stroke-linejoin:miter;stroke-opacity:1"
       d="m 65.330165,991.74362 c 1.606071,-0.0165 2.91645,-1.06089 4.463383,-1.28332 0.489184,-0.0711 0.99861,0.0711 1.487794,0 1.031289,-0.14884 1.970298,-0.60776 2.975573,-0.85549 0.655371,-0.16207 1.345537,-0.22144 1.983726,-0.42783 0.692233,-0.22392 1.322484,-0.57039 1.983742,-0.85549 0.661226,-0.28528 1.337451,-0.54591 1.98371,-0.85566 0.842627,-0.40369 1.617499,-0.91139 2.479657,-1.28333 2.532842,-1.09231 3.854715,-1.39346 6.447093,-2.13881 0.991863,-0.28511 1.99302,-0.54723 2.975605,-0.8555 6.52305,-2.04604 -0.45424,-0.0165 3.967435,-1.28332 0.495932,-0.14222 0.975193,-0.33935 1.487795,-0.42783 0.01918,0 1.485363,0.002 1.487794,0 0.233793,-0.20159 -0.233776,-0.6539 0,-0.85549 0.116922,-0.10088 0.330621,0 0.495932,0 0.165377,-0.28511 0.290881,-0.59023 0.495936,-0.85549 0.30096,-0.38947 1.268,-0.90428 1.48779,-1.28333 0.0739,-0.12734 0,-0.28527 0,-0.42783"
       id="path7889-78"
       inkscape:connector-curvature="0" />
    <path
       style="fill:none;fill-rule:evenodd;stroke:#000000;stroke-width:0.35004979px;stroke-linecap:butt;stroke-linejoin:miter;stroke-opacity:1"
       d="m 36.566171,981.04938 c 3.771828,-1.62681 1.945971,-0.9281 5.455247,-2.13882 0.826552,-0.28527 1.62079,-0.65357 2.479657,-0.85566 0.970116,-0.22822 2.02163,-0.1538 2.975573,-0.42766 1.052027,-0.30247 1.940579,-0.94 2.975589,-1.28332 2.59337,-0.86046 3.966029,-0.73841 6.447109,-1.71116 0.877505,-0.34398 1.589881,-0.96348 2.479657,-1.28332 1.110901,-0.39922 2.338145,-0.50638 3.471504,-0.85549 2.371253,-0.73047 4.605194,-1.76011 6.943041,-2.56665 1.311387,-0.45247 2.656048,-0.83085 3.967452,-1.28332 2.33783,-0.80654 4.592923,-1.7869 6.943024,-2.56665 0.975821,-0.32364 2.079066,-0.39161 2.975589,-0.85549 0.801862,-0.41509 1.235612,-1.22709 1.983726,-1.71115 0.59142,-0.38252 1.382135,-0.48489 1.983726,-0.85549 0.570715,-0.3516 0.955281,-0.88957 1.487778,-1.28333 1.255142,-0.92793 2.644968,-1.71115 3.967452,-2.56664 0.661242,-0.42783 1.331298,-0.84557 1.983726,-1.28333 0.835532,-0.56046 1.612488,-1.1874 2.479657,-1.71098 0.789673,-0.47695 1.718792,-0.77297 2.479662,-1.28333 0.73814,-0.4953 1.23561,-1.22709 1.9837,-1.71111 6.77344,-4.38187 -3.136198,3.11318 3.96747,-2.13887 0.5325,-0.3937 0.99185,-0.85553 1.48778,-1.28331 0.33062,-0.28517 0.69979,-0.5406 0.99186,-0.85554 0.37235,-0.40145 0.72531,-0.82346 0.99187,-1.28331 0.7297,-1.25884 -1.14887,0.56319 0.49593,-0.85554"
       id="path7891-4"
       inkscape:connector-curvature="0" />
    <path
       style="fill:none;fill-rule:evenodd;stroke:#000000;stroke-width:0.35004979px;stroke-linecap:butt;stroke-linejoin:miter;stroke-opacity:1"
       d="m 86.655185,985.32701 c 1.15719,0 2.314347,0 3.471521,0 0.495948,0 1.001504,0.0843 1.487794,0 0.362473,-0.0628 0.63326,-0.35043 0.991863,-0.42766 0.320748,-0.0695 0.667659,0.0562 0.991863,0 0.512618,-0.0877 0.98065,-0.31852 1.487795,-0.42783 0.320748,-0.0695 0.678209,0.0893 0.991862,0 1.037375,-0.29834 1.959548,-0.93273 2.975589,-1.28333 3.386538,-1.16838 -0.183402,0.43941 2.479658,-1.28332 0.29571,-0.19134 0.73047,-0.20225 0.99186,-0.42783 0.11692,-0.10088 -0.0739,-0.30016 0,-0.42766 0.84662,-1.46061 0.49592,1.32285 0.49592,-1.71115"
       id="path7893-5"
       inkscape:connector-curvature="0" />
    <rect
       style="opacity:1;fill:none;fill-opacity:1;stroke:#000000;stroke-width:1.08531344;stroke-miterlimit:4;stroke-dasharray:none;stroke-opacity:1"
       id="rect7895-0"
       width="71.554703"
       height="57.474483"
       x="37.242985"
       y="916.73187" />
  </g>
</svg>
